P2
125 125
255
81
60
51
50
50
50
50
50
51
52
53
54
55
54
55
54
54
54
54
55
56
55
53
52
55
54
56
53
52
52
46
45
41
40
43
43
45
43
41
46
44
42
48
48
42
35
33
40
36
38
52
33
47
39
41
41
42
42
43
42
43
42
45
44
44
42
42
41
41
43
40
38
37
40
45
44
44
43
46
44
44
42
43
43
44
43
43
43
39
43
42
46
42
44
40
41
43
42
41
39
40
41
41
41
41
41
41
40
42
42
42
42
42
42
43
43
43
43
42
40
40
40
43
49
66
60
30
18
16
15
16
16
16
16
17
16
18
19
19
19
17
17
18
19
19
20
20
16
17
19
19
19
20
20
20
16
14
14
13
16
16
15
14
9
16
17
10
6
1
2
9
9
0
0
20
60
25
15
16
13
13
14
15
16
16
19
18
17
15
16
14
14
14
15
15
18
17
14
16
16
14
12
12
14
12
13
13
13
14
14
13
14
14
12
13
12
13
12
13
11
13
16
14
13
12
14
15
14
14
14
14
15
15
14
14
12
12
14
12
13
13
13
12
14
14
14
13
16
24
49
51
18
5
3
3
1
4
3
2
2
2
3
3
4
4
3
3
3
4
4
4
4
1
2
4
4
4
4
5
6
4
4
4
4
5
4
1
0
3
0
0
0
0
0
0
0
0
11
55
0
0
0
2
0
1
1
2
2
4
4
4
4
7
6
6
6
6
6
6
5
8
7
8
8
7
4
4
5
7
5
7
7
8
8
8
8
6
6
7
5
2
0
3
3
0
2
4
4
2
1
2
5
3
3
2
2
4
3
3
3
2
2
3
3
3
4
4
3
3
1
2
1
4
13
42
49
16
2
0
0
0
1
0
0
0
0
0
0
0
1
0
0
0
0
0
0
0
0
0
1
2
0
0
2
4
1
3
3
3
2
0
0
0
0
0
0
0
0
0
1
34
45
35
63
0
0
0
0
6
0
0
0
0
0
0
0
0
0
0
0
0
0
0
0
0
0
0
0
0
0
0
0
3
2
1
1
1
2
2
2
3
4
3
5
1
3
0
3
3
0
0
3
2
0
0
1
3
0
0
0
0
0
0
0
0
1
0
1
0
0
0
1
2
0
0
0
0
0
11
39
49
16
3
1
1
1
1
0
0
0
0
0
0
0
0
0
0
0
0
0
1
0
0
0
2
1
0
0
0
2
0
1
0
0
0
0
0
0
0
0
0
0
25
42
32
19
12
16
49
0
0
0
0
1
2
4
4
2
2
2
2
3
7
7
9
10
9
8
8
5
2
0
0
0
0
0
0
0
0
0
0
0
0
0
0
0
0
0
0
0
0
0
0
0
0
0
2
0
1
2
3
3
0
0
0
0
0
0
0
0
0
0
0
0
0
0
0
0
0
0
0
0
2
14
43
50
16
3
0
1
1
1
0
0
1
0
0
0
0
0
0
0
0
0
1
2
1
0
0
1
0
0
0
0
0
0
0
0
0
0
0
0
0
0
18
34
29
21
13
6
3
2
12
40
0
0
0
0
0
0
0
0
0
0
1
1
1
0
0
0
3
2
1
0
0
6
3
1
4
6
4
3
1
5
4
4
2
1
1
0
0
0
0
0
0
6
1
5
0
0
0
0
0
0
1
1
1
0
0
0
0
0
0
0
0
0
0
0
0
0
0
0
0
0
0
0
0
1
13
46
51
17
4
1
0
0
0
0
0
0
1
0
1
0
0
0
0
0
0
0
0
0
0
0
0
0
2
2
2
0
0
0
0
0
0
0
15
25
31
22
22
8
0
5
0
0
0
16
33
0
0
1
0
3
0
0
0
0
0
1
0
0
1
1
0
0
0
0
0
0
0
0
0
0
0
0
0
0
3
2
2
2
2
1
1
2
8
3
0
0
23
4
0
0
0
0
1
0
0
0
0
1
1
0
2
14
10
3
15
16
10
9
0
2
0
0
0
2
1
1
2
3
6
19
50
50
15
4
0
0
0
0
0
1
0
1
1
0
0
0
0
1
0
0
0
1
0
0
0
0
0
0
0
0
0
0
0
4
18
24
21
17
14
3
0
0
0
0
0
0
3
0
9
35
0
0
0
0
0
3
2
0
0
0
0
0
0
0
0
0
0
0
2
3
3
0
0
0
0
1
2
3
2
0
0
0
0
0
0
1
1
0
2
6
0
17
0
0
3
0
1
1
1
1
0
0
1
12
8
8
14
8
0
11
13
23
19
6
13
5
0
0
0
0
0
0
1
4
19
52
50
16
4
0
0
0
0
0
0
0
1
0
0
0
0
0
2
0
1
0
0
0
0
0
0
0
0
0
0
0
18
17
18
17
12
7
5
4
4
9
0
0
1
0
0
0
9
11
35
0
0
0
8
5
0
0
0
0
0
0
0
0
2
2
0
0
0
0
0
0
4
4
3
2
1
0
0
0
0
0
0
0
0
0
0
1
3
0
0
0
18
8
2
5
0
0
0
0
5
14
21
26
10
5
1
3
0
0
0
0
0
0
0
0
5
6
2
3
0
0
0
1
3
17
53
52
18
5
2
2
2
0
0
0
0
0
0
0
0
1
1
0
0
1
0
0
0
4
0
0
0
0
7
18
20
17
13
11
7
1
0
0
0
2
1
0
0
0
2
8
0
1
12
40
0
0
5
8
1
5
5
5
5
3
3
3
4
2
1
1
1
0
1
1
1
0
0
0
0
0
0
0
0
1
1
0
0
0
0
0
0
0
0
0
0
20
7
0
1
17
20
22
20
14
1
0
0
0
0
0
4
0
0
0
0
0
0
0
16
19
13
5
6
1
1
2
2
3
17
53
53
18
6
2
2
1
0
0
1
0
0
0
0
0
0
0
0
0
0
0
0
0
1
0
6
18
17
23
16
11
0
0
2
2
3
1
1
1
3
0
1
10
0
0
8
9
16
29
59
0
0
30
27
26
19
20
21
19
18
15
14
15
15
13
12
12
10
9
9
8
8
8
7
6
5
4
3
3
1
1
1
1
1
2
3
1
3
0
0
3
29
34
37
41
15
9
0
0
0
0
0
3
0
0
3
12
4
0
3
4
0
0
0
15
18
12
4
8
3
3
3
3
5
19
56
53
17
5
2
1
0
0
0
1
0
1
1
0
0
0
0
0
0
0
0
0
0
0
0
17
29
15
10
0
0
7
5
1
0
0
0
0
2
7
0
6
2
6
15
10
14
30
0
50
0
5
1
0
18
24
25
28
30
31
30
32
31
32
30
30
29
28
28
27
27
23
22
21
19
17
15
14
13
15
14
13
11
10
9
10
6
0
1
1
9
27
30
14
0
0
0
4
7
8
7
4
2
4
2
3
8
0
0
0
0
8
0
0
20
15
6
0
0
0
0
0
0
4
19
57
54
16
3
1
0
0
0
0
0
0
0
0
0
0
0
0
0
0
1
1
1
1
0
0
16
21
0
0
0
0
0
0
0
3
3
4
1
0
0
0
1
0
18
14
0
36
12
0
37
0
19
0
0
0
0
0
0
0
0
0
0
0
0
0
0
0
0
0
0
0
15
16
19
22
27
30
32
33
34
34
33
32
33
31
32
26
22
27
14
0
0
0
0
0
0
0
0
0
0
0
0
0
0
0
1
9
0
0
0
3
0
0
0
16
10
3
0
0
0
0
0
0
2
17
58
55
18
4
0
0
0
0
0
0
0
0
0
0
0
0
0
0
0
0
1
2
1
0
0
11
19
1
0
0
1
1
0
2
3
7
12
17
19
25
10
7
9
21
0
0
46
46
0
66
0
25
0
0
0
0
0
0
0
0
0
0
0
0
0
0
0
0
0
0
0
0
0
0
0
0
0
0
0
0
0
0
0
0
0
0
0
0
0
7
0
0
0
0
0
0
0
1
1
0
0
0
0
0
0
5
14
3
0
0
0
0
0
0
22
15
5
0
0
0
0
0
0
1
18
58
57
19
4
0
0
0
0
0
0
0
1
1
1
0
0
0
3
1
0
0
0
1
0
0
15
16
5
4
0
0
0
3
1
18
15
30
53
50
0
1
17
13
36
0
0
50
37
0
64
0
20
0
0
0
0
0
0
0
0
0
0
0
0
0
0
0
0
0
0
0
0
0
0
0
0
0
0
0
0
0
0
0
0
0
0
0
0
43
0
0
0
0
4
0
1
2
2
3
2
2
2
0
4
6
10
13
0
0
0
2
1
0
0
31
13
7
2
0
4
3
0
0
5
21
61
56
18
3
0
1
0
1
0
1
1
2
1
0
0
0
0
1
1
0
0
1
1
0
0
18
9
6
0
13
0
8
9
19
33
40
15
0
0
0
12
24
6
32
0
0
55
33
0
63
0
33
20
37
32
28
20
12
3
0
0
3
5
0
0
0
0
0
0
0
0
4
0
0
0
0
0
0
0
2
0
0
0
0
0
0
0
3
53
3
0
0
0
2
0
0
0
0
1
0
0
0
0
2
0
7
18
0
0
0
3
2
0
0
32
14
6
2
0
3
1
1
1
6
23
66
56
17
3
0
2
3
2
0
0
1
0
0
0
0
0
0
0
0
2
3
2
0
0
0
23
21
15
0
13
5
0
21
22
0
0
0
0
0
0
43
22
17
32
0
0
38
36
0
67
0
16
0
0
0
15
11
7
3
1
0
2
4
2
1
0
1
3
3
3
1
0
0
0
0
0
0
0
0
0
0
0
0
0
0
0
0
11
45
3
0
0
0
2
0
0
0
0
0
0
0
0
0
1
0
4
26
0
0
0
2
1
0
0
33
14
7
2
0
2
1
2
3
8
25
69
57
18
3
0
2
1
1
0
0
0
0
0
0
0
0
0
0
0
0
0
0
0
0
0
13
16
20
25
0
25
9
23
29
0
0
1
1
0
0
42
16
10
16
0
15
39
21
0
69
0
29
0
0
0
0
0
0
0
2
0
0
0
4
4
3
2
4
4
4
4
0
0
0
0
0
0
0
0
0
0
0
0
0
0
0
0
13
33
0
0
0
0
3
1
0
0
0
0
0
0
0
0
4
0
4
33
0
0
0
0
0
0
0
33
13
5
1
0
0
0
1
2
7
24
68
57
20
5
1
0
1
1
0
0
0
3
1
2
0
0
0
3
0
0
0
0
0
2
0
40
0
23
32
0
0
19
20
34
0
1
5
3
11
0
37
25
12
0
9
23
23
24
0
66
0
22
0
0
0
0
0
0
0
0
0
1
2
1
0
0
1
1
1
1
0
0
2
19
31
31
35
40
42
31
34
26
27
17
4
12
8
23
26
2
0
0
0
2
0
0
0
0
0
0
0
0
0
3
0
3
32
0
0
0
0
0
0
0
34
14
4
0
0
0
0
1
2
4
22
65
57
20
6
1
0
0
0
0
0
0
1
1
1
1
0
2
5
3
0
0
0
0
6
0
41
0
8
47
0
20
24
26
32
0
1
3
0
0
0
28
16
6
2
4
1
33
20
0
60
0
17
0
0
0
0
0
0
0
0
0
0
1
0
0
1
0
1
0
0
0
0
0
3
6
0
0
0
0
8
12
3
8
1
0
2
0
27
17
4
0
0
0
1
0
0
0
0
0
0
0
0
0
1
0
4
24
0
0
1
2
0
0
0
35
15
3
0
1
2
2
2
2
5
22
66
58
19
4
1
1
0
0
0
0
0
0
0
0
0
2
3
2
2
0
0
1
1
0
0
58
0
38
60
0
8
10
31
35
0
0
1
5
0
0
50
25
0
0
11
9
23
17
0
57
0
8
0
0
0
0
0
0
0
0
0
0
0
0
1
2
2
1
1
1
1
0
0
1
7
0
0
0
0
0
3
0
7
4
0
7
0
30
8
2
0
0
0
2
1
1
0
1
1
0
0
0
0
0
1
5
13
0
1
1
1
0
0
0
37
16
3
0
1
1
2
3
2
4
22
67
58
19
4
0
1
1
4
1
0
0
1
1
0
0
3
1
0
0
0
0
2
0
0
4
44
0
32
49
0
14
15
29
30
0
0
0
3
0
0
36
18
9
8
12
31
49
20
0
56
0
13
0
12
1
7
0
0
0
0
0
0
0
0
0
0
1
0
0
0
0
0
0
2
8
4
0
1
0
0
1
0
4
0
0
0
0
40
10
7
0
0
0
1
2
2
2
2
1
0
0
0
0
3
6
8
7
0
0
0
0
0
0
0
37
16
3
0
0
0
0
0
0
4
22
67
60
20
3
0
0
0
4
1
0
1
1
0
0
4
0
0
1
2
2
0
0
0
0
0
47
0
27
26
16
16
10
18
28
0
0
3
5
0
0
39
20
5
28
13
0
0
31
0
47
0
3
0
8
15
16
27
18
19
23
26
34
28
0
0
0
0
3
3
0
0
0
0
4
7
1
4
10
0
4
3
11
2
0
0
0
0
41
11
10
0
0
0
0
0
0
0
0
0
0
0
0
0
1
5
9
4
0
0
0
0
0
0
0
40
12
6
4
2
2
2
2
3
6
17
61
55
17
4
4
5
4
0
0
0
2
2
0
0
0
2
0
0
0
0
0
0
0
0
4
37
0
28
23
10
0
8
22
27
0
0
3
4
0
0
42
12
9
23
0
0
0
39
0
55
0
0
0
0
0
4
0
19
0
0
5
0
40
0
0
0
0
3
1
1
0
0
0
0
3
0
1
5
0
4
8
6
1
3
0
0
0
38
8
13
0
0
3
5
1
2
2
2
0
2
0
1
0
0
0
3
2
2
3
4
3
2
0
0
38
14
7
6
9
5
3
13
0
0
33
57
56
17
1
0
0
0
0
0
0
0
0
0
0
1
0
0
0
0
0
0
0
0
0
8
31
0
30
12
11
1
5
22
23
0
0
5
5
0
0
48
15
1
35
0
0
0
44
0
47
0
3
0
0
0
1
0
45
0
0
21
0
63
0
0
0
0
0
0
0
1
0
0
0
1
0
0
0
0
0
0
0
0
2
0
0
0
48
5
1
0
0
0
0
0
0
0
0
0
0
0
0
0
3
2
0
0
0
0
0
0
0
0
0
33
14
4
0
6
18
11
7
14
8
26
46
58
13
0
0
0
0
0
0
0
0
0
0
0
0
0
0
0
0
0
0
0
0
5
8
33
0
33
16
16
0
4
21
20
0
0
0
0
0
0
32
7
6
53
0
0
0
45
0
44
0
0
7
24
0
0
0
40
0
0
18
0
64
0
0
0
0
0
0
0
4
0
0
2
1
0
0
0
0
0
0
0
0
1
0
0
0
53
6
12
4
2
10
13
7
4
4
4
3
4
4
4
4
0
0
5
8
7
6
4
0
0
0
0
52
38
23
8
7
0
0
0
3
17
23
64
51
10
0
3
14
23
11
6
0
0
0
0
0
0
0
0
0
1
2
3
3
2
2
14
32
0
58
42
16
24
12
22
15
0
0
0
0
0
0
26
16
6
41
0
0
0
23
0
38
0
0
0
25
13
0
0
29
0
3
5
0
73
0
0
0
0
0
1
4
2
0
0
3
3
0
0
3
0
0
4
0
3
7
0
1
0
54
3
7
0
1
4
4
5
5
4
4
4
4
5
5
5
10
9
9
5
3
2
5
10
6
0
0
0
0
0
3
17
33
45
4
36
42
51
81
56
20
14
16
18
16
20
16
11
9
11
11
6
1
0
1
2
6
6
6
4
5
5
26
24
0
49
0
0
10
17
23
8
0
0
0
7
7
5
30
18
5
36
0
0
0
32
11
21
0
0
0
0
0
0
0
26
0
0
5
0
66
0
0
0
0
0
0
0
0
0
0
3
5
0
0
3
0
0
4
0
0
6
0
5
0
63
16
6
0
0
0
0
2
0
0
0
0
0
0
0
0
0
0
0
0
0
0
10
17
21
21
18
5
0
0
0
0
0
0
0
0
0
0
28
71
32
17
7
0
0
3
4
4
4
6
9
8
4
3
5
6
6
7
4
4
3
0
18
18
0
56
0
0
49
16
27
8
0
0
3
13
5
1
27
4
16
44
0
0
0
67
55
6
0
0
0
0
0
0
0
8
0
0
0
0
8
0
0
0
0
0
0
0
0
0
0
0
0
0
0
0
0
0
3
0
0
0
0
0
0
15
4
9
0
0
0
0
0
0
0
0
0
0
0
0
0
0
0
5
7
1
0
0
0
0
0
0
0
0
0
0
0
2
0
3
0
0
0
2
81
35
6
0
0
6
1
3
5
1
0
3
5
6
4
4
5
5
3
3
2
3
5
20
19
0
41
0
0
32
15
33
12
0
0
2
7
0
0
42
20
14
34
0
0
0
58
49
0
0
0
0
9
8
4
0
1
0
8
0
0
0
0
0
0
0
0
0
0
0
0
0
0
0
0
0
0
0
0
0
0
0
0
0
0
7
3
14
20
0
0
3
0
3
0
0
0
0
2
1
0
0
3
0
0
0
1
0
0
0
1
0
1
0
0
0
0
0
0
0
0
0
0
2
55
76
29
8
1
1
0
2
2
2
2
3
3
1
1
5
5
4
2
2
1
2
4
5
9
24
0
52
0
0
38
15
33
6
0
0
12
0
0
0
41
14
15
41
0
0
0
59
64
0
0
20
37
44
52
48
49
47
47
44
48
58
50
52
58
58
56
58
54
47
47
40
36
32
26
20
12
3
1
0
0
0
0
0
0
0
39
0
12
17
0
0
0
0
5
2
0
3
3
0
3
6
3
2
2
6
11
4
0
0
4
2
4
0
0
0
4
4
2
2
0
0
54
57
61
82
76
27
5
0
0
1
0
0
0
2
3
3
3
3
2
1
1
0
0
0
0
0
2
3
20
0
46
0
0
35
16
26
6
0
0
3
0
0
0
38
22
8
43
0
0
7
31
5
11
0
0
0
0
0
3
4
7
8
11
17
26
24
38
42
42
42
49
51
51
53
44
45
46
49
51
52
54
57
55
54
47
41
42
31
17
14
1
19
13
0
0
1
0
0
0
0
0
1
0
0
1
0
6
4
5
6
3
0
0
1
8
11
6
0
1
2
0
0
0
0
0
53
28
27
68
76
25
4
0
0
1
0
0
0
0
0
0
1
0
0
0
0
0
0
0
0
0
0
26
0
0
45
0
0
40
10
23
11
0
0
0
4
0
28
38
7
7
36
0
0
19
0
0
23
2
0
0
0
0
0
0
0
0
0
0
0
0
0
0
0
0
0
0
0
0
0
0
0
0
0
0
1
5
10
20
25
28
40
49
41
22
2
25
9
0
0
0
0
0
1
0
0
0
0
0
0
0
0
0
0
0
1
3
2
0
0
6
4
3
6
7
5
6
11
0
0
36
35
48
80
80
28
8
5
3
3
3
3
2
0
0
0
0
0
0
0
0
0
0
0
1
1
0
13
18
0
21
0
0
38
22
27
5
0
0
0
51
57
22
12
7
26
34
0
0
21
0
0
10
14
0
0
0
0
0
0
0
0
0
0
0
0
0
0
0
0
0
0
0
0
0
0
0
0
0
0
0
0
0
0
0
0
0
0
0
0
0
19
9
0
0
0
1
1
0
0
2
10
8
0
0
0
0
0
0
0
0
0
0
0
0
1
2
0
0
0
0
0
0
0
0
19
0
0
35
83
31
14
12
9
5
5
4
2
0
0
0
0
0
0
0
0
1
2
4
4
4
1
0
9
47
4
0
0
39
14
26
7
0
0
0
2
0
0
17
16
22
39
0
0
16
9
15
15
12
0
0
0
0
0
0
5
0
0
0
0
13
2
6
2
0
0
0
0
0
0
0
1
0
0
0
0
0
0
0
0
0
0
0
0
0
15
25
14
0
7
10
12
19
18
14
5
7
14
15
20
34
29
29
25
17
10
3
0
0
0
0
0
0
0
0
0
2
0
0
0
0
8
8
32
77
27
11
10
5
0
2
2
0
0
0
0
0
0
0
0
2
3
3
3
2
1
5
7
7
43
13
0
0
43
13
30
0
0
0
0
10
0
0
25
9
15
24
0
0
0
0
0
25
13
0
0
5
0
2
8
21
5
0
0
0
35
0
2
2
0
3
2
0
0
0
2
6
7
4
1
0
0
0
0
0
0
0
0
0
0
42
29
19
0
0
4
0
3
0
5
6
9
19
18
13
20
20
21
27
28
29
29
29
29
23
25
22
13
6
0
0
0
0
0
0
0
6
5
26
66
17
1
0
0
0
0
0
0
0
0
1
1
1
0
0
1
1
2
2
0
0
0
4
38
32
21
0
0
39
8
31
0
0
0
0
1
5
0
11
11
27
13
0
0
0
0
0
8
10
0
0
3
0
0
0
9
0
0
0
0
31
0
0
0
0
0
1
0
0
2
2
4
3
3
1
1
0
0
8
5
0
0
0
0
0
36
20
21
0
0
0
0
0
0
2
0
0
0
0
0
0
0
0
0
0
0
0
0
0
0
0
1
3
10
9
14
20
19
17
14
2
0
0
16
64
16
0
0
0
0
0
0
0
1
3
3
3
1
0
0
0
3
3
4
3
2
4
17
0
0
27
0
0
42
17
31
0
0
0
0
5
14
0
29
14
7
13
0
0
7
13
53
0
7
0
0
0
2
0
0
0
0
0
0
0
2
0
0
0
0
0
0
0
0
0
0
0
0
0
0
0
0
0
1
0
0
6
0
0
0
27
23
44
0
0
0
0
1
1
14
4
0
0
2
2
12
10
0
0
0
0
0
0
0
0
0
0
0
0
0
0
0
0
0
0
0
0
0
27
67
22
4
0
0
0
0
0
0
0
0
1
3
3
2
0
1
1
1
1
2
3
2
20
4
0
34
0
0
41
14
38
6
0
17
14
36
0
0
39
5
5
18
23
38
31
27
61
0
8
0
0
0
0
0
0
0
0
0
0
0
0
0
0
0
0
0
0
0
0
0
0
0
0
0
0
0
0
0
0
0
0
0
0
0
0
0
34
35
0
0
0
0
0
12
6
0
0
0
0
0
0
6
0
0
0
0
1
0
6
9
5
0
0
0
0
0
0
0
0
0
53
44
58
84
64
22
5
2
3
5
1
0
0
0
0
0
2
1
4
3
2
3
2
3
4
4
9
14
5
0
32
0
0
33
9
37
0
0
0
0
0
2
0
28
13
5
10
13
20
16
35
51
0
11
13
29
38
27
30
26
21
16
12
7
0
0
0
0
0
0
0
0
0
0
0
0
0
0
0
0
0
0
0
0
0
0
0
0
0
0
0
31
41
0
0
5
3
0
8
6
0
0
0
2
4
10
6
0
0
0
4
7
1
4
5
9
2
0
0
4
6
2
10
1
0
32
18
30
66
61
19
3
2
4
6
3
1
0
0
0
0
0
0
0
0
0
0
0
0
0
0
0
20
0
0
27
0
0
45
20
49
0
0
0
0
0
0
0
43
36
7
1
14
27
35
68
69
18
32
37
53
59
52
52
50
51
51
51
60
64
57
60
58
62
62
58
59
61
56
46
46
43
40
34
27
19
14
5
3
1
0
0
0
0
0
0
28
28
0
0
0
1
0
4
4
0
0
0
0
0
2
3
0
0
0
0
4
0
1
0
10
5
0
0
4
0
0
15
4
0
37
27
28
60
60
18
1
0
1
4
4
2
0
0
0
0
0
0
0
0
0
0
0
0
0
0
0
12
0
0
0
0
0
23
17
32
3
0
15
8
7
4
0
17
39
42
55
51
16
0
0
0
0
0
0
0
0
0
0
0
0
0
0
4
10
13
20
22
27
29
26
30
33
28
41
45
51
57
60
61
58
55
58
58
58
59
60
59
57
49
27
45
31
0
0
0
0
0
0
0
0
0
0
0
0
0
0
0
0
0
0
2
1
8
0
10
9
0
1
11
7
0
15
4
0
12
3
5
40
59
17
1
0
0
2
1
1
0
0
0
0
1
2
0
0
0
1
0
1
0
0
0
0
19
11
32
34
43
40
45
31
17
0
7
0
12
0
11
29
19
0
0
0
0
0
0
0
0
0
0
0
0
0
0
0
0
0
0
0
0
0
0
0
0
0
0
0
0
0
0
0
0
0
0
0
0
0
0
0
0
0
2
6
12
13
20
28
26
4
13
17
12
14
12
16
12
10
15
14
12
15
7
2
6
5
2
0
0
0
2
6
0
0
0
0
0
0
0
0
0
0
0
0
35
58
18
2
0
1
3
0
0
0
1
0
1
1
1
1
2
1
2
2
1
1
0
0
0
26
19
26
37
0
0
0
0
20
0
0
0
14
0
0
0
0
0
0
0
2
6
12
0
0
3
7
4
0
0
14
0
0
5
2
0
0
0
0
0
0
0
0
0
0
0
0
0
0
0
0
0
0
0
0
0
0
0
0
0
0
0
0
0
0
0
5
8
2
8
9
13
11
10
15
13
12
14
22
18
22
21
18
16
4
2
2
2
0
0
2
0
0
0
0
0
0
3
9
9
44
58
19
3
0
0
2
0
0
1
2
1
0
0
1
1
1
0
0
0
0
0
0
0
1
36
18
29
43
0
0
78
43
29
0
0
0
2
0
4
0
0
0
3
0
12
11
10
0
0
2
0
1
0
0
39
0
0
20
0
0
8
1
0
0
0
4
2
0
1
4
0
0
0
3
6
6
4
3
0
0
0
0
0
0
0
0
0
0
0
0
0
0
0
0
0
0
0
0
0
0
0
0
0
0
0
0
0
11
2
0
0
6
8
15
21
19
14
18
10
9
0
0
0
0
31
60
22
5
1
0
0
0
1
2
2
0
0
0
0
4
3
0
0
0
0
0
0
0
1
56
38
23
49
0
0
0
0
26
0
0
0
0
4
6
2
0
0
7
0
14
5
11
0
0
0
0
8
1
0
41
0
0
27
0
0
41
43
0
0
0
5
3
0
0
0
3
1
0
0
0
0
0
0
4
1
0
0
0
0
0
0
9
1
5
3
0
4
3
7
0
0
0
0
0
0
0
0
0
0
0
0
0
21
12
0
3
4
0
0
0
0
0
0
0
0
0
0
0
0
16
56
19
5
1
1
0
1
0
1
1
1
1
1
1
0
0
0
0
0
0
0
0
0
0
0
0
0
25
0
0
0
65
18
0
0
1
4
3
0
1
0
3
0
0
25
11
7
0
0
0
0
9
3
0
40
0
0
21
0
0
30
35
0
0
0
0
0
0
0
0
0
0
2
1
0
0
0
2
4
5
3
0
0
0
1
0
4
0
1
12
9
3
0
1
0
0
0
0
2
4
3
1
8
1
0
0
0
22
1
0
0
1
0
0
0
0
0
0
0
0
0
31
36
58
95
54
16
2
0
0
0
0
0
0
0
0
0
0
0
0
0
0
0
1
1
1
1
0
3
8
14
0
56
0
0
0
72
34
0
0
2
0
0
5
10
0
26
0
0
0
0
0
0
0
0
0
5
6
0
42
0
13
30
0
0
33
16
0
0
0
0
0
0
0
0
0
0
1
0
0
0
0
0
0
1
2
0
0
0
0
0
1
0
0
3
1
3
8
9
0
0
0
0
3
9
11
13
0
0
1
0
0
21
6
0
0
5
3
0
4
4
2
1
0
0
38
55
36
44
80
53
16
1
0
0
1
0
0
0
0
0
0
0
0
0
0
1
0
1
1
1
2
0
6
3
20
0
62
0
0
0
15
24
0
0
6
7
4
3
0
0
0
0
0
0
0
0
0
0
0
0
0
0
0
7
0
1
11
0
0
26
2
0
0
0
0
0
0
0
0
0
0
0
0
0
0
0
0
0
0
0
0
0
0
0
0
0
0
3
6
5
7
7
0
6
6
2
0
2
0
0
0
8
0
3
0
0
14
0
0
0
1
0
0
4
5
4
2
0
0
48
57
32
44
85
54
17
3
0
1
1
0
0
1
0
1
1
0
0
0
0
1
1
0
0
0
2
4
2
3
22
0
70
0
0
0
3
26
0
0
0
3
0
1
10
0
0
0
0
0
20
50
68
26
26
27
40
34
17
17
15
18
20
2
5
25
17
2
0
0
0
0
0
0
0
0
0
0
0
0
0
0
0
0
0
0
0
0
0
0
0
0
0
0
0
0
0
0
0
0
0
0
0
0
2
2
2
0
0
0
0
0
22
10
0
4
2
0
0
2
5
5
5
1
0
39
51
28
38
84
54
17
3
0
0
0
0
0
1
0
1
0
0
0
0
1
1
1
0
0
0
1
0
0
19
21
0
58
0
0
0
56
19
0
0
3
0
8
6
1
0
0
80
63
55
41
60
66
0
12
24
42
43
55
47
57
47
49
64
58
52
57
60
62
68
72
67
67
69
67
58
57
58
55
52
49
49
48
38
36
33
26
24
21
19
18
28
15
10
13
13
14
15
14
11
11
10
9
5
0
0
0
0
0
0
0
0
14
0
0
2
0
0
0
0
1
0
0
0
0
0
0
0
0
52
54
19
4
0
0
0
0
0
0
0
0
0
0
0
1
0
0
0
0
0
0
0
1
0
10
0
0
55
45
74
83
93
20
0
23
25
24
27
26
18
0
0
56
0
37
25
0
33
0
0
0
0
0
0
0
0
0
0
0
0
0
0
0
0
1
7
5
7
12
10
26
26
33
35
40
41
46
47
54
55
59
59
62
61
61
59
32
14
7
11
13
13
18
21
26
25
25
26
27
27
27
27
24
26
29
23
15
22
0
0
0
0
0
0
0
0
0
0
0
1
0
15
2
2
69
59
21
6
2
0
0
0
0
0
0
0
0
0
0
2
0
0
0
0
0
0
0
0
11
22
0
0
34
51
16
0
0
0
0
0
0
6
0
0
0
0
14
17
0
31
30
0
49
0
13
3
0
0
0
0
0
0
0
0
0
0
0
0
0
0
0
0
0
0
0
0
0
0
0
0
0
0
0
0
0
0
0
0
0
0
0
0
0
0
0
0
0
0
0
0
0
0
0
0
0
0
0
2
6
5
0
8
19
0
0
5
6
5
5
11
7
5
7
0
0
0
0
0
0
66
61
22
5
0
0
0
0
0
0
0
0
0
0
1
1
0
0
0
0
0
0
0
0
2
22
0
28
40
35
0
0
0
39
0
0
0
0
0
0
0
0
31
10
0
39
30
0
47
0
11
35
3
0
0
0
0
0
0
0
0
0
0
1
0
0
0
0
0
0
0
0
0
0
0
0
0
0
0
0
0
0
0
0
0
0
0
0
0
0
0
0
0
0
0
0
0
0
0
0
0
0
0
0
0
0
0
0
21
0
0
0
1
1
2
6
4
5
11
12
5
6
0
0
0
56
57
18
3
0
0
1
0
1
1
1
1
1
1
1
1
1
1
1
1
3
3
3
2
22
43
72
63
39
20
0
0
57
64
0
0
0
0
0
0
0
0
30
0
0
32
19
0
41
0
7
9
37
38
0
0
0
1
0
1
0
8
4
3
1
0
1
2
2
1
0
3
2
4
5
6
4
4
1
4
0
0
0
0
0
0
0
4
3
3
5
8
10
8
10
2
0
0
0
0
0
3
0
0
1
0
0
5
19
1
0
0
6
0
0
0
0
0
0
0
0
0
0
0
6
64
55
18
2
0
0
0
0
0
0
0
0
0
0
0
1
0
0
0
1
1
3
0
3
2
0
0
0
0
5
0
7
69
71
4
0
0
0
0
0
0
0
60
0
0
22
17
0
42
0
8
0
0
0
0
0
0
1
0
0
0
0
0
0
0
0
0
1
3
5
5
0
0
0
0
0
2
2
0
6
2
0
0
0
0
1
2
7
6
8
9
11
11
9
11
8
1
0
0
0
0
6
0
4
10
3
0
8
16
0
0
2
11
0
0
3
0
0
0
12
0
29
32
29
34
56
53
16
2
0
0
0
0
0
0
0
0
0
0
0
0
0
0
0
0
0
1
0
15
0
5
42
0
0
9
0
0
0
0
0
0
0
3
6
0
0
0
34
22
0
7
15
25
48
0
1
0
0
0
0
0
0
20
0
0
0
0
0
0
0
0
0
0
0
0
0
0
0
0
0
0
0
0
0
0
0
0
0
0
0
0
0
0
0
2
5
7
6
5
5
11
5
0
2
2
0
6
0
0
5
0
0
11
18
0
0
1
10
0
0
0
0
0
0
26
0
28
17
12
26
43
52
16
3
0
0
0
1
0
0
0
0
0
0
0
0
0
0
0
0
0
0
0
0
11
2
27
0
0
0
0
0
0
0
0
0
0
0
0
0
0
0
0
51
10
7
8
25
32
0
13
0
0
0
0
0
0
0
0
0
0
0
0
0
0
0
0
0
0
0
0
0
0
0
0
0
0
0
0
0
0
0
0
0
0
0
0
0
0
0
0
0
0
0
0
0
0
0
0
0
0
8
2
3
1
0
0
9
16
0
0
6
16
0
0
4
0
0
0
10
0
32
31
26
36
52
55
18
3
0
0
0
2
1
0
0
0
0
0
0
1
0
1
0
0
0
0
0
2
0
23
26
0
0
0
0
0
0
0
0
0
0
0
0
0
0
0
0
39
14
21
20
46
44
0
30
45
68
57
57
59
49
54
52
57
52
58
48
51
48
44
38
31
25
20
16
14
12
5
0
0
0
0
0
0
0
0
0
0
0
0
0
0
0
0
0
0
0
0
0
0
0
0
0
0
0
0
0
0
0
0
0
5
10
0
0
3
11
0
0
4
0
0
0
11
0
0
0
0
0
58
57
20
4
0
0
0
2
2
0
0
1
0
0
0
1
1
0
0
0
0
0
0
4
7
12
0
0
0
3
41
67
70
14
21
24
26
26
32
30
2
0
0
72
52
46
30
35
19
0
8
4
15
17
25
35
27
27
35
44
39
53
43
51
52
56
57
60
61
61
62
66
66
65
64
62
61
59
59
52
54
56
58
55
49
44
46
30
27
23
24
23
20
22
25
23
25
23
25
20
17
23
12
7
12
11
4
15
9
0
0
0
3
0
0
0
0
0
0
0
0
0
0
0
0
64
57
20
5
0
1
1
0
0
0
0
0
0
0
0
1
1
0
0
0
0
0
1
0
9
28
0
0
87
94
82
48
71
0
1
9
11
0
4
4
7
0
0
0
0
0
0
0
0
0
0
0
0
0
0
0
0
0
0
0
0
0
0
0
0
0
0
0
0
0
0
0
0
0
0
1
8
14
17
23
27
35
45
50
49
50
55
4
2
0
0
1
0
0
0
0
2
7
17
18
17
23
12
23
25
20
13
21
13
0
0
4
6
2
4
3
0
5
0
0
0
0
8
4
0
70
55
19
5
1
1
0
0
0
0
0
0
0
0
0
1
0
1
0
0
0
1
2
3
6
18
0
0
57
0
0
0
36
0
0
0
7
5
2
6
8
0
56
0
23
28
0
0
0
4
0
4
4
0
0
0
0
5
0
0
0
0
0
0
0
0
0
0
0
0
0
0
0
0
0
0
0
0
0
0
0
0
0
0
0
0
0
0
0
0
0
0
0
0
0
0
0
0
0
0
0
0
0
0
0
0
0
5
13
0
0
0
2
8
18
15
14
24
15
17
9
0
0
0
0
58
57
19
4
2
3
3
5
4
2
0
0
3
1
0
2
0
0
0
1
2
2
0
3
0
38
80
0
43
0
0
0
61
0
0
3
1
0
1
1
9
0
55
0
22
21
9
0
0
2
3
2
5
9
10
21
0
16
21
4
0
5
0
0
0
0
0
0
0
0
0
0
0
0
0
0
0
0
0
0
0
0
0
0
0
0
4
0
0
0
0
0
1
0
0
0
0
0
0
0
0
0
0
0
0
0
0
14
15
0
0
7
3
0
0
0
0
0
0
0
0
0
0
0
0
63
56
19
4
2
0
0
0
0
2
0
0
1
2
1
1
0
0
0
2
2
2
1
0
6
3
10
0
50
0
0
0
80
0
0
0
0
14
0
1
3
0
67
0
53
34
0
0
0
0
1
0
0
1
15
16
0
22
9
9
25
43
0
0
1
0
0
1
0
0
0
0
3
7
3
6
8
11
9
8
5
0
0
4
0
0
14
6
3
3
2
6
6
0
0
0
0
0
0
3
2
0
0
6
5
0
0
14
12
0
0
7
7
0
0
0
0
1
0
0
0
35
37
29
33
64
53
17
4
0
0
0
0
0
3
2
0
0
2
2
0
0
0
0
0
1
2
0
0
1
5
15
0
53
0
0
0
66
0
0
0
1
4
0
9
0
0
29
0
34
11
1
0
0
0
0
0
0
0
5
4
3
16
0
6
32
37
0
0
0
0
0
0
1
0
0
1
3
5
0
0
0
2
3
12
8
0
0
2
0
0
3
9
6
8
9
14
13
6
0
5
2
3
10
16
14
5
0
11
7
0
0
15
13
0
2
3
8
0
0
0
7
9
9
0
0
35
22
9
22
44
54
17
3
0
0
0
0
0
5
3
0
0
0
0
0
0
0
0
1
0
0
0
2
11
7
22
0
49
0
0
0
63
0
0
3
4
0
5
2
4
0
0
0
0
0
0
0
0
0
0
0
0
0
0
0
0
0
0
0
0
3
0
0
0
0
0
0
0
0
0
0
0
0
0
0
0
0
0
0
0
0
0
0
0
0
0
0
0
0
5
6
6
2
0
2
0
0
0
5
6
2
0
14
8
1
0
13
10
0
1
2
10
0
0
0
11
10
9
0
0
39
25
12
28
55
59
20
5
3
2
1
0
2
4
2
0
0
0
0
0
0
0
1
1
0
0
0
9
0
15
19
0
56
0
0
0
55
0
0
0
9
0
3
0
6
0
0
0
0
0
0
41
31
18
15
21
24
14
2
3
0
0
0
0
0
0
0
0
0
0
0
0
0
0
0
0
0
0
0
0
0
0
0
0
0
0
0
0
0
0
0
0
0
0
0
0
0
0
0
0
0
0
0
0
0
0
0
0
0
0
0
7
6
0
1
4
14
0
0
0
5
1
0
0
0
16
12
3
11
57
57
18
3
1
3
4
0
2
1
0
0
1
1
0
0
0
1
1
0
0
1
1
0
8
10
0
0
39
0
0
3
52
0
0
0
9
6
0
5
3
0
14
67
69
76
84
89
66
45
47
55
53
51
55
61
58
58
57
59
58
60
63
57
58
58
61
61
59
57
55
39
44
44
36
29
26
24
21
9
8
6
2
0
0
0
0
7
8
8
6
4
2
6
11
4
4
3
1
0
0
0
0
0
0
0
0
12
8
0
2
0
8
0
0
0
0
0
0
0
0
0
0
0
0
67
51
14
0
0
0
0
0
0
1
0
0
0
1
0
0
1
0
0
0
0
0
2
0
0
0
0
0
64
59
78
68
68
0
0
0
0
2
6
0
0
0
19
53
32
0
0
0
0
0
0
0
0
0
2
0
0
7
13
14
18
17
15
27
29
34
37
39
38
37
37
40
46
50
49
52
58
60
59
71
71
72
67
62
65
63
61
28
30
28
29
30
29
31
34
29
30
30
29
28
27
28
29
25
19
22
12
20
8
0
0
0
3
0
0
0
0
0
0
0
0
0
0
0
2
69
51
15
3
3
1
0
0
1
3
0
0
0
0
0
0
0
0
0
0
0
1
0
3
7
3
0
0
50
25
0
0
41
0
0
0
5
0
2
7
0
0
16
0
0
0
0
0
0
0
0
0
0
0
0
0
0
0
0
0
0
0
0
0
0
0
0
0
0
0
0
0
0
0
0
0
0
0
0
0
0
0
3
10
20
26
23
0
0
0
0
0
0
0
0
0
0
0
0
0
0
0
0
0
0
5
0
10
3
0
0
3
10
9
18
24
16
20
20
16
4
0
0
0
0
68
56
19
5
0
0
0
0
9
0
0
5
1
0
4
0
0
1
1
1
0
0
0
5
20
45
55
49
0
0
0
0
61
0
0
12
0
1
5
0
0
0
26
0
41
0
13
0
0
0
0
5
0
0
8
1
0
0
0
0
0
0
0
0
0
0
0
0
0
0
0
0
0
0
0
0
0
0
0
0
0
0
0
0
0
0
0
0
0
0
0
0
0
0
0
0
0
0
0
0
0
0
0
0
0
0
0
16
5
0
0
3
1
0
0
0
0
0
0
0
0
0
0
0
0
68
53
18
4
2
3
2
0
7
0
0
0
0
0
0
0
0
0
0
0
0
0
0
0
22
0
36
32
0
0
0
0
63
0
0
2
0
4
10
7
0
0
39
0
47
0
8
0
0
1
0
0
0
0
10
10
0
30
5
3
13
23
0
0
0
0
2
1
0
2
0
0
0
0
0
0
0
0
0
5
0
0
0
0
0
0
0
0
0
1
10
7
5
1
0
0
0
0
0
0
1
1
0
0
0
0
0
20
5
0
0
4
0
0
0
0
0
0
0
0
0
41
34
32
31
71
53
17
3
0
0
0
0
0
7
6
3
5
7
2
4
4
5
3
1
1
1
0
0
19
0
43
49
0
0
0
0
66
0
1
3
3
0
0
10
0
2
31
0
69
1
22
0
0
0
1
5
0
3
20
1
0
36
7
12
14
40
0
8
4
3
2
0
0
0
0
0
3
3
0
0
3
4
1
11
4
0
0
1
0
0
0
1
0
3
7
4
6
5
0
3
0
0
0
0
0
0
2
0
0
0
0
19
4
0
3
3
0
0
0
3
0
0
0
0
0
41
13
8
22
51
54
19
5
2
0
0
4
0
2
0
0
0
0
0
0
1
1
0
0
0
0
0
3
27
0
28
39
6
0
0
0
62
0
0
0
3
2
9
0
0
15
22
0
27
0
6
0
0
0
0
0
0
0
0
0
0
21
4
13
0
19
0
0
0
0
0
0
0
0
0
0
0
0
0
0
2
3
0
3
0
0
1
1
0
0
0
3
2
4
4
1
5
6
0
4
2
0
0
0
2
3
3
3
0
0
0
20
4
0
0
9
2
0
0
5
0
0
0
0
0
44
18
16
30
47
50
16
4
1
0
0
0
0
0
0
0
4
0
5
5
4
5
3
2
2
4
4
0
11
0
50
36
1
0
0
0
65
0
0
7
0
0
0
4
0
0
0
0
0
0
0
0
0
0
0
0
0
0
0
0
0
0
0
0
0
0
0
0
0
0
0
0
0
0
0
0
0
0
0
0
0
0
0
0
0
0
0
0
0
0
0
0
0
1
5
1
3
0
0
0
0
0
0
0
1
2
0
0
0
0
0
15
4
0
0
9
1
0
0
1
0
0
0
0
3
25
10
13
30
57
59
25
11
8
3
0
0
0
0
0
0
1
0
12
17
18
18
17
17
17
20
16
18
10
0
36
39
0
0
0
0
38
0
0
8
0
3
0
0
0
0
0
20
4
19
51
72
32
16
37
48
36
32
37
26
32
27
23
29
18
13
25
20
13
11
9
2
0
0
0
0
0
0
0
0
0
0
0
0
0
0
0
0
0
0
0
0
0
0
0
0
0
0
0
0
0
0
0
0
0
0
0
0
0
0
0
11
4
0
1
0
0
0
0
0
0
0
0
0
0
0
0
0
9
63
64
32
19
16
13
5
0
28
27
29
38
37
0
0
0
0
0
0
0
0
0
0
0
37
25
18
18
5
40
65
56
60
2
6
11
10
17
9
3
64
52
56
44
40
40
42
50
14
7
31
43
38
42
50
44
51
49
49
54
53
54
57
60
56
59
62
60
58
61
58
58
59
58
54
51
51
51
51
49
48
45
45
46
47
47
49
31
27
25
24
20
23
26
27
28
26
26
25
25
24
24
22
17
17
13
5
16
2
0
0
2
3
0
0
0
0
0
0
0
0
4
1
0
23
70
41
15
9
11
11
3
0
39
25
18
31
43
0
0
0
0
0
0
0
0
0
0
0
28
25
12
13
33
30
47
40
0
0
4
18
30
29
7
19
30
18
25
0
17
42
0
0
4
13
0
0
0
0
0
0
0
0
0
0
0
0
0
0
0
0
0
0
0
1
0
14
16
21
26
31
36
43
47
51
52
56
62
68
63
50
44
0
0
0
6
7
8
12
13
11
10
10
10
14
16
20
22
23
25
23
9
15
1
0
3
2
9
9
8
12
11
9
8
0
0
0
0
0
9
64
11
0
0
0
0
0
0
37
35
29
45
54
0
0
5
5
4
2
0
0
0
0
0
43
33
16
16
26
0
0
0
34
0
0
0
0
0
0
0
0
2
29
0
32
26
0
0
6
25
0
0
0
0
0
0
0
0
0
0
0
0
0
0
0
0
0
0
0
0
0
0
0
0
0
0
0
0
0
0
0
0
0
0
0
0
0
0
0
0
0
0
0
0
0
0
0
0
0
0
0
0
0
0
0
0
0
20
2
0
0
5
0
0
0
5
4
6
6
0
0
0
0
0
0
66
22
3
0
0
0
0
0
59
45
11
0
0
0
0
7
8
9
9
10
8
9
5
0
39
0
33
6
0
12
0
14
84
0
0
0
0
0
0
0
0
17
38
0
37
40
0
0
9
25
0
0
10
0
27
0
0
0
0
0
0
0
0
0
0
0
0
0
0
0
0
0
0
0
0
0
0
0
0
0
0
0
0
0
0
0
0
0
0
0
0
0
0
0
0
0
0
0
0
0
0
0
0
0
0
0
0
23
1
0
0
3
0
0
0
0
0
0
0
0
0
18
19
12
31
80
26
8
0
0
0
0
0
36
0
0
0
0
0
0
0
0
2
4
4
4
5
2
0
32
0
45
13
6
36
0
38
92
9
2
0
0
0
0
8
4
15
28
0
29
36
0
0
8
30
0
0
21
0
31
0
6
24
0
0
12
27
0
5
4
1
2
3
2
0
0
0
0
0
0
1
0
0
0
10
0
0
0
0
0
0
4
0
0
0
0
0
0
0
0
0
0
0
0
0
0
0
0
0
0
0
0
21
0
0
1
5
0
0
0
0
0
0
0
0
13
45
34
23
24
59
27
9
0
2
0
0
0
9
0
0
0
0
0
0
0
0
0
0
0
0
0
0
0
27
0
54
9
7
6
0
10
39
0
0
0
0
0
0
6
0
7
23
0
15
39
0
0
0
27
0
0
19
0
20
7
13
32
0
0
17
44
0
4
0
0
0
1
3
0
0
2
2
3
1
2
1
0
0
14
3
0
2
2
0
0
0
3
1
1
1
2
1
3
3
5
2
0
0
2
4
4
3
0
0
0
0
20
2
0
0
3
0
0
0
0
0
0
0
0
10
33
11
7
20
64
29
11
1
2
0
0
0
2
8
0
5
0
0
0
0
0
0
0
0
0
0
0
0
34
0
52
17
0
0
0
0
0
0
0
0
0
0
0
0
42
25
14
1
21
4
20
40
0
19
0
0
0
0
3
0
0
18
0
0
1
30
0
0
0
0
0
0
0
0
0
0
0
0
0
0
0
0
0
0
0
0
0
0
0
0
0
0
0
0
0
0
0
0
0
0
0
0
0
1
3
4
5
0
0
0
0
19
1
0
0
5
0
0
0
0
0
0
0
3
14
37
19
17
33
62
28
11
0
0
0
0
0
3
9
0
5
12
0
0
4
5
3
1
0
0
0
0
0
29
0
24
17
0
0
0
0
0
0
0
0
0
0
0
0
32
18
14
3
6
6
22
51
0
7
0
0
0
0
0
0
0
0
0
0
0
0
0
0
0
0
0
0
0
0
0
0
0
0
0
0
0
0
0
0
0
0
0
0
0
0
0
0
0
0
0
0
0
0
0
0
0
0
0
0
0
0
0
0
0
0
0
13
0
0
0
5
0
0
0
0
0
0
0
0
0
0
0
0
22
70
34
18
7
6
6
5
0
20
19
12
9
10
9
12
4
3
4
1
0
0
0
0
0
52
29
31
24
0
4
15
39
19
9
12
25
30
25
0
17
40
17
14
19
20
25
33
45
1
18
38
44
40
36
40
39
37
44
41
41
44
48
39
44
44
45
44
42
39
37
36
22
21
20
19
17
14
13
11
6
4
0
0
0
0
0
0
9
11
11
11
10
10
10
10
13
14
13
11
9
7
7
7
0
2
0
0
12
0
0
1
0
0
0
0
0
0
0
0
0
0
6
0
0
38
66
50
35
25
26
24
25
17
37
15
27
20
2
3
1
7
5
4
3
2
1
0
0
0
57
21
14
25
44
74
76
77
26
0
15
15
15
10
6
29
53
37
29
24
10
16
14
18
1
0
17
12
18
16
17
29
25
26
40
47
41
40
53
51
54
58
60
60
56
54
54
58
59
60
62
63
62
62
60
60
63
64
63
67
70
62
56
20
25
26
26
26
28
30
32
20
23
26
26
25
25
26
27
28
33
25
15
17
0
0
0
6
3
2
3
1
0
0
0
0
0
0
0
0
34
68
2
0
0
0
0
0
0
0
0
0
0
0
0
0
0
0
17
22
25
11
16
4
0
90
43
43
50
0
0
0
0
21
0
0
3
4
0
0
0
0
0
0
0
0
0
0
0
0
0
0
0
0
0
0
0
0
0
0
0
0
0
0
0
0
0
0
0
0
0
0
0
0
0
0
0
0
0
0
0
1
1
1
13
28
21
7
0
0
0
0
0
0
0
0
0
0
0
0
0
0
0
0
0
0
0
6
13
0
5
0
14
4
10
13
17
17
10
13
4
0
0
0
0
22
74
0
0
0
0
0
0
0
0
0
0
1
1
1
4
7
4
32
42
34
0
0
0
0
29
17
0
17
0
0
0
26
15
0
0
4
2
0
4
0
0
27
0
0
41
0
0
0
0
5
0
3
0
0
3
0
0
0
0
0
0
0
0
0
0
0
0
0
0
0
0
0
0
0
0
0
0
0
0
0
0
0
0
0
0
0
0
0
0
0
0
0
0
0
0
0
0
0
0
0
0
0
0
0
0
0
9
17
0
4
1
0
0
0
0
0
0
0
0
0
0
0
0
0
32
66
11
0
0
4
8
3
5
7
4
0
0
0
0
0
0
0
0
0
0
0
0
0
0
0
0
0
36
0
0
0
71
13
0
0
6
1
0
6
2
0
33
0
0
44
4
3
0
0
0
1
6
0
0
56
0
0
18
0
0
34
0
0
0
0
0
0
2
1
1
1
3
4
4
2
0
0
0
0
2
0
0
0
0
0
0
0
0
0
0
0
0
0
0
0
0
0
0
0
0
0
0
0
0
0
0
15
21
0
0
0
10
0
0
0
0
0
0
0
0
47
51
47
30
34
59
14
2
0
14
12
4
2
9
5
0
0
0
0
0
0
0
0
0
0
0
0
0
0
0
0
0
71
9
8
0
57
20
0
0
2
1
0
4
8
0
43
0
0
63
0
0
0
0
4
0
0
3
0
33
0
0
26
0
21
72
13
0
0
0
0
2
3
2
1
1
0
0
0
2
5
3
2
3
0
0
0
0
1
5
5
0
0
0
0
0
0
0
1
1
1
0
0
0
0
0
0
0
0
0
0
10
16
0
0
4
8
0
0
0
0
0
0
0
0
36
16
2
9
21
59
9
0
0
14
2
0
0
6
7
0
0
0
5
6
0
0
0
40
42
29
24
33
32
25
9
0
61
0
0
0
6
25
0
0
0
4
1
1
13
0
27
0
0
41
4
0
0
0
0
0
0
3
0
34
0
0
16
0
16
27
7
0
0
0
0
0
0
0
0
0
0
0
0
0
3
3
3
2
3
1
1
0
4
4
2
0
3
1
2
0
1
1
2
2
5
2
0
1
4
3
4
3
5
0
0
12
16
0
1
5
6
0
0
0
0
0
0
0
0
35
39
29
15
22
61
10
2
0
15
0
8
0
9
13
3
0
0
0
0
0
0
0
38
24
21
22
30
27
11
0
0
73
0
0
0
0
22
0
1
0
4
3
2
9
0
0
0
0
0
16
0
0
0
0
0
0
0
0
31
0
0
0
0
0
0
0
0
0
0
0
0
0
0
0
0
0
0
0
0
0
0
0
0
0
0
0
0
0
0
0
0
0
0
0
0
0
0
0
0
0
0
0
0
0
0
0
0
0
0
0
9
12
0
0
1
10
0
1
3
6
4
0
0
0
0
0
0
0
34
73
7
1
0
9
0
23
0
0
8
0
0
0
0
1
0
0
0
28
0
0
0
0
0
0
0
0
46
0
0
0
18
14
0
5
3
5
2
5
11
0
8
0
0
10
2
0
0
50
53
4
13
18
8
18
13
4
1
2
15
0
0
0
0
0
0
0
0
0
0
0
0
0
0
0
0
0
0
0
0
0
0
0
0
0
0
0
0
0
0
0
0
0
0
0
0
0
0
0
0
0
0
0
0
0
0
0
3
0
1
3
0
0
0
0
0
0
0
0
0
0
4
0
0
34
62
9
4
0
8
0
40
0
1
11
0
0
0
4
1
0
0
0
38
0
0
0
0
0
0
0
0
40
71
63
70
70
11
0
15
19
10
7
14
21
2
0
0
0
0
13
0
0
114
113
30
44
49
44
54
46
58
56
58
50
51
62
52
60
60
62
63
64
64
62
62
62
57
58
57
54
49
48
54
47
47
40
31
30
35
32
26
22
26
28
29
30
29
29
28
27
28
29
29
27
25
23
21
24
22
17
14
8
0
0
0
6
2
2
0
0
0
0
0
0
0
0
0
0
47
64
9
0
0
2
3
20
0
4
11
0
0
0
0
1
0
0
0
39
0
0
0
0
0
0
121
28
21
49
29
14
18
0
0
0
7
33
31
13
23
0
9
0
0
27
2
0
0
0
0
0
0
0
0
0
0
0
0
0
0
0
13
13
20
23
27
30
30
28
30
32
39
37
40
42
42
44
48
52
47
64
61
61
64
65
56
17
0
0
0
0
0
0
0
0
1
0
0
3
1
3
9
11
17
19
3
13
2
1
5
0
7
8
10
9
9
10
9
5
5
0
0
0
0
46
64
12
0
0
5
0
5
0
6
10
0
0
1
0
0
0
0
1
30
0
0
0
0
0
0
67
13
0
0
0
0
2
46
0
0
0
0
0
0
0
0
67
0
0
42
14
0
0
0
0
0
0
0
0
0
0
0
0
0
0
0
0
0
0
0
0
0
0
0
0
0
0
0
0
0
0
0
0
0
0
0
0
0
0
0
0
0
0
0
0
0
0
0
0
0
0
0
0
0
0
0
0
0
0
0
0
16
14
0
0
2
0
0
0
0
0
0
0
0
0
0
0
0
0
37
65
13
0
0
8
1
0
0
8
10
0
0
1
0
0
0
0
0
36
29
32
31
24
17
0
0
0
0
44
6
0
8
77
0
0
0
0
0
0
0
0
82
0
0
17
3
0
0
0
0
2
9
5
0
35
9
15
22
5
0
6
0
0
0
0
0
0
0
0
0
0
0
0
0
0
0
0
0
0
0
0
0
0
0
0
0
0
0
0
0
0
0
0
0
0
4
0
0
0
0
0
1
0
0
0
0
17
11
0
0
7
0
0
0
0
0
0
0
0
0
66
44
31
26
29
61
11
0
0
9
7
10
0
6
11
0
0
0
0
1
0
0
0
37
7
7
13
15
16
5
0
19
0
54
4
0
35
78
4
0
0
0
0
0
0
5
63
0
0
20
12
0
0
0
2
0
0
0
0
38
0
0
18
0
0
72
18
7
0
0
0
3
3
0
0
0
3
0
0
0
0
0
2
5
6
0
0
0
0
0
0
4
0
0
0
0
0
0
2
3
0
0
0
0
0
1
2
0
0
0
0
21
12
0
0
0
3
0
0
0
3
3
0
0
0
51
19
8
23
19
64
10
0
0
5
5
18
0
3
11
0
0
0
0
3
0
0
0
39
0
0
0
0
0
0
0
18
5
28
0
0
0
15
0
0
0
0
6
0
0
9
30
0
4
16
14
0
0
0
5
3
0
5
0
37
0
0
28
0
0
65
0
0
0
0
0
0
0
0
0
0
1
0
0
0
1
5
5
6
13
0
0
0
1
5
0
9
3
1
0
0
2
5
7
8
4
0
0
0
0
5
5
0
0
0
0
15
7
0
3
0
2
1
0
0
4
4
0
0
13
36
18
4
15
18
61
11
0
1
4
0
12
0
3
11
0
0
0
0
3
2
0
0
42
0
0
0
0
0
0
0
29
14
0
0
0
0
0
3
0
2
0
0
0
0
7
6
0
0
0
8
1
0
0
0
0
0
0
0
0
0
0
20
0
0
37
0
11
0
0
0
0
0
0
0
0
0
0
0
0
0
3
0
0
4
0
0
0
0
0
0
0
0
0
0
0
0
0
0
1
5
1
1
2
1
4
5
0
0
0
0
12
3
0
1
4
1
1
0
1
2
3
0
0
0
0
15
6
9
29
67
12
0
0
8
1
3
0
6
8
0
0
2
0
1
0
0
1
36
0
0
0
0
0
0
0
9
0
0
0
0
0
0
0
0
0
0
0
0
0
5
11
0
0
13
20
0
0
0
0
0
0
0
0
0
0
0
0
0
0
0
0
0
0
0
0
0
0
0
0
0
0
0
0
0
0
0
0
0
0
0
0
0
0
0
0
0
0
0
0
0
0
0
0
0
0
0
0
0
0
0
0
0
0
0
0
16
10
0
0
0
0
0
0
0
0
0
0
0
0
0
0
0
0
38
66
12
0
0
14
7
2
7
11
7
0
0
3
0
0
0
0
0
34
8
4
4
1
0
0
0
0
20
30
28
36
45
22
7
22
25
34
31
19
11
3
3
0
0
5
5
0
14
78
75
27
42
40
43
50
43
43
35
42
39
23
29
27
21
19
16
14
9
5
4
5
6
2
0
0
0
0
0
0
0
0
0
0
0
0
0
3
16
19
20
18
16
14
15
16
18
18
23
20
15
15
16
9
11
13
0
11
0
0
4
0
2
2
1
0
0
0
0
0
0
3
11
0
0
45
69
9
0
3
7
0
0
0
9
9
0
0
0
0
0
0
0
0
42
27
38
38
31
27
64
121
0
67
79
66
70
56
14
16
44
49
47
55
51
33
7
0
0
0
8
7
0
28
98
83
27
38
52
43
52
54
57
59
58
60
62
62
58
62
67
72
74
74
74
74
71
64
68
64
63
61
60
69
67
74
73
69
73
73
80
65
20
13
21
25
27
25
25
24
25
24
21
24
25
23
25
28
25
23
21
14
22
1
0
0
0
5
4
4
5
6
5
4
3
0
0
0
0
0
48
69
9
0
3
8
0
3
0
6
7
0
0
0
1
0
0
0
4
22
0
0
0
0
0
13
84
0
0
0
0
0
18
0
0
0
0
0
0
0
0
0
32
0
24
8
14
0
0
0
0
0
0
0
0
0
0
0
0
0
0
0
0
0
0
0
0
0
0
0
0
0
0
0
0
0
1
2
10
3
13
16
19
25
24
27
23
0
0
0
0
0
0
0
0
0
0
0
0
0
0
0
0
0
0
0
0
12
1
0
2
3
0
0
0
0
0
0
0
0
0
0
0
0
0
44
68
8
0
3
8
0
4
0
6
5
0
0
1
1
0
0
0
5
18
0
0
0
0
0
0
0
0
0
18
0
0
49
37
0
0
0
0
0
0
0
7
45
0
21
14
12
0
0
0
0
0
0
0
0
0
0
0
0
0
0
0
0
0
0
0
0
0
0
0
0
0
0
0
0
0
0
0
0
0
0
0
0
0
0
0
0
0
0
0
0
0
0
0
1
4
2
0
0
0
0
0
2
0
0
0
0
24
11
0
0
2
0
0
0
0
0
0
0
0
11
48
40
31
28
43
53
8
0
5
9
0
6
0
10
7
0
0
1
1
0
0
0
13
20
0
0
0
0
0
0
0
47
0
23
0
0
69
38
4
0
0
0
0
0
0
14
42
0
21
11
1
0
0
0
0
4
20
4
0
9
0
3
0
0
0
20
6
0
0
0
0
0
0
0
0
0
0
0
0
1
0
0
0
0
0
0
0
0
0
0
0
0
0
0
0
0
0
0
0
0
0
0
0
0
0
0
0
0
0
0
0
22
8
0
0
3
0
0
0
0
0
0
0
0
24
36
13
16
15
26
56
8
0
6
7
0
7
1
12
7
0
0
0
2
0
0
0
10
20
0
0
0
0
0
0
0
35
0
53
0
2
39
21
0
0
0
6
5
0
0
16
62
0
50
14
11
0
0
4
4
5
12
4
9
35
0
7
0
0
0
24
10
0
1
0
2
4
5
0
0
0
0
0
0
6
4
5
4
0
1
1
0
4
3
0
2
0
1
0
0
0
0
2
4
5
0
0
0
1
0
3
3
0
0
0
0
15
0
0
0
2
0
0
2
4
4
0
0
0
37
27
12
25
15
14
53
8
0
7
7
0
7
0
9
6
0
0
0
2
1
0
0
7
33
33
47
46
44
42
30
0
35
0
0
0
0
0
2
0
0
0
0
0
0
0
21
46
0
23
16
20
0
0
0
0
0
0
0
0
0
0
4
0
3
0
0
0
0
0
0
0
0
0
0
0
0
0
1
0
0
0
0
3
0
6
4
0
0
0
0
7
5
0
0
0
1
2
3
3
4
0
0
0
1
0
2
3
0
0
0
0
16
0
0
2
0
0
1
3
4
3
0
0
0
12
9
14
24
0
0
0
7
0
6
6
0
6
0
7
7
0
0
0
1
0
0
0
20
15
0
0
0
0
0
0
0
34
6
0
0
0
0
0
0
0
0
0
0
0
0
11
0
0
0
5
10
0
0
0
0
0
0
0
0
0
0
0
0
0
0
0
0
0
0
0
0
0
0
0
0
0
1
10
0
0
0
0
5
8
0
0
0
0
0
0
0
0
0
0
0
0
0
0
0
0
0
0
0
0
0
0
0
0
0
0
0
12
0
0
4
1
0
0
2
2
0
0
0
0
9
0
0
0
0
0
30
5
0
5
4
0
5
0
7
10
0
0
0
0
0
0
0
18
7
0
0
0
0
0
0
0
0
0
0
0
0
0
0
0
0
0
0
0
0
0
0
0
5
6
3
13
0
0
12
0
0
0
0
0
0
0
0
0
0
0
0
0
0
0
0
0
0
0
0
0
0
0
0
0
0
0
0
0
0
0
0
0
0
0
0
0
3
4
3
2
1
2
3
2
1
6
3
6
6
2
2
2
0
0
0
0
15
0
0
0
0
0
0
0
0
0
0
0
0
2
25
28
7
7
1
19
2
0
7
4
0
3
0
7
3
0
0
1
3
0
0
0
17
2
0
0
0
0
0
64
109
0
87
77
70
74
67
2
13
28
32
31
33
29
25
0
0
0
0
5
2
0
81
93
68
44
45
61
45
58
57
65
60
60
58
48
65
61
69
67
64
62
61
58
54
48
49
46
42
44
41
39
46
38
37
36
30
43
30
21
37
17
26
30
31
31
33
34
32
31
29
29
30
29
30
29
32
32
31
29
23
11
0
0
3
0
0
9
7
0
2
3
0
0
1
0
0
0
0
87
67
3
0
8
6
2
6
0
10
6
0
0
2
1
0
0
0
15
4
0
0
0
0
0
31
64
0
39
0
0
0
53
0
0
8
9
7
7
5
11
0
13
0
2
3
21
0
25
34
22
15
18
25
23
28
37
29
26
36
46
47
52
44
46
48
48
48
49
51
51
52
54
57
56
60
58
57
63
56
60
72
59
61
71
84
67
0
0
0
0
0
0
0
0
0
0
0
0
0
0
0
0
0
0
0
3
13
3
0
4
4
11
6
11
9
3
0
4
0
0
0
0
0
0
69
71
3
0
8
5
1
5
0
11
8
0
0
1
0
0
5
0
21
29
37
37
37
30
21
0
0
0
48
0
0
0
54
0
0
3
1
0
0
0
0
3
31
0
36
11
12
0
0
0
0
0
0
0
0
0
0
0
0
0
0
0
0
0
0
0
0
0
0
0
0
0
0
0
0
0
0
0
0
0
0
0
0
0
0
0
0
0
0
0
0
0
0
0
0
0
0
0
0
0
0
0
0
0
0
0
0
20
6
0
2
5
0
0
0
0
0
0
18
0
36
28
36
0
25
63
59
3
0
6
3
0
2
0
6
7
0
0
0
2
1
0
0
21
10
2
0
1
2
0
0
0
15
43
0
0
0
56
0
0
3
1
0
2
2
2
0
29
0
34
2
13
0
0
0
0
0
0
0
22
0
0
7
0
0
0
0
0
0
0
0
0
0
0
0
0
0
0
0
0
0
0
0
0
0
0
0
0
0
0
0
0
3
0
0
0
0
0
0
0
2
0
0
0
0
0
0
0
0
0
0
0
23
3
0
5
6
0
0
2
0
0
0
32
0
36
22
29
0
3
46
68
3
0
6
3
0
2
0
5
5
0
0
0
2
1
0
0
31
0
0
0
0
0
0
0
0
17
60
3
0
0
58
0
0
2
0
0
3
2
2
0
33
0
46
3
17
0
0
0
0
3
0
2
41
8
3
43
8
18
20
56
0
11
0
1
3
4
4
4
2
0
0
0
0
0
0
0
0
0
0
0
0
0
0
0
0
0
0
0
0
0
0
0
0
3
0
0
0
0
0
0
0
0
0
0
2
18
0
0
8
5
0
0
1
0
0
0
18
0
53
14
13
3
0
43
76
2
0
8
6
0
5
0
8
7
0
0
1
1
0
0
0
28
0
0
0
0
0
0
0
0
27
55
0
0
0
64
0
0
2
0
0
3
1
0
6
36
0
60
7
20
0
0
1
3
2
0
0
20
0
0
34
0
11
20
52
0
0
0
0
0
0
0
1
0
0
0
3
0
1
9
3
2
5
1
3
4
3
0
0
5
13
3
3
3
4
3
4
3
3
4
1
0
0
2
1
0
0
0
0
5
13
0
0
7
2
0
0
0
1
11
0
6
0
53
22
41
68
38
64
92
2
0
9
6
2
7
0
10
8
0
0
1
2
0
0
0
38
0
0
0
0
0
0
0
0
12
38
0
0
0
66
0
0
2
0
1
5
2
0
0
3
0
8
0
17
0
0
0
0
0
0
0
0
0
0
14
0
4
2
10
0
0
0
0
0
0
0
0
0
0
0
0
0
0
0
0
0
0
0
0
0
1
7
0
0
0
0
0
0
0
0
0
0
0
0
0
0
0
1
2
2
0
0
0
5
12
3
0
2
0
0
0
0
0
0
0
0
0
0
0
0
8
0
0
13
1
0
8
6
2
7
0
12
6
0
0
3
3
0
0
0
32
6
18
16
14
5
0
0
0
0
19
0
0
0
52
0
0
0
0
0
4
3
0
0
0
0
0
0
0
0
0
0
0
0
0
0
0
0
0
0
0
0
0
0
0
0
0
0
0
0
0
0
0
0
0
1
0
0
0
0
0
0
0
0
0
0
0
0
0
0
0
0
0
0
0
0
0
0
0
0
0
0
0
0
0
0
0
0
0
7
4
0
0
2
0
0
0
0
0
0
0
0
9
21
21
0
0
0
10
4
0
8
6
0
0
0
5
3
0
1
0
0
2
0
0
20
18
11
24
19
0
79
75
51
34
41
72
59
59
39
0
0
1
3
3
3
5
0
0
25
38
48
35
54
73
44
31
46
33
38
29
41
29
28
28
22
25
12
29
10
10
3
3
4
4
0
0
0
0
0
1
0
0
0
0
0
0
0
0
0
0
0
0
0
0
8
24
28
33
19
31
31
28
28
31
32
31
31
30
31
30
27
16
16
5
0
1
0
3
0
0
0
0
0
0
0
0
6
7
3
0
0
0
20
5
0
9
0
0
3
0
6
2
0
0
0
0
2
0
0
28
0
0
0
0
0
68
0
29
28
13
16
35
29
38
0
0
0
3
0
1
2
0
0
28
65
52
45
67
74
46
37
50
53
63
58
52
56
59
56
52
61
49
49
61
67
71
72
71
70
70
70
69
68
59
61
61
60
61
62
61
58
58
59
66
66
60
57
59
60
34
17
13
26
30
31
16
8
14
15
16
15
16
19
23
24
20
10
17
10
0
0
2
5
11
13
12
14
15
16
17
14
16
20
22
16
7
6
21
4
0
12
0
0
3
0
11
3
0
0
0
0
0
0
0
35
0
0
0
0
0
61
0
43
46
0
0
0
0
44
0
0
0
2
0
1
1
0
12
14
0
0
0
0
0
0
0
0
0
0
0
0
0
0
0
0
0
0
0
0
0
0
0
0
0
0
0
0
0
9
10
12
12
15
18
19
17
21
21
29
35
35
38
45
51
19
0
0
0
0
0
0
0
0
0
0
0
0
0
0
0
0
0
5
18
1
1
4
0
0
0
0
0
0
0
0
0
0
0
0
0
0
0
15
3
0
15
0
5
2
1
8
0
0
0
0
0
0
0
0
17
0
0
0
0
0
72
0
29
49
0
0
0
9
49
0
0
0
2
1
2
0
0
6
9
0
0
0
11
0
0
0
0
0
0
0
0
0
0
0
0
0
0
0
0
0
0
0
0
0
0
0
0
0
0
0
0
0
0
0
0
0
0
0
0
0
0
0
0
0
0
0
0
3
4
0
0
11
0
0
0
0
2
2
0
0
0
0
11
18
0
0
5
0
0
0
1
1
0
0
0
1
0
0
0
0
0
0
14
0
0
12
4
11
2
3
6
0
21
27
32
33
34
25
18
21
1
2
0
0
0
53
0
50
59
5
0
0
32
54
0
0
2
5
4
6
6
0
10
0
0
34
0
19
0
2
5
0
2
6
7
40
0
0
12
0
0
0
18
0
2
0
0
0
0
0
2
0
0
0
0
0
0
0
0
0
0
0
0
0
0
0
0
0
0
0
0
0
0
0
0
0
11
0
0
0
0
1
0
0
0
0
0
17
21
0
1
7
0
0
0
0
2
2
3
7
13
0
0
0
0
1
5
13
0
4
7
3
9
1
5
3
0
23
22
19
16
16
13
22
25
24
39
27
8
0
53
0
45
58
18
0
0
0
72
10
16
16
20
20
22
21
0
46
10
0
71
25
23
0
7
5
5
15
15
2
59
21
38
56
13
11
43
68
0
12
9
11
11
9
12
12
6
1
4
6
6
3
4
7
7
5
4
2
6
7
6
7
10
7
10
8
11
6
6
8
16
12
12
11
9
8
9
8
5
0
0
0
18
26
11
12
14
7
4
6
8
9
11
11
14
20
0
0
0
0
0
9
18
4
35
23
10
12
13
15
20
7
46
39
37
35
30
41
38
29
0
23
29
24
11
121
69
100
107
31
0
0
1
109
48
55
54
55
55
55
53
48
43
29
40
53
46
70
9
19
23
22
18
14
3
39
39
46
52
3
0
35
63
0
12
12
13
13
16
20
21
19
17
15
15
14
13
15
19
19
17
27
19
18
17
15
18
24
24
23
30
22
35
22
13
25
24
17
18
20
23
27
27
26
22
32
25
38
38
26
28
31
33
20
22
25
25
25
22
22
25
31
35
32
25
21
25
32
