P2
125 125
255
49
16
3
0
0
0
0
0
0
0
0
0
1
0
1
0
0
0
0
0
1
1
0
0
1
0
2
0
1
2
0
0
0
0
0
0
2
0
0
2
0
0
2
3
0
0
0
4
0
0
11
0
5
0
0
0
0
0
0
0
1
0
2
0
0
0
0
0
0
2
0
0
0
0
2
1
0
0
2
0
0
0
0
0
1
0
0
1
0
1
0
3
0
1
0
0
2
1
0
0
0
0
0
0
0
0
0
0
0
0
0
0
0
0
0
1
1
1
0
0
0
0
3
13
39
49
16
3
1
0
0
1
0
0
0
0
1
1
1
1
0
0
0
1
1
1
2
0
0
1
1
1
1
2
3
0
0
0
0
1
1
0
0
0
2
4
0
0
0
0
5
9
0
0
1
30
0
0
0
0
0
0
0
0
0
2
2
0
0
1
0
0
0
0
0
2
1
0
1
1
0
0
0
1
0
0
0
0
0
1
0
1
1
0
0
0
1
0
1
0
0
3
1
0
0
1
2
0
0
0
0
0
1
0
1
0
0
1
0
1
0
1
0
1
1
1
0
3
12
40
50
17
4
1
2
0
2
1
1
1
1
1
1
2
2
1
1
1
2
2
2
2
0
0
2
2
1
1
2
3
1
1
1
1
2
1
0
0
3
1
0
4
4
0
0
0
0
14
52
0
0
1
3
0
1
0
1
1
1
1
1
0
3
1
1
1
1
0
0
0
2
1
2
2
2
0
0
1
2
0
1
1
1
2
1
1
1
0
2
1
0
0
2
2
0
1
2
3
1
0
1
3
1
1
0
0
2
1
1
1
0
0
1
1
1
2
2
1
2
0
1
1
4
13
42
51
18
5
3
3
2
4
2
3
2
2
3
3
2
4
3
2
2
3
4
3
3
1
2
3
4
2
1
4
5
2
3
3
3
3
2
1
0
4
5
2
0
0
0
1
18
21
12
47
0
0
0
0
8
1
0
2
2
1
2
3
5
0
1
2
2
2
1
0
0
4
2
3
3
3
0
1
4
3
2
2
2
2
2
2
2
3
1
4
0
4
0
4
4
0
1
4
3
2
2
3
5
0
1
2
2
2
1
2
2
3
2
2
2
2
2
3
4
1
1
2
3
4
15
42
52
20
7
5
5
5
6
4
4
4
4
5
4
4
6
4
4
4
5
5
6
4
4
4
6
5
4
4
5
6
5
6
5
5
3
3
4
7
1
0
0
0
16
23
13
6
7
15
53
0
0
0
0
5
4
5
4
3
3
4
3
2
6
4
5
5
5
4
5
4
4
2
3
4
5
3
1
2
5
4
3
3
3
3
3
3
5
0
5
0
9
3
7
1
5
3
6
4
5
5
6
7
2
3
4
4
4
4
4
4
4
3
4
4
4
4
4
4
4
4
4
3
7
18
46
55
22
10
7
7
7
7
7
7
7
7
7
7
8
7
6
6
7
8
7
9
7
6
7
8
7
6
5
6
8
9
8
9
6
4
3
2
0
5
16
23
16
13
11
10
10
11
22
49
0
4
0
6
3
6
6
6
6
5
6
7
6
5
6
6
8
7
6
5
3
10
6
4
6
8
6
5
3
8
6
7
6
5
6
6
7
7
0
5
0
14
8
11
4
6
6
7
6
7
8
8
9
5
5
6
7
6
6
6
6
5
6
6
6
6
6
6
6
7
5
7
7
9
20
51
57
26
13
11
10
9
10
10
10
10
11
10
11
10
9
10
10
10
10
10
11
11
11
11
7
8
12
12
14
6
8
10
10
8
8
9
16
20
23
17
22
15
12
19
13
9
16
32
47
0
0
10
2
12
9
8
7
8
9
10
8
7
10
9
8
9
8
8
9
9
8
9
8
9
8
8
7
7
11
9
9
8
9
8
8
8
13
9
5
0
31
13
8
7
9
10
11
10
10
8
10
12
10
8
7
16
10
1
12
13
8
10
3
10
8
10
9
10
9
9
10
10
13
26
55
60
28
18
14
13
12
14
13
15
14
14
14
14
14
13
13
15
13
14
13
15
15
11
15
16
16
11
10
13
7
8
12
21
26
27
23
22
25
19
19
21
22
23
18
15
26
16
32
54
0
2
12
12
7
15
13
11
11
12
12
12
13
10
11
10
11
11
13
13
13
9
10
11
11
12
12
13
13
10
11
11
11
11
12
12
13
6
11
14
3
31
11
10
18
13
14
14
13
13
12
13
11
19
14
13
19
11
2
11
9
17
13
4
17
16
14
10
7
16
14
13
14
17
30
60
62
33
22
18
18
17
18
17
18
17
19
18
18
17
18
17
19
17
19
18
18
19
18
17
20
17
11
13
19
16
33
29
30
32
29
26
26
27
27
33
25
23
28
27
25
20
35
35
57
0
3
10
22
20
13
14
15
15
13
14
14
15
17
16
15
15
14
15
14
10
18
17
15
16
15
15
15
15
15
15
14
15
14
15
15
16
19
9
7
3
37
25
19
22
15
16
15
15
16
19
22
28
15
16
17
21
11
0
8
10
3
1
0
23
27
25
19
20
16
18
18
19
21
33
65
66
37
26
24
24
23
20
21
22
22
23
22
22
22
23
23
22
22
24
22
23
21
27
16
21
24
22
30
37
38
36
35
37
36
33
32
30
32
36
35
31
33
32
33
39
30
33
42
66
0
7
22
24
17
20
20
21
20
19
19
20
21
19
19
20
19
19
19
20
21
16
17
18
18
19
19
18
19
20
19
19
19
18
19
19
19
18
15
14
16
40
28
21
19
29
27
27
26
25
20
13
8
19
19
20
26
15
3
9
8
14
4
0
33
37
32
24
26
22
23
24
24
25
38
69
71
42
32
28
29
28
26
26
27
27
28
27
27
27
27
27
28
27
28
27
28
26
28
15
34
45
42
49
44
44
36
40
42
42
42
40
40
41
44
34
40
49
38
33
44
42
43
52
80
0
9
35
29
28
23
25
27
26
25
23
24
25
26
25
24
25
24
23
24
24
24
24
24
24
24
23
24
24
23
23
23
23
23
24
24
22
25
20
15
19
40
40
39
45
25
25
21
16
17
18
22
26
17
20
24
31
20
6
16
18
13
6
0
39
44
38
30
33
29
29
29
29
32
43
74
75
46
37
34
33
32
32
31
33
32
34
33
32
33
32
33
32
33
33
34
33
33
28
18
52
65
54
51
43
45
53
51
49
47
46
46
46
48
52
45
51
46
47
52
47
51
66
19
81
0
28
19
10
27
29
27
28
28
28
28
29
28
30
28
29
29
28
29
30
31
28
29
29
29
28
29
28
28
30
30
29
29
28
28
30
28
24
27
24
27
41
44
33
23
20
23
25
26
26
26
23
23
26
26
28
34
21
7
14
15
24
16
0
47
48
42
34
35
35
33
35
34
38
49
80
80
51
41
40
38
37
37
37
38
38
39
38
38
38
37
38
39
39
39
40
40
40
34
23
63
74
56
54
51
57
52
55
56
57
57
57
55
54
53
54
57
48
66
56
30
86
69
0
87
10
57
0
0
12
8
7
8
9
10
10
10
7
15
13
14
16
18
20
19
17
28
26
27
28
30
33
33
33
34
34
34
33
34
34
36
33
34
47
44
20
3
8
16
21
18
18
20
20
21
22
23
21
29
29
32
39
25
13
21
25
17
16
0
53
53
48
41
43
40
39
41
40
44
55
85
84
58
48
44
43
43
43
43
44
44
44
44
44
43
43
43
45
45
45
46
47
46
43
26
68
82
65
63
57
64
64
63
64
64
64
65
65
63
69
60
64
71
84
20
0
107
101
0
110
10
59
0
12
9
18
15
11
9
10
10
11
12
7
7
8
8
9
9
9
11
4
5
7
7
8
9
11
10
11
11
13
14
16
18
21
17
13
36
47
32
16
20
24
22
23
25
26
27
26
26
26
25
32
33
39
46
33
17
24
25
22
24
0
61
61
55
49
47
48
49
48
48
50
62
91
90
64
53
51
50
49
49
48
50
50
51
51
51
49
47
50
53
52
50
50
52
54
48
29
81
86
77
76
63
72
70
74
68
77
65
70
84
80
35
57
82
80
100
2
16
109
92
0
109
21
55
9
7
15
17
16
14
14
16
15
13
12
13
11
10
10
13
13
12
11
12
6
9
13
11
13
13
8
12
8
12
12
8
4
3
1
20
83
34
31
19
19
30
26
27
28
29
30
30
30
31
28
37
41
47
51
30
27
27
31
30
25
0
77
66
64
59
56
60
59
57
56
61
72
99
94
69
60
57
58
56
58
56
57
57
58
58
56
56
55
57
58
59
57
57
59
60
51
40
91
88
87
74
90
76
84
82
83
84
85
65
33
0
0
88
103
84
105
5
22
120
94
0
113
15
61
32
41
34
34
30
24
18
15
15
19
21
14
13
12
13
15
16
14
12
18
11
11
13
11
11
13
10
18
13
17
17
13
8
8
6
38
92
42
34
21
22
31
27
29
29
30
32
31
32
32
29
40
42
51
61
34
33
32
36
35
29
3
86
75
72
67
65
68
66
66
66
70
81
109
99
74
65
64
65
66
65
63
63
65
64
63
62
61
63
63
64
64
65
66
65
62
64
53
98
102
98
81
93
87
84
107
107
27
11
11
16
11
0
112
101
100
115
12
27
117
105
0
124
26
61
4
12
11
36
30
26
22
19
19
20
21
19
18
17
18
20
20
20
18
15
12
15
17
13
14
17
18
13
14
16
19
14
11
16
16
53
91
47
34
22
25
33
31
30
31
33
32
33
33
33
29
44
43
54
74
34
38
36
40
39
33
10
93
83
80
76
74
76
75
75
76
80
90
117
104
81
72
71
73
72
72
71
70
69
71
70
69
67
69
71
71
71
71
70
70
68
70
54
97
102
106
109
58
107
97
113
111
7
32
48
43
30
0
114
103
101
103
71
93
119
96
0
130
45
72
0
6
20
13
17
22
23
23
21
21
20
24
23
22
22
24
24
23
23
15
15
23
27
22
18
19
17
19
21
20
21
16
8
19
21
67
89
50
35
24
28
37
35
33
34
36
35
36
36
35
33
49
45
57
86
35
43
40
42
43
36
16
101
91
87
83
82
83
82
84
85
87
97
123
108
89
81
79
78
78
79
77
76
77
80
78
79
77
76
78
81
79
76
75
75
74
81
62
125
74
116
128
0
80
121
118
117
16
52
51
47
57
0
114
118
111
97
103
116
114
105
0
133
43
67
0
8
11
20
20
22
23
23
22
24
25
24
23
24
25
25
25
24
22
19
22
40
52
51
53
58
61
52
56
49
50
41
30
45
52
78
85
57
40
28
31
38
35
36
38
39
38
40
39
39
38
51
50
60
89
39
49
46
48
47
41
22
109
100
94
89
90
90
90
91
92
93
103
125
113
95
88
86
85
84
83
83
83
85
85
86
86
85
85
87
90
88
83
81
81
83
93
71
138
7
110
145
0
114
126
127
121
16
59
58
52
53
8
117
121
116
111
113
109
133
108
0
132
52
66
0
9
20
21
21
22
22
23
23
24
26
25
25
27
26
27
26
25
25
18
22
37
45
41
41
43
43
51
54
44
49
40
30
48
53
91
83
63
45
31
34
41
39
40
41
42
42
42
42
42
42
53
55
64
85
44
53
53
54
51
46
27
117
108
100
96
97
98
99
99
99
100
108
130
118
100
93
92
92
91
91
89
90
90
92
92
92
91
95
96
95
94
91
91
92
93
85
86
153
7
137
160
0
113
122
141
131
21
54
63
66
56
23
143
136
108
112
127
122
128
110
10
133
62
64
0
7
20
24
24
24
25
27
26
23
22
27
28
29
29
28
28
27
26
23
25
37
47
44
43
46
45
42
50
42
51
47
37
56
59
100
81
67
49
33
39
45
45
45
46
46
47
45
46
46
45
55
61
69
77
51
58
57
56
55
50
32
124
116
107
102
104
104
105
106
105
105
113
134
123
106
99
97
98
98
101
98
97
97
100
99
99
98
103
101
100
99
98
99
99
97
98
105
145
18
139
162
6
132
136
147
132
35
64
63
71
64
39
139
136
131
127
124
134
146
111
24
135
55
68
41
46
34
43
38
35
30
30
28
27
25
25
28
29
30
29
28
28
26
22
25
38
49
47
44
47
44
41
49
42
51
44
30
47
44
115
87
75
53
35
40
47
49
50
50
51
50
49
49
48
48
60
67
73
72
54
60
60
57
59
53
37
130
122
113
107
110
108
109
109
109
109
117
137
128
112
104
100
101
102
107
104
104
105
106
105
106
111
107
107
108
108
107
105
104
101
108
96
154
33
139
144
135
139
139
143
136
41
71
76
78
71
37
150
146
133
149
124
95
76
127
38
132
62
65
46
51
55
54
64
56
55
57
60
69
64
25
24
25
30
34
33
28
25
30
28
40
46
43
47
54
44
48
47
56
47
45
30
43
48
120
92
83
48
41
45
50
52
52
52
53
53
51
50
50
51
61
69
75
70
63
60
60
62
57
58
41
136
121
120
118
115
114
114
114
114
116
117
135
128
114
111
112
114
113
104
105
109
114
114
110
111
113
115
113
113
111
111
111
109
107
111
121
151
25
149
155
147
139
148
154
141
45
73
82
84
72
51
160
145
145
151
64
43
57
134
59
143
57
70
43
37
53
55
29
70
40
38
54
21
89
34
31
30
31
34
32
32
29
29
28
37
43
38
43
48
39
46
50
49
44
47
37
51
43
122
94
90
58
47
54
57
55
58
58
58
56
57
55
58
59
56
64
71
69
67
68
68
66
66
59
45
136
125
122
120
122
117
114
125
109
110
135
132
133
120
116
113
111
108
109
111
115
120
120
118
119
122
119
119
119
119
119
119
121
121
121
134
152
36
158
152
158
149
153
161
143
53
80
90
92
80
46
174
154
141
162
67
54
53
138
59
140
57
77
62
53
51
53
20
96
27
30
70
7
117
38
35
34
32
32
31
32
34
31
28
37
40
34
37
42
34
33
39
30
39
46
32
56
51
135
97
85
52
36
45
54
51
61
60
59
57
58
57
59
59
67
68
69
65
64
65
66
66
66
58
50
131
123
116
111
116
125
116
113
124
121
130
124
140
125
119
119
123
129
127
124
121
120
121
123
123
124
125
126
127
130
133
135
136
136
142
142
158
44
164
158
165
151
158
166
145
64
86
90
94
88
73
167
154
150
181
76
62
64
142
57
142
76
76
76
87
57
47
27
93
23
38
69
10
122
40
38
36
32
33
33
34
38
34
31
41
41
33
37
41
34
37
40
26
42
46
21
52
54
144
100
97
76
65
69
73
67
66
66
66
65
66
66
67
68
61
66
73
75
74
72
71
67
65
67
73
136
131
121
109
111
80
87
58
114
129
126
140
142
134
137
149
164
174
163
156
147
140
140
141
139
134
137
139
143
147
150
151
151
151
149
156
162
36
183
174
155
174
168
171
145
72
89
86
96
101
112
168
169
157
176
77
67
70
132
78
145
85
73
70
91
73
54
30
83
35
54
59
18
133
36
37
36
31
32
35
39
38
37
36
44
46
37
40
43
36
38
45
32
46
53
33
62
53
149
102
96
76
69
67
67
68
69
68
68
68
68
69
69
68
74
74
74
70
68
66
69
74
70
64
55
70
66
80
90
102
116
128
89
126
137
140
147
156
157
168
177
183
183
187
181
173
170
169
168
163
156
153
156
159
164
166
166
164
163
161
175
159
31
174
99
63
163
179
178
143
78
93
94
110
119
133
177
177
162
175
91
82
75
152
137
137
75
81
62
62
63
50
32
86
38
54
63
39
127
33
34
31
29
29
33
37
35
39
39
49
51
42
43
47
39
34
48
39
41
55
51
69
42
158
115
98
64
58
58
59
67
61
60
62
62
62
62
61
60
58
58
56
57
56
59
65
71
74
75
75
67
59
63
58
63
50
60
63
71
71
82
94
180
182
186
183
180
177
185
185
182
179
179
181
177
172
170
172
175
176
177
174
173
170
162
173
155
51
174
65
59
198
179
186
147
81
97
104
116
115
129
177
168
178
188
78
69
80
199
192
130
77
88
65
53
53
47
45
81
39
54
61
50
79
41
39
32
27
28
33
36
34
38
40
52
56
46
47
48
39
48
52
50
44
51
48
62
51
116
107
103
63
62
64
56
61
63
62
64
64
65
65
62
58
64
63
68
69
61
43
27
20
21
23
36
30
41
52
50
57
64
64
73
65
56
53
68
199
195
186
181
186
194
188
191
191
185
183
184
184
183
180
181
182
182
180
179
177
175
173
178
159
55
157
67
92
182
182
197
154
84
96
104
106
90
73
190
187
181
183
82
82
85
200
196
125
94
94
85
95
93
89
83
86
80
92
63
66
51
56
50
39
31
32
38
40
38
38
41
54
59
50
49
50
41
48
41
49
53
55
46
73
99
105
117
114
63
60
69
64
68
63
64
64
66
67
66
62
59
67
62
58
61
59
54
44
40
48
39
49
33
42
45
34
45
34
44
38
44
76
96
127
200
197
194
192
193
193
194
193
192
190
190
188
185
183
186
185
185
183
182
180
180
180
177
171
166
57
169
81
85
193
186
200
152
85
102
114
95
15
44
192
185
186
193
83
91
92
202
209
124
93
114
124
129
137
133
134
132
132
129
133
142
134
134
138
136
132
134
132
125
126
120
118
116
112
105
96
86
82
66
64
58
61
57
46
76
139
100
119
115
68
66
68
65
72
68
66
70
70
65
67
69
65
64
65
69
72
63
51
50
55
54
56
50
41
50
56
56
56
58
57
53
149
165
167
163
204
200
196
196
197
198
195
193
192
191
191
189
187
185
184
183
182
180
180
179
178
177
178
169
168
63
167
84
107
194
191
196
154
92
110
108
95
29
49
195
198
182
199
90
84
132
169
145
139
90
75
68
78
81
88
89
92
92
95
101
110
107
120
123
122
121
129
131
133
135
127
129
132
136
138
138
139
140
137
136
129
123
127
119
112
116
109
128
113
69
67
71
68
65
65
63
68
70
67
64
63
60
66
65
66
66
62
55
54
56
65
69
63
53
58
60
57
55
53
60
74
161
153
148
160
207
202
200
200
201
201
198
195
192
188
187
185
183
182
177
178
179
180
180
180
180
180
180
198
157
59
175
88
97
204
189
196
161
95
108
99
122
96
171
205
189
186
194
93
84
141
127
107
145
106
68
42
53
56
50
48
48
45
44
45
43
41
33
36
33
29
37
41
45
47
55
59
64
68
73
77
84
87
92
101
106
109
121
133
129
117
108
134
112
74
67
72
70
62
71
66
67
69
66
59
53
53
59
58
58
58
60
61
60
58
61
69
67
64
67
68
65
67
74
56
59
144
156
163
167
213
207
207
208
206
204
202
198
194
188
183
181
177
175
173
175
178
181
185
187
188
188
179
192
187
152
160
79
112
205
204
203
158
82
106
115
181
199
182
190
196
209
193
85
82
140
116
125
130
116
72
42
52
57
52
50
51
47
50
47
40
40
44
44
36
28
30
32
32
35
31
36
41
43
43
41
45
46
38
37
41
39
31
31
37
40
99
130
114
85
72
74
76
75
66
70
77
85
81
62
42
35
30
33
37
39
45
51
54
52
60
67
68
63
63
61
60
63
62
66
73
119
107
96
114
215
210
213
214
211
204
202
197
192
186
182
177
174
173
174
177
182
187
191
194
194
195
191
185
190
213
151
85
121
210
199
204
161
97
120
113
143
138
133
203
209
207
197
86
83
133
134
143
136
114
62
38
53
49
48
52
61
52
48
44
44
65
52
52
45
36
38
38
36
37
39
45
51
52
49
45
43
42
50
43
45
52
50
48
50
53
116
138
121
92
86
85
86
93
93
89
80
81
87
86
88
101
96
97
93
86
79
72
64
59
59
67
68
64
61
59
59
66
65
68
58
86
103
96
99
207
202
205
208
202
194
194
191
185
182
180
179
177
176
178
182
186
191
194
195
195
194
197
198
192
215
164
95
112
216
201
210
155
97
116
122
152
158
163
214
204
202
183
74
83
116
127
121
149
116
58
44
58
41
54
63
77
58
46
40
47
87
45
47
43
37
41
40
38
40
42
46
53
56
53
49
46
44
45
49
50
48
49
52
52
48
145
144
126
74
73
73
69
74
69
78
78
78
87
85
80
88
89
91
96
98
99
97
96
96
90
93
88
77
68
59
57
61
56
68
65
76
90
84
85
191
186
187
189
186
180
182
181
179
179
179
180
179
179
178
181
187
191
194
195
193
193
188
193
217
195
166
85
121
213
198
212
154
106
113
119
145
164
171
202
209
215
176
60
84
129
127
135
138
115
59
43
58
45
47
51
65
51
48
44
42
82
40
42
39
34
39
40
39
40
44
46
49
50
50
48
48
46
45
58
56
47
49
51
51
57
141
137
128
44
45
48
43
47
64
73
57
39
39
36
33
43
41
38
42
49
55
53
51
51
58
64
65
63
66
64
69
78
79
82
86
81
77
70
77
185
179
177
178
177
175
177
176
176
177
179
180
181
181
178
181
186
192
195
197
197
195
195
201
167
80
164
87
110
217
208
214
146
111
120
128
146
169
171
219
213
201
189
88
96
166
178
212
127
118
64
40
53
61
55
48
56
48
55
51
30
55
33
36
32
30
36
39
40
43
39
39
38
38
41
43
44
45
47
54
50
49
62
58
50
59
131
139
150
47
45
53
55
64
69
82
67
48
51
56
58
70
69
57
54
60
62
54
46
45
42
46
44
38
35
30
30
36
38
29
50
54
55
73
98
185
181
180
178
177
177
174
171
167
168
170
175
179
181
181
182
185
188
190
192
193
194
190
198
163
79
163
76
121
218
207
221
161
111
131
132
167
141
134
226
205
204
208
203
216
214
211
232
123
126
67
41
45
43
44
51
47
48
51
42
36
42
50
38
35
37
36
37
41
40
40
39
37
38
40
45
49
51
52
56
57
56
58
62
66
65
93
150
142
48
44
46
54
66
81
74
59
47
45
46
50
58
65
49
51
55
61
64
60
70
73
68
57
50
47
42
40
46
51
69
88
158
158
167
168
180
178
178
179
181
182
176
172
165
162
163
169
174
175
181
182
184
187
188
190
191
191
192
187
160
94
161
81
132
212
203
219
146
89
80
65
105
136
106
210
212
208
210
209
215
210
224
221
120
129
115
123
131
119
123
118
112
106
102
95
86
79
71
63
63
61
56
54
53
49
44
40
35
34
37
41
45
47
51
54
57
58
62
66
67
65
87
147
149
62
64
67
67
68
78
74
64
54
55
57
62
70
66
55
58
60
68
74
70
74
75
77
66
53
53
60
64
64
81
84
89
150
146
152
159
175
173
173
177
181
183
178
171
162
156
156
160
164
168
173
175
177
180
181
181
181
180
179
191
152
93
165
94
134
226
212
229
129
41
39
58
93
120
123
217
228
204
195
204
211
213
233
213
137
133
130
144
151
145
146
144
145
145
145
155
159
152
155
153
157
156
151
151
152
145
134
132
128
125
120
113
105
99
91
90
88
84
82
78
72
66
99
146
136
56
55
67
70
68
76
74
64
54
54
56
58
63
64
56
60
59
66
76
74
76
73
85
75
57
57
66
63
55
92
92
98
155
153
147
150
172
169
169
172
176
179
177
171
163
157
155
159
164
167
167
168
170
173
173
173
171
170
167
185
154
104
157
110
134
204
204
207
149
102
118
111
118
127
103
177
212
216
224
214
171
135
88
62
34
30
31
37
47
56
58
66
71
70
75
87
94
98
107
110
117
118
115
119
121
114
126
129
135
142
146
147
145
142
145
146
147
149
152
152
152
150
135
158
136
63
58
66
67
69
69
69
60
53
53
50
50
53
59
54
60
62
66
77
78
86
76
87
82
65
67
77
75
68
93
89
84
120
118
112
121
169
166
166
168
172
174
172
169
165
161
162
163
167
169
169
170
171
173
172
172
170
167
173
173
200
192
212
209
214
211
217
196
163
103
119
110
127
118
141
169
164
116
86
73
77
88
98
51
46
43
44
38
31
34
21
26
24
23
27
25
22
26
26
28
32
34
30
32
34
28
23
22
21
24
32
40
46
50
60
63
70
74
79
85
94
101
113
124
117
86
88
90
84
87
85
87
81
77
81
80
79
83
76
71
77
79
79
77
71
78
82
84
74
61
61
64
65
68
69
74
71
91
95
93
107
167
166
165
167
170
173
166
166
166
165
164
165
167
169
170
171
171
171
170
168
167
164
166
173
219
218
222
220
149
103
92
125
163
102
107
104
130
111
99
96
90
84
100
105
111
108
100
46
55
58
61
59
52
54
75
54
53
61
56
48
44
39
47
41
43
46
42
42
44
41
46
40
35
30
28
28
29
28
22
22
23
20
17
16
22
30
50
54
66
67
75
77
71
76
76
79
76
75
80
79
79
82
91
88
93
95
97
98
87
83
82
81
77
74
74
69
64
68
59
75
81
92
101
97
111
166
166
165
166
167
169
165
165
167
167
166
165
166
168
169
169
168
166
164
162
161
159
156
185
232
219
223
218
98
75
213
186
168
101
116
113
117
111
118
109
99
97
110
104
119
112
96
48
60
60
56
63
62
60
111
54
63
83
47
43
70
61
48
38
39
48
46
44
46
48
39
39
43
46
50
51
50
48
45
41
38
35
30
26
30
36
40
37
47
49
49
49
43
45
40
43
41
41
46
43
42
45
44
46
49
51
71
95
86
71
79
83
83
87
92
89
84
88
82
86
80
75
82
75
101
168
167
166
165
165
165
166
167
168
167
165
164
165
166
170
169
166
164
162
160
160
158
159
177
240
223
200
209
98
96
65
126
164
106
109
113
111
120
121
113
103
104
114
104
123
107
98
52
58
57
57
77
76
58
126
47
71
99
38
48
113
113
47
33
35
46
46
42
43
45
48
46
45
45
46
46
46
45
51
46
42
40
38
35
35
41
58
56
65
67
64
69
65
65
49
52
52
53
58
58
56
62
62
61
54
42
68
105
97
70
80
79
65
54
52
53
55
60
64
69
69
72
82
72
101
162
163
163
163
163
163
164
163
164
164
164
164
164
164
163
161
160
161
162
161
159
156
156
151
145
113
79
169
111
100
63
197
155
118
108
117
120
120
116
113
107
110
104
105
133
113
96
49
56
52
60
84
86
80
137
94
87
102
53
47
111
113
47
35
34
40
41
42
44
43
46
48
51
50
49
49
50
52
54
54
50
42
38
39
43
44
54
50
63
79
79
72
65
61
41
41
45
53
63
69
70
68
74
64
60
59
72
107
87
74
71
74
66
55
56
58
59
60
55
53
108
167
184
199
202
159
157
158
159
160
161
161
161
161
161
162
161
161
160
161
161
161
162
162
162
161
160
155
163
165
165
112
189
106
101
66
199
169
102
109
119
110
117
121
123
88
134
97
108
110
101
91
60
61
47
61
87
97
87
148
98
114
120
34
39
120
100
49
36
33
37
40
42
46
47
51
52
55
53
52
50
53
53
54
54
53
47
45
44
46
46
53
53
63
73
74
76
77
72
47
46
48
56
68
79
83
84
67
62
66
65
73
106
91
79
75
76
71
66
70
71
70
70
67
60
169
217
212
210
204
157
155
155
157
158
160
159
159
159
160
159
158
158
158
159
160
161
161
161
161
161
161
153
163
156
166
98
190
76
62
40
138
158
112
116
125
127
124
121
113
98
105
95
90
93
95
91
62
48
54
66
65
76
88
122
90
113
113
38
51
124
97
42
29
24
27
28
31
36
36
45
47
51
51
51
51
54
56
50
51
51
47
46
48
49
48
46
54
70
79
80
82
78
65
67
65
63
65
71
73
73
72
76
65
68
68
68
99
85
69
73
71
65
62
71
75
75
75
80
52
185
226
214
214
212
158
157
157
158
159
159
157
158
159
159
160
159
157
156
158
159
161
161
159
158
160
161
162
158
153
164
94
197
57
44
35
130
161
125
115
117
123
115
119
124
108
86
92
119
129
173
200
206
147
136
134
148
146
133
137
135
136
133
109
112
136
125
101
89
85
82
76
73
73
71
68
69
69
64
59
53
52
50
60
58
56
48
45
45
45
43
52
51
62
71
72
71
63
49
47
50
55
64
73
77
76
74
65
48
55
62
71
108
95
76
77
70
59
56
68
75
77
79
81
55
166
204
191
190
200
158
158
158
157
156
155
155
155
157
157
158
157
156
156
158
160
161
160
158
157
158
159
152
145
163
155
93
190
64
66
97
195
157
107
118
120
116
126
122
114
92
112
228
228
229
216
228
222
110
133
134
147
147
161
155
165
155
155
169
164
160
165
165
164
169
172
167
167
170
168
160
161
163
160
157
153
153
152
142
140
135
126
121
116
112
107
112
94
87
91
92
93
93
89
84
84
84
84
81
74
65
60
60
51
60
66
75
102
82
65
74
66
55
52
64
69
69
72
74
61
95
113
93
102
152
160
161
160
157
155
153
153
153
153
153
154
154
155
155
159
159
159
158
157
157
158
158
158
153
151
67
44
198
193
220
228
237
153
117
131
131
131
135
133
125
91
107
215
143
222
204
71
187
120
118
56
31
30
44
46
46
48
53
59
61
64
70
79
80
89
96
94
97
102
101
118
121
130
134
140
142
147
149
157
159
162
162
164
162
159
152
118
93
82
85
88
89
93
95
98
96
96
97
99
100
100
100
97
99
105
105
103
112
80
71
71
66
58
57
66
67
65
68
71
83
91
120
113
110
156
166
164
162
159
156
154
151
152
152
152
153
155
155
157
160
159
158
158
159
160
160
159
154
169
169
64
78
186
207
163
132
101
83
70
65
71
94
84
88
96
71
150
177
138
214
204
89
196
117
132
105
57
47
50
48
45
49
46
40
43
48
49
46
41
41
39
35
35
35
29
27
29
36
37
39
38
40
41
42
44
50
52
59
63
65
62
55
44
45
50
50
50
49
45
47
45
44
44
48
55
61
64
70
76
78
80
95
109
76
74
78
75
70
69
75
73
72
76
65
72
72
90
98
93
147
169
165
161
157
155
155
153
153
152
152
153
156
157
159
160
158
157
158
161
162
163
160
161
168
182
127
180
194
182
73
61
103
157
97
56
41
57
46
53
51
89
168
171
158
221
201
75
192
119
132
140
89
66
30
39
44
45
36
40
46
43
46
52
44
40
39
40
46
49
42
45
46
50
50
49
47
47
48
52
49
45
40
42
45
47
45
57
59
65
67
65
68
67
59
48
44
39
35
34
37
39
41
41
41
34
43
81
110
79
80
73
70
64
62
65
64
67
76
81
80
90
84
80
69
136
163
160
157
156
156
156
155
155
155
155
156
157
158
159
160
160
161
162
163
166
168
169
171
192
209
231
214
181
150
72
75
178
182
92
52
52
58
57
57
59
88
171
165
166
215
193
85
189
117
127
112
122
106
43
46
43
47
44
45
37
54
51
49
45
43
43
45
47
47
44
48
48
51
54
58
59
60
58
61
55
51
47
48
47
52
56
67
70
74
80
85
88
84
81
65
51
37
41
43
46
56
52
58
62
55
52
88
109
88
77
75
74
50
38
43
38
41
45
44
40
64
81
96
113
148
160
158
156
155
156
156
156
156
156
156
156
157
158
158
160
160
161
161
164
166
169
168
172
170
138
112
76
83
114
86
111
182
181
95
54
51
58
57
63
52
85
204
158
176
210
200
99
197
118
123
85
57
45
50
39
34
51
38
40
44
45
39
44
41
38
39
43
47
50
50
44
40
39
43
51
57
59
57
63
57
52
50
49
50
54
59
70
74
81
87
92
93
89
86
76
60
42
42
44
48
63
60
67
76
72
68
94
107
84
75
78
78
51
40
51
47
51
58
86
80
134
151
155
153
146
157
155
155
155
155
156
156
156
156
156
156
157
156
156
158
158
159
161
163
164
166
165
181
164
161
182
93
82
102
76
71
80
81
53
54
56
63
67
62
59
94
179
197
188
203
208
207
211
100
113
64
46
37
33
42
48
83
54
41
45
41
44
42
38
31
29
31
35
37
40
41
34
29
34
47
58
60
58
58
55
53
53
51
48
47
50
61
65
74
81
86
86
83
80
80
67
53
54
55
55
67
61
66
75
73
72
99
110
88
80
78
78
45
33
48
45
47
57
106
84
143
146
146
150
136
156
155
156
155
156
156
158
157
157
157
157
156
157
156
158
159
160
161
162
162
163
162
146
171
153
161
97
87
63
62
64
57
62
59
64
56
51
48
53
55
84
123
227
205
207
205
212
198
115
128
59
51
55
52
43
50
79
53
36
32
30
35
29
27
25
25
29
33
36
39
42
36
30
34
45
54
57
55
59
56
54
54
54
54
56
58
51
53
58
64
67
67
65
66
65
58
48
52
55
61
74
71
74
74
68
67
98
109
87
79
84
85
51
38
54
52
53
64
91
83
145
156
155
156
143
160
159
158
157
158
157
160
159
158
158
158
158
158
158
161
160
161
160
160
160
160
159
162
156
168
153
102
79
57
51
48
69
70
62
56
58
65
63
65
68
91
125
211
204
214
207
220
197
117
142
148
167
155
156
159
152
159
156
159
152
157
146
148
144
138
131
124
117
111
107
104
100
92
87
86
84
80
77
74
68
60
55
51
49
50
54
72
68
65
67
67
67
67
71
69
62
50
49
48
53
67
63
68
71
67
68
96
103
83
80
81
82
53
43
57
54
58
65
88
84
102
100
98
109
144
163
162
160
159
159
159
161
161
159
159
160
159
160
160
162
162
161
160
160
160
160
160
163
161
151
57
89
118
132
175
204
203
136
133
132
133
133
138
134
107
91
133
231
223
216
189
178
142
91
102
96
108
112
122
134
128
129
138
147
141
154
142
150
152
156
158
160
161
160
161
164
164
164
164
164
165
164
164
156
156
157
158
155
149
143
142
121
112
104
103
102
98
99
101
98
98
95
97
94
93
100
90
85
91
93
91
107
102
79
82
76
75
55
48
53
49
53
55
59
75
86
96
96
97
145
164
163
162
160
160
160
160
160
160
160
159
160
161
161
163
163
161
160
160
160
161
163
154
164
168
44
73
221
239
230
198
219
120
129
133
134
123
126
123
124
93
119
110
93
91
74
57
32
36
44
28
34
45
42
36
34
50
42
45
43
46
40
44
48
53
56
59
60
59
58
62
64
71
81
92
102
109
112
117
119
126
135
141
142
144
148
93
84
75
76
76
71
70
70
64
71
77
87
90
90
96
85
96
98
96
96
111
105
78
78
83
80
71
70
67
64
71
65
58
75
84
100
100
95
148
162
162
162
161
160
159
159
159
159
160
160
161
161
162
163
162
162
160
161
162
164
165
165
165
166
99
79
193
101
76
52
181
125
131
120
137
135
131
133
133
89
186
85
158
156
103
65
69
71
54
68
71
68
74
77
66
84
60
61
65
45
31
38
41
45
46
47
45
43
40
45
41
41
39
40
40
37
34
36
26
13
8
9
17
31
44
64
55
50
55
59
54
49
47
53
53
46
44
40
40
49
42
38
33
33
49
90
103
82
81
79
77
78
85
81
81
93
85
90
87
81
84
76
75
136
163
161
160
160
160
159
162
162
161
159
161
164
162
159
164
162
160
161
164
165
166
163
166
160
195
224
82
174
99
94
70
202
126
127
134
133
132
133
132
138
107
188
89
156
148
116
71
70
66
66
66
72
81
87
101
65
100
106
88
69
76
26
52
48
46
47
48
47
47
47
48
54
59
59
59
61
59
54
56
44
24
21
30
25
32
66
68
70
70
69
69
67
59
48
52
50
50
51
56
57
56
53
50
52
46
44
95
103
81
81
85
76
55
51
58
52
54
53
52
59
70
79
85
98
147
161
160
159
158
154
149
149
154
160
160
161
162
163
162
162
161
161
162
165
166
166
164
156
168
161
156
86
176
97
101
111
221
142
129
114
131
148
134
133
133
116
200
78
186
160
103
71
59
54
63
63
60
73
92
96
83
109
99
101
116
125
60
54
51
45
45
46
45
44
43
52
59
66
64
67
70
73
70
65
55
38
34
41
36
42
72
72
74
76
76
79
76
65
52
50
50
53
59
66
64
55
45
65
64
55
49
94
99
80
79
85
77
52
50
56
62
68
69
65
85
144
159
155
151
154
158
157
157
154
146
138
139
150
160
162
160
160
162
162
160
159
159
161
162
164
165
162
158
161
159
158
87
174
98
89
95
204
133
134
127
134
138
130
140
126
114
155
97
160
133
109
73
60
56
63
64
57
65
79
80
82
99
85
100
128
125
54
57
50
43
42
45
46
47
48
56
62
67
62
60
62
64
64
70
60
44
40
43
36
40
61
74
76
81
84
89
85
73
60
65
62
65
74
83
80
68
55
74
71
62
55
96
100
83
84
80
76
42
42
46
69
77
82
67
80
154
156
146
148
138
159
157
156
154
147
140
142
152
162
162
159
158
158
159
159
160
160
161
162
162
162
161
162
167
156
160
90
166
46
57
54
198
133
126
136
137
125
137
131
128
111
110
101
98
90
109
59
51
44
41
47
49
44
38
36
35
50
54
80
97
94
54
57
46
33
29
31
35
38
42
51
58
63
58
55
56
59
60
57
52
43
40
44
40
42
56
65
69
72
78
79
77
70
64
66
62
61
65
73
73
67
57
79
74
69
62
96
98
82
83
79
78
40
41
41
71
77
81
79
90
156
156
147
152
149
163
160
158
157
155
153
151
157
162
161
158
158
158
157
157
158
160
161
161
161
161
160
167
139
157
149
87
175
54
38
44
195
137
122
130
143
131
135
124
127
89
93
86
95
118
136
172
149
124
114
119
122
111
98
98
85
81
76
83
76
72
62
68
60
49
44
43
42
43
45
54
60
63
54
46
42
42
39
44
43
39
38
43
42
44
51
51
53
54
55
53
52
53
55
66
61
57
56
58
58
58
56
58
55
59
60
92
94
82
83
81
82
46
45
39
63
64
66
64
78
121
130
126
128
147
160
157
155
156
158
158
155
158
159
158
158
159
159
158
158
158
160
160
159
158
160
160
156
157
146
61
85
171
83
110
148
205
125
131
129
143
140
131
131
124
95
145
211
222
231
235
229
191
156
151
158
157
156
160
165
162
163
165
169
167
167
166
157
156
154
157
156
154
152
151
137
145
146
137
129
125
122
119
106
103
99
94
90
89
86
82
89
87
85
82
79
77
81
87
79
78
75
72
69
68
68
69
66
64
73
74
100
97
84
83
76
78
51
49
42
52
51
50
52
65
81
96
100
107
153
153
152
152
155
155
153
155
157
158
156
156
157
158
157
157
159
159
159
157
157
159
161
151
147
139
53
99
214
214
235
230
229
122
132
127
134
136
138
126
110
97
154
200
184
145
129
100
73
53
58
69
74
83
95
87
92
102
110
112
114
111
106
116
118
123
127
130
129
128
129
134
143
149
149
153
160
163
163
175
175
175
170
166
169
165
157
114
109
104
103
104
103
105
108
102
102
101
99
97
96
97
98
95
90
98
95
109
98
81
77
73
75
61
61
60
59
60
59
54
61
73
86
93
103
152
153
152
155
158
156
152
154
158
160
157
155
155
156
157
158
158
158
157
157
156
159
160
165
168
159
112
135
210
182
153
133
198
123
130
133
140
128
135
136
119
105
147
69
124
105
95
58
52
45
41
42
46
48
48
46
41
40
45
38
35
30
24
18
20
21
25
24
22
25
29
29
36
40
42
47
57
62
62
68
72
83
89
97
109
115
107
52
43
38
42
46
46
45
44
46
45
45
45
46
48
52
55
60
58
73
77
97
92
82
81
80
83
77
82
88
81
86
88
87
81
82
79
81
100
151
158
157
157
155
153
151
154
166
151
157
162
158
150
161
157
159
160
159
158
155
157
158
170
188
216
229
221
152
100
84
82
209
122
130
147
126
137
140
126
126
114
156
91
172
120
116
62
62
56
55
64
60
60
76
70
41
67
63
54
55
42
25
44
38
39
43
42
42
43
38
46
45
44
44
45
46
45
46
41
27
17
17
20
23
30
35
51
45
51
59
56
51
49
46
47
43
40
41
44
44
39
34
36
24
27
56
99
92
81
80
80
72
57
48
53
57
61
67
65
65
73
67
75
86
156
155
156
156
156
157
156
153
163
156
155
155
154
153
157
158
159
159
158
155
153
154
155
163
189
124
217
211
158
122
98
96
205
123
129
138
134
141
146
141
120
129
171
82
178
116
110
60
65
61
56
59
55
62
81
83
61
110
88
84
90
93
48
50
42
41
44
43
43
45
42
47
49
50
48
50
53
55
53
59
44
32
30
32
33
38
43
47
48
62
75
73
69
61
52
52
46
42
42
47
50
50
48
46
36
41
65
103
92
80
81
80
69
53
44
46
44
44
47
68
92
154
159
161
153
166
155
154
154
153
152
152
146
153
163
163
160
162
165
160
163
164
164
161
158
157
157
156
157
181
88
222
227
144
119
107
97
204
131
139
140
141
133
134
145
124
135
164
99
199
122
124
58
58
58
62
67
62
73
95
79
59
125
100
104
102
119
61
63
51
46
44
42
42
42
39
50
56
57
52
54
60
62
58
66
54
44
41
42
41
44
47
56
59
69
77
75
75
70
60
58
52
45
43
48
51
53
53
44
39
47
68
103
92
82
84
78
66
52
50
57
54
53
61
81
100
168
153
151
154
150
156
156
156
154
151
149
155
148
158
151
148
152
157
155
158
159
159
156
153
152
154
155
162
185
94
204
213
153
90
70
72
196
121
129
134
141
141
147
131
124
146
152
101
155
106
113
59
66
67
59
56
57
66
76
83
62
116
103
110
89
102
67
45
34
31
34
35
42
46
46
51
59
60
54
53
63
65
60
61
54
48
46
45
45
49
54
63
68
75
79
76
78
74
62
62
57
52
52
56
60
61
60
58
55
60
75
105
92
80
80
85
70
55
54
60
54
52
61
83
107
172
159
160
163
147
151
152
154
151
148
144
149
143
153
157
161
163
152
157
157
157
158
155
153
153
156
158
156
168
84
226
209
147
34
47
62
199
126
137
145
137
137
137
141
109
105
96
85
91
90
96
60
61
56
45
44
56
67
68
73
63
85
80
85
56
52
50
47
35
32
31
31
36
40
40
56
64
64
56
53
61
62
56
54
50
45
39
36
39
48
58
60
66
77
83
79
78
70
55
54
53
54
58
63
65
66
63
53
52
58
72
102
93
82
80
85
70
55
55
58
52
52
63
80
103
142
139
147
157
155
157
156
156
154
148
143
147
153
149
147
157
166
139
157
159
160
160
159
158
159
163
163
171
172
99
220
219
131
42
49
80
179
116
130
144
135
142
140
124
134
110
123
175
163
179
207
216
161
131
144
151
139
137
144
135
143
141
138
142
126
116
124
114
103
97
93
85
82
81
77
83
88
86
75
69
71
69
65
59
54
46
39
37
40
51
59
74
74
78
79
72
71
65
56
56
56
57
60
64
64
62
58
58
57
63
73
101
94
84
82
77
68
56
55
59
56
57
66
74
84
90
87
97
127
157
153
152
152
151
148
143
140
197
212
221
226
209
116
112
110
112
113
112
110
111
114
114
107
204
209
213
210
180
197
214
206
208
142
138
141
142
152
150
154
228
224
231
220
220
221
216
211
159
136
146
148
140
144
153
149
158
158
159
162
158
156
157
159
153
155
157
154
152
156
156
160
165
165
161
158
158
159
159
155
152
147
145
146
148
146
143
119
110
106
104
99
100
102
101
101
99
99
99
101
101
101
98
94
95
95
93
108
93
80
78
80
76
65
60
59
55
52
57
66
77
95
99
100
132
161
117
116
121
125
127
125
130
210
218
220
226
217
111
112
111
113
115
114
112
112
115
115
107
196
215
212
211
218
199
205
194
137
109
124
132
145
147
135
165
196
198
207
110
203
227
124
124
148
140
79
29
36
52
37
52
46
55
63
62
53
63
59
67
65
72
79
79
81
84
86
104
109
117
123
129
135
144
149
153
152
155
161
168
163
147
134
75
70
70
77
77
77
81
82
80
78
78
78
83
87
91
93
94
98
101
94
106
91
84
84
80
82
79
75
78
77
76
78
75
72
87
78
72
117
153
73
72
67
71
70
64
60
198
221
221
228
216
114
112
119
120
120
118
116
114
113
110
102
205
217
211
209
206
141
66
76
176
101
75
56
56
57
63
111
148
177
208
109
216
207
136
138
145
147
74
48
59
54
55
58
54
48
48
46
38
31
35
39
39
39
40
36
33
33
35
40
38
37
36
34
34
36
36
35
30
26
27
34
41
47
50
37
39
40
39
38
36
33
31
41
39
38
37
37
36
34
34
40
33
37
69
109
92
83
81
82
71
64
65
69
69
72
76
74
74
79
75
73
112
159
76
74
70
76
73
68
61
204
210
178
156
139
93
107
115
118
121
122
123
121
121
120
84
190
130
217
189
142
160
81
153
224
119
83
59
73
63
59
103
146
187
214
113
219
219
136
138
147
146
76
65
85
71
106
63
65
68
54
49
51
50
30
48
46
46
47
47
44
43
44
41
42
42
42
44
44
45
45
53
41
30
29
33
37
41
45
53
52
51
49
48
45
45
42
49
47
46
46
49
48
50
49
43
39
42
72
109
90
82
80
78
65
56
53
54
52
53
54
64
94
136
148
146
160
181
77
77
72
77
75
71
72
162
137
111
112
104
88
83
96
100
106
109
110
110
111
111
90
173
94
220
186
161
170
82
168
225
126
96
54
66
64
79
128
154
187
206
110
213
218
119
139
148
152
70
71
103
69
121
88
93
104
68
58
78
90
39
54
50
46
46
47
46
44
43
46
47
49
49
51
50
48
48
62
47
38
39
44
44
49
55
50
47
45
43
43
41
42
41
47
43
41
40
44
45
45
44
42
40
45
72
106
88
81
80
79
66
58
56
56
55
59
61
82
126
179
181
173
163
166
80
80
76
81
79
78
73
121
111
102
112
98
91
91
82
85
89
89
91
90
93
92
78
161
120
224
173
149
124
71
120
153
91
87
68
70
66
79
131
145
187
209
115
206
229
135
162
145
150
54
66
107
76
118
107
110
121
67
55
92
116
45
56
47
41
41
45
48
45
45
51
53
55
54
55
54
53
52
68
55
48
49
49
45
47
51
58
56
55
54
54
53
55
55
57
53
50
50
54
57
57
55
48
48
52
75
106
89
83
78
77
65
58
57
58
59
64
69
91
127
172
161
160
162
172
84
85
82
85
84
83
79
107
120
111
114
98
85
92
88
88
90
88
88
85
87
84
77
170
118
220
176
86
68
45
59
89
76
78
76
66
68
69
111
209
214
210
197
219
202
210
214
145
147
56
70
96
82
106
104
103
114
59
46
84
111
42
44
35
28
30
37
42
42
44
51
52
53
54
55
54
56
54
59
51
48
50
51
48
52
59
60
58
58
58
58
58
58
58
57
54
52
53
58
61
63
63
55
56
57
76
105
88
80
74
79
68
61
59
58
58
63
67
94
125
165
157
160
171
168
85
87
82
85
85
87
89
108
120
106
114
115
94
86
96
97
96
93
89
87
85
83
71
171
130
199
180
77
53
38
32
60
72
60
60
54
65
57
134
209
214
215
203
206
205
215
228
136
138
97
103
100
93
106
91
90
97
63
54
76
93
44
42
35
30
30
31
33
34
36
52
53
52
50
49
47
47
46
56
51
48
47
48
49
54
59
60
59
59
59
58
57
56
56
60
58
56
54
56
55
56
56
56
59
61
75
100
86
81
76
80
70
64
62
62
60
64
69
76
83
98
89
101
152
173
90
92
89
91
92
94
93
122
126
119
113
108
103
102
94
95
98
96
93
88
85
82
79
204
206
215
200
156
143
145
167
143
127
127
140
147
146
127
173
218
208
207
210
209
211
211
208
142
141
152
155
150
147
152
151
148
153
147
146
150
153
140
141
138
138
137
134
131
129
130
118
119
120
120
118
115
113
111
106
103
95
91
89
87
81
73
89
87
86
85
84
84
84
84
87
87
86
83
80
78
78
79
70
77
78
85
101
83
81
79
74
65
61
60
60
59
62
67
78
85
104
106
103
160
166
98
101
97
100
100
104
101
126
109
122
112
89
86
82
89
91
96
99
96
91
87
83
88
211
200
200
205
210
228
225
224
169
137
148
148
149
147
149
184
219
208
199
192
176
176
163
150
116
95
115
110
117
115
116
127
122
122
136
143
137
135
147
145
148
153
155
154
150
148
150
157
161
164
169
171
171
171
168
168
171
172
172
176
178
165
148
102
100
98
97
98
100
102
104
92
94
97
96
95
94
96
98
100
108
106
102
107
82
77
76
82
74
69
68
66
64
66
70
76
76
89
90
80
153
166
39
41
46
36
41
47
47
41
49
71
76
61
55
64
54
60
104
115
116
96
96
90
83
228
204
212
218
144
109
92
121
171
132
136
142
144
133
140
133
105
109
92
89
129
99
88
59
45
40
36
45
40
52
43
36
38
27
35
29
22
31
23
30
33
35
37
36
34
39
43
56
61
68
74
78
82
86
85
89
97
98
100
113
127
115
90
38
39
41
42
43
44
44
44
43
44
44
44
43
43
44
44
53
57
50
91
103
79
88
78
88
73
74
75
79
80
76
85
84
79
71
86
67
143
173
28
29
31
33
40
44
44
43
49
58
60
57
55
58
64
68
105
121
112
67
47
38
78
137
142
111
163
128
101
94
172
165
132
133
145
143
134
142
134
98
161
117
104
170
98
99
54
67
70
58
68
66
65
71
41
42
50
45
43
57
31
30
49
48
49
49
46
41
41
42
47
51
55
56
55
55
55
55
45
44
43
48
50
50
48
45
49
49
50
51
52
52
53
54
54
52
51
51
52
53
53
54
41
45
44
91
107
82
88
80
72
51
45
45
46
46
45
57
60
96
102
120
117
162
168
36
34
37
54
63
61
63
65
59
45
37
36
34
31
28
30
39
37
38
33
35
34
41
32
31
48
163
126
110
77
212
163
136
132
146
141
134
142
135
110
164
122
107
173
121
98
61
60
59
63
70
63
65
124
25
39
75
47
61
106
54
52
43
41
44
48
50
49
49
50
53
56
59
60
59
56
54
54
60
53
50
51
48
43
45
51
53
51
52
52
52
54
55
56
54
52
50
50
52
54
55
54
54
53
52
96
110
82
84
76
81
54
45
46
50
52
54
70
81
166
188
193
179
173
164
39
37
38
67
72
66
64
70
61
40
28
32
35
31
40
42
35
38
38
38
36
33
31
34
32
78
188
126
117
94
191
166
139
134
141
140
137
140
140
96
174
126
117
193
115
91
54
61
65
57
57
72
63
105
47
52
89
49
100
153
87
56
50
46
45
47
49
48
46
46
43
43
46
53
59
59
58
58
51
49
46
46
54
59
59
55
55
54
55
53
54
55
58
58
58
53
51
51
56
56
58
57
58
53
50
92
105
82
84
83
79
52
44
47
54
57
61
79
96
164
163
157
164
163
165
34
34
37
69
64
65
63
69
64
46
33
34
40
42
36
31
42
105
113
101
94
103
101
97
91
88
176
96
56
49
132
165
136
137
135
142
139
137
145
100
154
122
117
167
118
89
56
48
53
57
58
78
75
112
35
44
86
52
100
112
86
67
48
43
39
40
43
43
42
42
32
28
33
44
55
58
57
56
56
54
53
52
57
57
57
54
60
59
60
58
59
60
62
62
64
60
57
58
62
63
64
63
66
60
60
94
104
84
85
84
78
54
49
53
56
56
58
73
91
155
176
174
163
161
166
34
38
42
72
58
74
64
71
70
50
32
28
30
33
36
33
40
106
98
94
93
100
97
84
71
86
189
74
47
39
109
160
130
138
132
141
140
137
139
118
115
111
107
116
127
92
54
45
46
54
61
63
69
122
31
41
73
61
84
48
60
68
44
40
37
38
42
42
43
43
31
26
27
37
47
48
46
46
52
44
46
51
47
41
45
59
58
57
56
56
56
57
58
59
57
56
55
56
58
58
59
58
61
60
66
92
99
85
82
80
82
64
61
61
64
64
62
72
81
98
105
112
119
165
175
32
38
44
66
51
89
49
62
64
46
29
29
34
36
33
41
45
94
55
52
53
43
44
52
49
88
171
78
82
83
155
154
128
138
136
138
135
136
139
109
127
114
117
126
112
92
73
153
159
105
110
116
109
119
111
100
99
102
116
87
90
78
70
67
65
64
62
59
56
55
41
36
35
41
43
40
38
40
44
41
43
48
49
46
53
64
67
67
67
67
68
68
68
67
64
63
64
65
65
64
65
65
56
58
67
84
91
84
83
81
72
60
60
55
55
59
57
65
76
92
107
111
100
159
162
33
41
47
64
50
106
42
61
66
45
28
31
37
35
35
38
43
98
41
29
36
37
39
44
69
89
172
209
201
210
212
149
128
137
140
132
130
136
141
121
103
103
117
113
122
85
87
220
220
132
139
144
140
152
144
157
155
158
150
149
158
146
153
153
154
156
157
156
154
153
151
145
146
147
145
141
140
147
140
139
131
121
120
122
115
103
92
93
94
94
95
94
94
93
92
93
94
95
94
93
92
91
96
96
96
98
94
82
79
76
79
72
68
59
56
60
59
66
72
80
90
94
91
166
160
34
35
48
58
65
85
52
64
65
40
30
33
29
35
36
31
48
98
23
26
32
29
37
69
219
145
150
186
169
157
161
119
92
103
109
134
132
116
129
102
127
95
108
143
110
94
61
88
87
61
62
56
67
66
79
82
77
83
89
86
99
98
106
109
115
118
118
116
118
121
127
126
130
133
133
135
140
144
137
152
147
146
148
149
135
89
49
52
55
53
52
49
50
50
60
53
55
61
60
63
71
74
82
87
78
95
87
83
84
70
79
77
75
72
72
72
73
74
83
70
84
79
66
165
160
37
34
47
61
62
70
57
65
63
37
29
34
29
34
32
35
55
92
34
22
23
26
20
69
164
125
82
91
87
82
136
174
95
58
48
53
44
52
49
96
186
107
115
158
120
76
55
46
48
49
49
44
51
61
52
55
54
56
45
37
30
30
35
35
36
36
35
34
37
41
38
39
42
44
44
42
42
43
38
34
29
30
37
47
53
36
38
38
38
38
37
36
37
38
38
30
29
32
30
32
36
37
30
32
41
93
96
77
75
75
65
61
59
58
58
58
58
56
60
88
82
82
93
160
161
36
31
45
63
63
63
58
66
62
36
28
33
28
32
34
31
48
97
88
85
81
74
73
58
51
81
92
155
117
74
129
197
84
44
53
66
58
62
47
99
200
101
110
132
107
86
58
48
49
59
65
63
59
101
75
80
86
67
52
71
34
23
41
39
37
37
37
38
41
43
50
54
56
58
58
55
54
52
50
29
26
28
29
35
38
47
42
40
39
38
40
42
43
44
46
36
34
37
39
43
46
43
39
32
37
89
90
67
70
78
65
62
59
59
62
62
59
52
88
177
167
160
159
156
158
34
27
42
63
67
72
53
63
62
36
28
31
28
32
27
30
52
98
66
60
63
63
65
61
61
104
91
154
101
84
139
183
97
62
52
53
58
50
46
104
178
89
108
132
113
78
45
58
56
49
53
51
37
102
36
49
78
38
46
134
77
58
43
40
39
42
43
42
42
42
53
54
54
55
58
59
59
58
54
26
31
35
36
37
34
49
43
40
37
37
41
44
48
49
41
31
29
33
38
45
46
41
35
41
47
91
88
71
69
65
69
64
61
62
65
66
62
56
92
171
152
148
164
149
162
32
28
41
58
64
77
45
58
60
36
27
31
27
33
32
30
50
97
24
23
29
28
22
18
31
96
94
117
72
65
81
108
84
60
57
55
65
58
48
104
139
99
115
123
111
75
54
55
58
55
50
58
47
95
46
48
83
18
21
129
59
48
41
37
35
37
40
39
39
38
52
53
55
56
60
63
61
57
59
33
36
36
39
44
42
52
46
44
41
41
45
51
54
55
50
42
38
41
44
49
50
42
35
46
50
84
81
72
72
62
67
64
61
62
66
66
63
58
105
149
145
139
152
146
157
33
31
43
55
57
69
44
56
58
34
25
30
27
33
34
25
43
96
21
30
34
27
36
33
31
104
98
56
42
38
48
77
84
56
69
63
57
56
56
99
109
107
106
101
104
83
56
29
41
48
36
50
51
54
49
41
76
26
24
101
54
68
34
32
30
32
37
40
45
48
51
55
57
60
62
63
56
47
50
36
35
35
36
42
42
45
45
43
41
41
43
47
50
52
54
47
46
48
47
51
51
43
46
50
47
80
75
65
69
69
64
62
59
60
62
64
62
59
74
100
127
127
136
151
160
33
27
41
57
55
58
50
57
54
30
24
30
25
30
19
25
49
91
21
15
23
27
20
26
34
92
89
38
36
38
44
67
75
53
51
44
40
50
50
98
111
98
97
113
113
69
51
54
59
41
32
36
39
28
33
27
43
27
25
48
35
50
31
28
25
26
30
34
38
44
50
52
54
53
55
55
46
34
28
26
24
31
32
34
44
42
44
42
42
41
41
43
45
47
39
37
40
39
37
40
40
32
39
46
47
85
79
65
65
61
59
57
55
54
54
55
55
53
71
78
89
84
108
155
157
32
22
37
61
57
53
57
59
50
26
23
30
25
26
25
26
45
87
60
51
49
47
52
36
50
84
117
128
125
133
143
116
97
108
108
116
112
101
97
95
100
94
99
103
96
61
95
161
157
102
113
108
111
118
111
112
104
112
110
96
103
100
92
88
84
82
79
76
77
80
83
81
81
76
78
80
71
60
52
49
39
47
44
40
62
64
72
72
72
70
68
67
69
70
71
70
74
72
66
67
67
60
64
69
61
78
68
63
68
61
61
59
57
55
54
55
55
55
51
78
93
85
101
154
156
28
24
41
51
44
49
41
55
50
29
21
24
26
25
26
22
40
91
73
78
75
69
71
120
192
57
158
173
162
171
161
114
106
126
127
123
130
127
114
97
91
89
95
105
95
54
102
174
158
98
105
116
106
115
116
118
121
119
122
123
124
120
123
126
129
130
130
131
132
131
126
132
129
129
127
125
132
127
131
128
124
129
131
138
123
73
62
68
71
73
72
72
72
73
72
68
71
72
69
71
73
70
69
71
71
86
67
61
61
55
62
58
56
57
58
58
58
61
62
60
63
58
74
154
153
27
22
39
50
43
49
35
50
45
25
20
25
26
25
19
27
48
72
26
21
23
24
13
73
156
76
82
83
58
75
137
109
64
47
64
64
50
46
67
86
128
79
121
102
100
49
37
41
35
33
37
31
28
37
27
30
33
39
35
36
37
45
48
46
46
44
43
45
46
46
51
57
61
69
69
70
75
65
73
75
78
85
85
89
83
47
22
26
27
27
26
28
31
33
29
25
27
29
27
28
29
24
28
29
42
76
65
58
60
60
51
47
46
47
48
48
50
52
50
62
50
47
77
147
148
25
22
38
48
41
48
34
47
42
23
19
25
24
23
23
27
45
62
23
24
25
21
30
21
15
72
77
107
79
66
152
134
76
36
47
55
47
50
37
92
139
67
117
106
92
54
46
42
40
44
51
50
37
22
24
32
25
29
18
31
26
28
28
26
24
24
24
26
27
27
26
27
29
33
27
27
33
16
17
17
16
21
16
27
41
28
38
36
34
33
32
36
40
43
40
35
36
38
37
39
40
35
26
23
39
82
71
54
53
57
46
45
43
45
44
44
43
40
83
129
127
123
125
137
126
24
21
38
47
39
47
39
49
42
20
18
24
24
22
15
22
51
62
19
16
21
25
21
18
9
111
68
100
61
68
156
122
76
42
36
44
48
41
33
95
134
55
117
102
79
51
34
38
37
49
64
47
32
48
18
36
22
22
17
53
39
24
27
26
27
29
32
29
26
24
32
33
37
40
34
32
35
13
22
24
23
29
23
25
36
30
31
30
28
26
28
31
35
39
36
31
31
34
35
37
37
30
33
28
40
78
66
52
51
55
48
46
47
48
47
45
44
38
102
128
113
118
115
115
120
23
21
36
43
36
45
39
48
40
18
15
21
23
22
22
16
47
63
30
25
21
24
25
16
14
94
64
114
51
65
111
95
66
41
40
51
50
36
31
90
145
52
136
96
83
39
38
45
43
45
52
42
45
68
17
37
25
25
19
53
39
22
28
26
28
30
32
28
25
23
21
29
34
40
37
37
36
12
30
29
26
32
32
29
35
32
34
32
31
32
34
37
40
42
36
32
33
37
37
40
40
34
33
33
41
70
57
49
52
52
49
47
48
50
50
46
43
35
112
116
108
120
105
90
107
22
18
35
40
33
43
32
44
37
16
13
20
22
22
20
4
41
66
60
66
62
61
62
58
17
92
63
45
20
24
45
74
62
34
41
46
38
38
28
89
122
56
103
92
86
42
31
31
39
36
23
30
41
35
30
36
29
33
21
32
24
24
23
20
21
23
26
24
26
27
29
37
30
28
30
33
36
22
36
33
24
28
29
30
39
38
34
33
33
34
36
38
40
41
36
32
35
39
38
41
41
35
37
41
47
67
53
50
52
45
46
47
47
49
47
44
42
36
84
92
102
113
82
49
55
19
16
32
37
29
40
25
39
35
16
13
18
20
20
16
11
52
52
22
18
18
23
17
34
12
96
75
14
23
19
39
65
63
40
38
38
34
35
36
80
74
62
58
80
76
41
37
23
28
44
40
27
29
34
25
27
25
30
23
23
23
32
27
22
22
25
27
26
30
35
42
52
32
21
31
36
41
42
27
34
29
30
30
26
29
29
32
30
29
30
32
33
34
33
34
31
34
37
35
36
37
32
34
37
42
64
50
48
50
46
44
43
44
44
42
38
39
35
74
76
73
70
72
67
77
16
14
29
33
26
36
19
36
35
17
13
17
17
16
15
8
49
40
16
20
20
20
27
13
37
62
58
67
56
67
67
48
50
53
46
51
57
41
47
63
57
70
71
67
74
24
53
73
56
36
51
50
35
34
38
36
33
27
27
27
31
29
27
23
23
25
23
20
24
29
36
51
30
14
24
22
18
20
21
29
19
16
17
22
37
45
42
39
37
37
39
40
40
39
43
40
43
45
42
42
44
40
42
42
43
64
48
42
44
43
39
39
39
37
34
33
33
30
56
84
88
71
77
71
73
13
13
29
30
27
31
23
35
28
11
10
17
18
14
14
16
45
34
14
14
20
12
0
92
144
3
131
116
106
116
116
56
66
79
82
79
81
78
78
50
51
55
63
66
55
2
114
122
95
71
72
87
70
83
80
86
80
81
79
69
85
80
86
84
81
80
80
79
78
76
80
79
74
75
71
69
76
68
67
67
60
74
63
56
70
44
48
49
48
49
51
52
51
50
48
50
51
51
53
53
55
55
55
57
59
53
42
42
44
38
31
43
40
32
36
40
31
38
55
54
57
39
51
148
112
12
12
27
29
25
30
22
33
28
12
8
17
16
14
5
6
44
37
16
8
14
13
0
68
107
37
105
50
49
62
122
54
60
70
71
68
68
66
71
39
72
42
62
60
73
0
68
76
61
51
52
59
56
60
68
59
55
62
68
67
71
62
65
67
67
67
67
69
69
70
74
76
74
77
74
73
78
69
72
82
69
70
80
96
86
22
10
19
21
23
24
24
21
19
24
24
24
26
30
31
32
31
30
27
43
55
44
38
40
36
38
31
36
34
32
33
45
43
38
32
37
16
57
139
121
11
10
25
25
22
26
18
31
27
11
8
14
14
11
17
2
39
44
46
41
41
39
42
20
6
53
112
35
28
32
121
51
56
64
63
60
60
58
55
57
83
13
89
62
60
23
16
23
20
20
15
12
30
20
11
13
12
16
11
15
5
10
9
11
12
12
10
12
15
15
19
23
21
25
24
21
24
20
14
24
19
17
17
29
39
7
15
16
14
15
16
17
15
14
21
18
17
17
19
19
17
16
15
6
33
58
44
32
36
38
15
8
21
20
15
23
57
17
82
75
84
44
83
124
107
10
10
23
22
18
23
12
26
25
9
6
13
14
14
5
0
43
33
24
17
21
23
23
20
5
61
93
32
32
17
113
45
51
59
56
54
57
55
55
39
81
12
85
52
56
13
23
21
21
25
18
16
52
29
15
41
30
30
18
34
0
17
20
19
20
19
18
17
17
18
19
26
22
22
23
19
23
22
17
10
5
18
16
10
25
26
15
14
11
10
11
15
17
21
14
13
11
14
18
19
17
15
16
3
30
56
36
25
35
34
12
15
24
15
14
22
65
12
84
74
85
45
65
105
113
10
8
21
21
16
21
8
23
22
7
5
11
13
11
7
2
51
21
8
6
13
13
3
8
4
54
95
32
26
13
104
38
46
52
49
48
52
50
48
33
78
4
91
45
54
5
19
18
20
21
15
18
57
24
19
60
26
35
36
70
0
23
12
15
17
19
19
20
19
17
7
19
14
13
17
11
13
11
20
13
7
13
15
12
16
11
18
14
11
10
11
14
17
21
11
10
8
11
16
18
14
11
16
5
29
47
28
22
35
29
5
18
20
13
21
14
47
11
94
63
67
58
51
91
110
8
6
20
21
15
20
8
23
21
6
4
11
11
9
8
0
47
11
6
9
14
9
10
0
8
62
95
0
0
6
109
36
41
46
42
43
47
43
34
42
71
0
95
41
50
2
14
19
19
18
10
17
39
11
11
56
17
30
37
67
0
12
8
12
13
15
16
17
15
11
8
20
13
13
20
15
14
17
13
14
15
15
11
10
16
24
14
14
15
16
15
17
16
16
16
13
12
13
17
18
14
10
14
9
29
39
24
22
30
23
9
13
15
17
27
8
27
17
79
49
64
85
52
76
101
7
5
19
18
14
19
9
22
18
4
3
9
10
7
3
0
53
13
4
0
6
12
1
0
6
54
83
0
0
0
110
33
34
39
37
39
42
39
34
25
43
17
52
31
57
0
7
13
12
13
6
17
16
5
13
39
21
27
26
34
11
12
7
10
11
12
13
13
15
14
10
21
8
5
14
11
10
15
15
8
9
13
18
13
7
14
14
14
14
14
15
15
13
12
13
11
11
12
17
18
17
13
13
10
25
34
25
20
22
19
14
11
15
18
16
8
16
15
35
31
46
57
9
21
46
6
4
17
15
11
16
8
21
15
1
2
10
10
6
5
0
41
12
20
16
17
17
24
11
0
50
72
0
0
0
95
24
29
32
32
33
37
35
26
37
6
28
30
31
30
10
11
12
8
10
6
14
2
11
7
13
14
16
11
5
21
12
0
6
8
9
8
9
11
12
21
27
7
0
11
8
9
16
7
12
12
5
6
10
9
13
13
14
12
13
13
14
14
14
13
11
11
11
13
14
12
7
13
9
19
30
24
17
17
21
8
6
18
13
2
17
17
0
33
45
47
30
0
9
33
8
1
16
15
3
11
7
16
12
0
7
7
1
9
1
0
27
21
8
16
9
0
62
57
41
31
32
51
36
51
50
5
20
27
30
29
30
31
14
1
39
45
49
32
45
57
26
14
32
21
27
20
33
22
23
27
23
28
16
34
17
19
14
16
18
19
18
14
13
13
21
21
18
15
15
14
13
11
14
10
12
9
3
7
13
8
20
24
21
24
11
22
21
18
17
19
20
19
19
19
21
21
21
16
24
19
13
17
14
17
11
12
12
10
12
12
12
9
25
29
28
11
2
11
30
8
0
16
8
2
13
1
16
12
0
3
6
3
8
3
0
39
7
0
2
0
0
85
0
47
45
23
16
31
33
53
4
15
22
25
23
23
24
19
0
34
57
37
27
44
47
18
10
22
23
31
27
21
25
27
24
21
31
20
19
26
27
28
28
26
26
26
27
26
27
21
25
25
23
24
25
25
22
22
22
28
28
24
23
30
37
18
5
2
14
18
21
10
6
13
13
12
11
12
13
15
16
14
10
23
21
9
11
12
12
14
13
12
13
12
14
15
12
15
20
22
16
7
8
23
6
0
18
3
3
10
2
16
10
0
0
7
5
7
0
0
46
0
0
0
0
0
82
0
66
73
12
0
0
0
75
8
13
18
20
19
19
17
5
28
40
0
5
25
20
0
3
4
7
6
5
13
4
9
7
10
4
15
14
4
13
4
11
11
10
8
10
12
10
2
15
13
12
11
12
15
15
11
14
11
16
18
15
17
26
38
20
0
0
0
0
0
1
21
1
2
2
2
3
3
2
0
0
0
23
30
11
10
14
10
2
6
8
8
8
7
8
8
5
4
7
10
6
3
21
4
0
18
2
8
5
5
14
3
1
0
4
1
0
2
0
36
0
0
0
0
0
91
0
51
68
13
0
0
22
63
2
10
13
16
15
17
15
0
20
25
0
15
19
32
0
0
9
6
0
0
12
23
0
0
16
0
0
4
12
1
1
3
7
5
1
5
9
7
2
0
1
2
1
1
5
5
4
5
2
4
3
0
2
6
4
18
0
6
6
8
0
0
20
0
0
2
5
7
7
4
3
0
0
22
28
5
7
13
7
2
6
7
8
7
7
8
12
0
0
0
5
4
4
19
2
0
13
3
10
1
2
5
0
10
10
11
10
12
6
5
15
0
2
0
0
0
58
0
55
63
7
0
0
29
54
0
7
9
12
11
13
12
3
20
0
0
43
3
25
0
3
5
0
1
4
4
42
0
0
26
0
0
5
31
0
9
3
5
4
2
5
10
4
0
2
2
2
1
2
3
5
1
7
3
5
5
2
2
4
0
10
0
5
0
1
0
7
18
0
0
0
3
7
6
1
0
2
0
19
24
2
5
11
4
0
3
4
6
5
6
10
18
0
0
0
2
5
8
16
0
5
7
2
7
0
4
1
0
15
11
7
4
5
1
7
6
1
13
5
0
0
50
0
42
52
11
0
0
0
68
1
6
6
9
9
12
12
0
33
0
0
52
10
16
0
5
1
0
5
2
0
38
0
9
28
0
0
17
47
0
3
1
3
3
2
5
7
2
0
0
2
2
0
1
3
4
3
3
1
3
3
2
2
5
2
4
1
4
0
0
0
8
4
3
1
1
2
5
4
2
0
0
0
15
19
4
5
8
2
0
1
3
3
5
4
8
16
0
0
0
0
1
9
17
0
20
8
0
0
0
0
2
0
18
8
6
3
0
10
11
7
0
4
4
0
0
58
0
31
51
0
0
0
0
68
0
5
4
6
6
7
7
5
4
0
2
15
7
32
0
0
1
3
1
0
0
15
8
13
23
0
0
13
41
0
0
0
1
0
2
5
5
2
1
0
1
0
0
0
3
2
0
8
1
1
1
0
0
4
3
0
6
0
10
0
0
6
5
0
0
1
2
4
3
1
0
4
0
10
11
0
2
5
7
0
0
2
3
4
1
1
1
3
6
3
0
0
7
19
