P2
125 125
255
94
127
140
144
145
145
145
146
148
149
151
153
154
155
155
155
156
156
157
158
158
157
156
156
157
158
157
156
153
149
144
139
135
133
132
132
131
130
130
130
130
130
131
130
127
125
126
128
131
133
134
131
128
125
123
122
122
123
124
124
125
126
126
126
125
123
122
122
121
121
120
119
120
122
124
125
126
126
126
126
126
126
126
126
126
126
126
125
124
124
125
126
126
125
124
125
125
125
124
123
123
124
124
124
124
123
123
123
123
123
123
123
123
123
124
124
124
123
122
120
119
118
116
105
78
94
126
139
142
143
144
144
145
146
147
149
150
152
153
153
153
153
154
155
156
157
156
155
155
156
157
157
157
155
152
148
144
141
138
137
136
134
132
130
131
130
127
124
123
126
130
132
133
140
151
156
149
136
128
123
121
122
123
125
126
127
127
127
125
124
123
122
121
122
123
124
124
124
124
124
123
122
122
123
123
124
124
125
126
126
126
126
125
124
124
124
124
124
124
125
126
127
128
127
127
127
127
127
127
126
126
126
125
124
123
122
122
122
122
122
123
122
122
122
121
120
119
116
105
78
93
125
138
142
142
143
144
144
144
144
145
147
148
149
150
150
150
151
152
153
153
152
152
152
153
154
155
155
154
152
150
147
145
143
141
138
135
133
132
132
132
131
130
127
129
137
154
170
170
151
133
125
122
120
118
118
118
119
121
122
123
124
124
124
123
122
122
122
122
122
124
125
125
125
124
123
123
123
125
126
127
128
129
129
130
130
129
129
128
127
126
125
126
126
127
128
130
130
130
130
130
130
129
128
127
126
125
125
124
123
123
123
123
123
124
124
124
124
122
121
120
118
115
104
77
93
125
138
141
142
143
143
143
142
142
143
143
144
145
146
147
147
148
149
149
149
149
149
150
151
151
151
151
151
151
150
149
147
145
142
139
136
135
135
134
132
132
138
155
181
208
224
223
201
168
140
127
121
119
117
115
113
113
113
113
112
111
108
106
105
104
103
103
103
105
108
111
113
115
115
116
117
118
119
120
120
121
122
122
123
124
125
126
126
127
127
128
129
129
130
131
132
133
133
133
133
132
130
128
127
126
125
124
123
122
122
122
123
123
123
124
124
123
122
120
119
118
116
105
78
93
125
138
141
142
142
142
142
142
142
142
142
143
143
143
144
144
145
146
147
147
147
146
147
147
147
146
146
147
148
147
146
145
142
139
137
137
136
137
141
153
175
200
219
227
227
223
214
189
155
128
116
114
116
118
119
120
120
120
120
121
123
124
126
127
128
127
126
124
122
119
117
115
113
110
107
105
105
106
107
108
108
108
108
109
109
111
112
114
118
122
125
126
127
129
131
132
133
134
135
135
133
130
127
125
124
123
122
122
121
121
121
121
121
121
122
122
122
122
123
123
123
120
110
82
92
124
137
140
141
141
141
141
141
142
142
142
142
141
141
141
141
142
143
145
145
145
144
143
143
142
141
141
142
143
143
143
141
138
136
136
141
153
173
195
212
221
222
220
217
215
213
205
183
152
128
117
113
112
112
114
114
115
117
118
118
119
119
119
120
121
121
120
119
120
120
120
120
120
120
119
118
118
118
119
118
117
117
116
115
114
113
113
115
121
127
132
133
133
132
131
131
132
133
134
134
132
129
127
126
124
123
122
121
121
121
121
121
122
122
123
123
123
124
125
125
126
124
113
84
92
123
136
138
137
137
137
138
139
140
140
140
140
140
139
139
139
139
140
140
140
140
140
138
137
138
140
141
141
141
141
144
148
155
164
178
193
207
217
221
220
216
212
209
206
204
204
197
176
147
125
117
115
114
114
113
113
113
114
115
116
116
117
118
118
118
118
118
117
117
117
116
116
115
115
115
115
115
116
117
117
117
116
116
117
118
119
119
120
126
134
137
135
133
133
133
133
133
132
132
132
132
132
131
132
132
130
128
127
127
126
123
122
122
124
125
127
129
130
131
132
133
131
119
89
89
120
133
135
135
134
134
135
136
137
138
138
137
137
137
137
137
138
138
138
138
137
137
137
136
134
132
130
131
135
144
159
177
194
204
210
211
210
208
206
205
204
202
199
198
198
196
189
170
143
124
116
115
114
115
115
115
114
114
114
114
113
112
112
113
114
115
116
117
116
114
113
113
114
115
116
116
115
113
112
112
113
114
114
115
114
115
118
123
129
134
136
136
136
136
135
134
134
133
132
132
134
135
134
131
126
120
114
113
116
119
120
122
125
127
126
124
125
127
130
132
134
132
121
90
88
118
131
134
133
133
132
132
133
134
134
134
134
134
134
134
135
135
135
135
136
135
135
134
134
134
135
142
153
167
183
195
203
206
207
206
205
205
206
205
202
200
198
196
195
196
195
188
167
140
121
116
117
117
115
113
111
110
110
110
112
113
115
115
114
113
112
110
110
111
113
114
115
114
114
113
112
112
112
112
112
111
112
112
112
112
111
110
112
122
135
143
143
140
136
132
130
131
134
138
140
138
132
124
115
105
92
80
72
68
66
69
83
103
121
132
136
136
135
134
134
134
132
120
89
87
117
130
132
132
131
130
129
129
130
130
131
131
131
131
131
132
132
132
133
133
134
135
136
141
149
160
173
185
193
198
201
201
200
197
194
193
194
195
195
194
193
194
194
194
192
190
182
162
135
119
115
116
117
117
117
116
116
115
114
114
114
114
113
112
112
111
111
110
109
107
106
106
107
108
109
110
110
110
111
110
110
110
109
109
109
110
112
118
128
137
142
141
142
143
143
141
135
127
116
106
101
101
102
100
95
85
75
69
68
69
75
89
111
131
141
143
141
139
137
136
135
132
119
88
84
114
126
129
128
127
126
125
126
126
126
127
127
127
127
127
127
128
128
129
129
131
135
143
157
172
184
190
192
191
190
189
190
190
190
189
189
188
187
187
188
188
187
186
188
190
190
182
161
134
119
119
121
121
120
119
119
118
117
116
115
115
115
114
114
113
112
112
111
111
111
111
110
110
110
110
109
109
108
108
108
108
108
108
109
109
108
110
115
126
140
150
153
147
135
122
110
102
97
97
98
98
98
99
99
96
88
80
74
71
69
71
84
107
128
139
142
141
139
137
136
135
131
119
88
81
110
121
124
123
122
121
121
121
122
122
123
123
122
122
122
123
124
125
125
126
127
132
144
162
178
184
184
182
181
182
183
181
179
178
178
179
180
181
181
181
181
181
181
180
178
169
156
137
115
98
89
87
90
95
99
102
104
105
105
106
107
107
108
108
108
109
109
109
109
109
108
108
108
108
107
108
108
108
108
108
107
107
107
106
105
104
104
107
113
119
119
113
104
98
95
94
94
94
93
93
93
94
95
94
88
79
71
67
67
70
74
87
106
124
132
133
132
131
130
130
130
127
116
86
78
105
116
117
117
116
116
116
116
117
117
117
117
117
117
117
118
119
121
121
122
124
128
139
155
167
171
169
168
168
169
170
172
173
173
172
170
168
168
167
167
167
166
162
158
150
132
113
102
90
71
48
32
26
25
26
26
27
29
30
32
35
38
42
46
50
54
58
63
68
74
79
83
87
92
95
98
101
102
103
103
104
105
105
106
107
107
103
92
75
60
52
52
54
57
58
60
63
66
68
72
76
81
86
88
85
79
72
68
66
64
66
79
99
117
126
128
127
126
125
125
125
123
112
84
76
101
111
113
112
111
111
111
111
112
112
112
112
112
112
112
113
114
115
116
117
118
121
131
146
158
163
162
161
161
162
163
163
163
164
164
164
164
163
162
160
154
140
122
119
126
122
110
100
89
71
52
40
36
35
33
31
29
27
27
26
24
22
21
21
21
22
22
21
20
18
18
19
20
22
24
25
27
29
31
34
38
42
46
49
54
62
71
75
72
65
61
60
60
62
64
66
67
68
69
71
74
79
84
87
86
79
71
66
64
65
69
82
102
118
125
125
124
124
123
123
123
121
110
82
73
97
107
108
108
107
106
106
106
107
108
108
108
107
107
108
109
109
109
109
110
111
114
123
138
151
156
155
153
152
152
153
153
153
153
153
151
145
138
139
145
144
132
117
115
121
117
106
98
88
73
55
43
37
35
34
33
32
31
30
29
27
26
25
24
24
25
25
25
24
23
22
22
23
25
25
25
24
23
22
22
22
21
21
26
39
58
73
75
67
60
56
56
57
58
60
61
63
64
66
68
72
77
83
86
83
76
70
66
65
65
68
81
101
117
124
125
125
125
124
123
123
120
109
81
69
92
101
103
104
104
103
104
104
104
104
103
103
102
103
103
104
104
105
105
105
105
108
117
131
142
146
147
147
147
147
147
144
138
124
102
77
63
72
100
124
131
121
108
107
114
110
99
93
87
81
75
69
64
58
52
45
38
34
32
31
30
28
26
25
25
26
26
26
25
25
23
22
22
22
22
23
24
26
27
27
27
26
27
32
46
65
78
76
66
57
52
51
52
53
54
55
56
57
58
60
64
70
76
80
80
74
68
65
64
64
67
79
98
114
120
122
121
121
121
121
121
119
108
80
65
88
97
99
100
100
100
99
99
98
98
97
96
96
97
97
98
99
100
100
100
102
106
115
127
137
140
139
137
136
134
127
107
77
51
37
34
41
64
96
120
127
116
102
100
105
103
94
86
76
60
44
35
35
38
40
38
35
33
31
31
31
30
29
29
29
29
29
28
27
25
23
23
23
23
23
24
24
24
24
25
25
26
29
36
50
66
76
72
61
51
47
47
47
48
49
49
50
50
51
53
57
63
70
75
76
70
64
62
61
61
65
77
95
110
116
117
116
116
116
117
117
115
105
78
62
83
92
94
94
94
94
93
93
93
92
92
91
91
92
92
93
93
93
92
92
92
95
102
113
123
127
124
122
123
124
117
98
75
60
55
53
54
68
92
112
121
121
119
119
113
100
87
82
73
56
37
25
22
23
24
26
28
29
29
29
29
30
30
30
30
30
30
29
28
26
26
28
29
28
26
25
25
25
25
25
25
24
27
35
49
63
70
65
55
47
44
44
45
45
46
46
47
47
48
50
54
59
66
71
72
67
61
58
57
57
61
72
90
104
109
110
110
109
110
110
110
109
99
73
59
79
87
89
89
89
88
88
88
88
88
89
88
88
88
89
89
88
87
86
86
87
91
96
103
107
105
96
88
92
103
105
93
75
63
58
57
59
70
90
108
116
118
118
117
109
95
82
75
65
49
32
21
19
20
22
24
25
25
26
26
27
27
27
27
27
27
27
27
27
29
35
42
50
56
60
62
62
61
59
56
53
50
50
55
63
70
71
63
52
44
41
41
41
42
42
43
44
44
45
47
50
55
61
66
67
62
57
55
54
54
58
69
85
98
102
103
102
102
103
103
103
101
91
68
55
74
82
83
83
82
82
82
82
82
83
83
83
84
84
85
85
84
82
81
82
83
84
84
82
81
83
83
82
90
100
100
86
69
58
54
53
54
64
82
98
106
109
109
107
101
88
76
69
60
44
29
20
19
19
20
21
22
22
23
24
24
25
25
25
26
25
25
24
24
25
28
33
37
40
41
43
44
46
47
46
44
43
44
50
59
66
66
59
49
42
39
38
39
39
40
41
41
41
42
43
46
50
56
60
60
57
54
52
51
51
54
65
80
92
96
96
96
96
96
96
96
94
85
63
51
69
76
77
77
77
76
76
76
76
77
78
78
78
79
80
80
79
78
77
77
77
78
80
80
79
82
81
77
82
91
92
80
63
53
51
52
55
66
83
94
98
99
100
98
92
80
69
64
55
40
26
18
17
18
19
20
21
21
21
21
21
22
23
24
24
24
23
23
23
23
26
30
34
36
37
38
38
38
39
39
40
40
42
48
56
61
60
54
45
39
36
36
37
38
38
39
39
39
39
40
42
46
51
53
53
51
49
48
48
48
51
61
75
85
88
88
88
88
88
88
88
86
78
58
47
63
70
71
72
72
72
72
72
72
72
73
73
73
74
74
73
73
73
72
73
73
75
76
74
73
76
76
74
79
87
86
75
60
51
49
49
53
62
77
88
93
94
94
93
87
75
65
60
54
46
39
34
31
29
27
25
23
22
21
20
20
20
20
21
21
21
20
20
20
20
23
27
30
32
33
33
33
33
33
33
33
32
33
38
47
55
56
51
42
36
33
34
35
36
37
37
37
37
37
37
39
43
47
49
48
46
44
43
43
43
47
56
69
78
81
81
80
80
80
80
79
78
71
53
44
58
64
65
65
65
66
66
66
67
67
67
68
68
68
68
68
68
68
67
67
67
68
69
68
68
74
82
86
87
85
80
69
56
49
47
48
50
57
71
81
84
82
75
67
62
58
56
53
48
42
37
35
35
36
37
36
36
37
37
36
32
25
20
18
19
19
19
19
19
19
21
24
27
28
30
30
30
30
31
31
30
28
29
33
42
50
52
47
39
33
31
31
32
33
33
33
33
33
33
34
35
38
41
43
43
41
40
39
38
39
42
51
63
71
74
74
73
73
72
72
72
70
63
46
39
53
59
61
61
61
60
60
60
61
62
62
62
62
63
63
62
62
61
61
61
62
63
64
62
62
68
75
79
79
78
74
63
51
45
44
44
46
54
65
73
72
63
51
43
44
48
51
49
43
36
30
27
26
26
26
26
26
25
25
26
27
24
21
18
18
18
18
17
17
17
18
20
21
23
24
24
25
25
26
26
26
25
26
30
37
45
47
43
37
33
31
31
31
31
32
32
32
32
32
32
32
33
35
37
38
38
37
37
37
36
39
45
56
63
66
66
66
65
65
64
64
62
57
42
36
49
53
54
53
53
53
54
55
56
57
57
57
57
57
57
57
57
57
58
58
59
60
60
57
57
62
69
72
73
71
67
58
47
42
41
41
43
49
59
66
65
58
47
39
39
43
45
44
40
35
31
28
25
24
24
24
23
22
23
25
27
25
21
18
16
16
16
16
15
15
16
17
18
18
18
18
18
17
17
18
19
20
23
28
35
42
42
37
30
25
24
24
26
27
28
28
28
28
28
29
30
31
32
32
32
31
31
32
32
32
33
39
48
54
56
56
56
57
57
57
57
56
50
36
33
45
49
50
51
52
52
52
51
51
51
51
52
52
52
53
54
55
55
56
57
58
58
57
54
52
56
62
65
65
64
60
52
44
39
38
38
41
46
54
60
61
55
45
38
37
40
41
41
38
35
32
30
26
23
21
21
20
19
21
23
25
23
19
16
15
14
14
15
15
15
15
15
16
16
15
15
15
15
15
15
16
17
18
23
31
39
41
38
34
31
30
29
29
28
28
28
28
28
28
28
28
28
28
29
30
30
30
29
29
29
32
39
46
49
49
46
42
39
36
38
43
46
44
33
31
43
50
54
57
59
58
56
54
53
52
51
50
50
50
51
52
53
54
55
55
55
55
53
49
48
52
57
60
60
59
55
47
39
35
34
36
40
46
53
56
55
49
40
34
33
36
38
38
34
31
29
28
25
22
20
20
19
19
19
22
23
21
16
14
13
13
13
13
14
14
14
15
15
15
15
15
14
14
14
15
16
17
19
23
29
35
36
34
30
27
26
25
25
25
25
25
25
25
25
25
26
26
26
26
26
25
25
25
25
25
24
24
25
27
29
33
37
40
41
42
44
45
42
32
31
44
51
55
57
58
58
57
56
54
54
53
51
50
50
50
51
52
52
52
52
52
51
48
42
38
36
36
38
44
49
48
42
35
32
32
35
39
45
50
52
50
45
38
33
34
38
39
36
31
25
22
20
18
17
17
17
17
18
19
20
21
17
13
11
10
10
10
11
12
12
13
14
15
14
14
13
13
13
13
14
15
16
18
21
27
32
33
29
24
21
19
19
20
20
20
20
20
20
19
19
19
19
18
18
18
19
19
21
22
23
23
22
21
20
19
19
19
19
19
20
22
23
22
17
31
43
48
50
50
50
50
50
50
50
50
49
49
48
48
48
48
48
48
48
47
47
45
42
38
33
30
29
33
40
45
44
38
32
29
29
31
34
38
43
46
45
40
32
29
33
40
41
36
29
23
19
16
15
15
15
15
15
15
15
16
15
13
11
9
9
9
9
10
10
11
12
13
14
13
13
13
13
13
13
13
13
14
15
17
21
24
26
24
21
19
17
17
17
17
17
17
18
18
17
17
17
17
18
18
17
15
12
9
7
7
7
8
10
11
13
14
16
17
18
18
17
16
14
11
29
40
43
44
45
45
46
45
45
45
44
44
44
44
44
43
43
43
43
43
42
42
41
38
33
29
26
26
30
36
40
39
34
28
25
24
24
25
29
36
40
40
35
29
27
30
36
37
32
27
24
22
22
22
21
21
20
20
19
17
15
14
13
11
10
9
9
9
9
9
10
11
12
13
12
12
11
11
11
11
12
12
13
15
18
21
24
25
23
19
17
16
16
16
16
16
16
16
16
15
15
15
15
15
15
14
14
12
11
11
11
10
10
10
10
10
10
10
10
10
11
14
17
19
16
26
35
39
40
40
40
40
40
40
40
39
39
39
39
39
39
38
38
38
38
37
37
36
33
30
26
24
24
27
32
36
35
30
25
22
20
17
16
20
28
34
35
32
26
24
27
32
33
29
26
24
25
27
28
28
28
28
28
28
28
28
28
28
28
28
28
28
27
27
26
25
25
24
23
22
20
18
16
15
14
13
12
13
14
18
21
23
22
20
18
15
14
14
14
14
14
14
14
14
14
14
14
14
14
14
14
13
12
11
11
11
11
10
10
10
11
12
12
12
14
19
25
30
29
22
23
31
35
35
35
35
35
35
35
35
34
34
34
34
33
33
33
33
33
32
32
32
31
29
26
23
22
22
25
29
32
31
27
22
20
18
15
14
18
26
31
32
28
24
22
23
25
25
22
19
16
14
14
15
15
16
16
17
17
18
19
20
21
22
22
23
23
24
24
24
24
24
24
24
25
25
25
25
25
24
23
23
22
22
21
21
21
20
18
15
13
13
12
12
12
12
12
12
12
12
11
11
12
12
12
12
11
10
10
11
11
11
11
11
10
10
10
10
11
13
18
23
25
24
18
20
28
30
31
31
31
31
31
30
30
29
29
29
28
28
28
28
28
28
28
28
28
28
26
23
20
19
19
22
25
28
27
24
20
18
17
18
21
25
28
29
28
25
21
18
19
19
19
18
16
12
9
8
8
8
8
7
7
7
7
7
6
6
5
5
5
6
6
7
8
8
9
10
11
11
12
13
14
15
16
17
18
19
19
19
19
18
18
16
14
12
11
11
11
11
11
10
10
10
9
9
9
9
9
9
9
9
9
9
10
10
10
10
10
10
10
11
11
11
12
14
19
22
21
16
18
25
27
28
28
28
27
27
26
25
25
24
24
24
24
24
24
25
25
25
25
25
25
25
24
21
19
18
19
23
25
24
20
17
16
18
22
24
25
26
26
25
22
18
16
16
16
17
16
14
11
8
7
7
7
7
7
7
6
6
6
6
6
5
5
4
4
4
4
4
5
5
5
6
6
6
6
6
5
5
5
5
5
5
6
8
12
14
14
12
11
10
10
10
10
10
10
10
10
8
7
5
5
5
5
6
6
7
7
8
8
9
9
9
9
8
8
8
9
10
11
13
14
12
9
16
22
24
25
24
24
23
23
22
22
21
21
21
20
21
21
21
22
22
22
23
22
22
22
22
21
18
16
17
20
22
21
18
15
14
15
16
17
19
21
23
22
19
15
13
14
15
15
14
12
9
7
6
6
6
6
6
6
6
6
6
6
6
6
5
5
4
4
4
4
5
5
6
6
6
5
5
5
5
5
6
6
6
6
7
9
12
13
13
12
11
10
10
10
10
10
10
10
10
10
11
11
11
11
11
10
9
8
8
7
7
7
8
7
7
7
7
7
8
8
8
10
10
10
7
13
18
20
20
20
20
19
19
19
18
18
18
18
18
18
18
19
19
19
20
20
20
20
20
20
18
16
14
15
18
19
18
16
13
12
13
15
16
18
19
20
18
15
12
11
11
12
13
12
10
8
6
5
5
6
6
6
6
5
5
5
6
6
5
4
4
4
4
4
4
4
5
5
5
5
5
5
5
5
5
5
5
5
5
6
8
11
12
11
9
8
7
7
7
7
8
8
8
8
8
9
9
9
9
10
10
10
10
10
9
9
9
9
8
7
6
6
6
6
7
7
8
8
7
6
11
14
16
16
16
16
16
16
16
15
15
15
16
16
16
16
16
16
17
17
17
17
17
17
17
16
14
12
13
15
16
16
14
12
11
11
12
14
15
17
17
16
13
10
9
10
11
11
10
9
7
5
4
4
4
5
5
5
4
4
5
5
4
4
3
3
3
3
3
4
4
4
4
4
4
4
4
4
4
5
5
4
4
5
5
7
9
10
9
6
5
4
4
5
5
5
5
4
3
3
3
3
3
4
4
4
4
5
5
5
5
5
5
6
6
6
6
6
7
7
7
7
6
6
4
9
12
13
13
13
13
13
13
13
13
13
13
13
13
13
14
14
14
14
14
14
14
14
13
12
10
9
9
11
13
14
14
12
10
10
10
11
12
14
15
15
14
12
10
10
11
12
12
10
8
6
4
4
4
4
4
4
4
4
3
3
3
3
3
3
2
3
3
3
3
3
3
3
3
3
3
3
3
4
4
4
4
4
4
5
6
8
9
8
6
4
4
4
5
5
5
5
4
4
4
4
5
5
5
4
4
4
4
4
3
3
3
3
3
3
2
2
3
3
3
3
4
4
5
4
8
10
11
11
11
11
11
11
11
11
11
11
11
11
12
12
12
12
12
12
12
12
12
11
10
8
8
8
9
11
12
12
10
9
9
9
9
10
11
12
13
13
13
13
13
13
13
12
10
7
5
4
3
3
3
3
3
3
3
3
3
3
3
3
2
2
2
2
2
2
2
2
2
2
3
3
3
3
3
3
4
4
4
4
4
5
6
7
7
5
4
3
4
4
4
4
4
3
3
3
3
3
4
3
3
4
4
4
4
4
4
4
4
3
3
3
3
3
4
5
7
8
9
9
7
6
9
9
10
10
10
10
9
9
9
9
9
9
10
10
10
10
10
10
10
10
10
10
9
8
7
7
7
8
10
10
10
8
6
5
5
6
7
8
10
11
11
11
11
11
11
11
10
8
7
7
7
7
7
6
6
6
6
5
5
5
4
4
4
3
3
3
3
3
3
2
2
2
2
2
2
2
3
3
3
3
3
3
4
4
4
5
6
6
5
4
4
4
4
4
4
3
3
3
3
3
3
3
3
3
3
4
4
4
4
4
4
4
3
3
3
3
4
4
5
6
7
8
7
5
5
7
8
8
8
8
8
8
8
7
7
7
8
8
8
8
8
8
8
8
8
8
8
8
7
6
6
6
7
9
9
8
6
4
3
3
4
5
7
8
9
9
9
9
10
10
10
9
8
7
6
7
7
7
7
7
7
7
7
7
7
7
7
7
7
7
7
7
7
7
6
6
6
6
5
5
5
5
4
4
4
4
4
4
4
4
5
5
5
4
3
3
3
3
3
3
3
3
3
3
3
3
3
3
3
3
3
3
3
3
3
3
3
3
3
3
3
3
4
4
5
6
7
6
4
4
6
6
7
7
7
7
7
6
6
6
6
6
6
7
7
7
7
7
7
7
7
7
6
6
5
5
5
6
7
7
7
6
5
5
5
5
5
5
7
8
8
8
8
7
5
4
3
2
1
1
2
2
2
2
3
3
3
3
3
4
4
4
4
4
5
5
5
5
5
5
5
5
5
6
6
6
6
6
6
6
6
6
6
6
6
6
5
4
3
3
3
3
3
3
3
2
2
2
2
2
2
2
2
2
2
3
3
3
3
3
3
3
3
3
3
3
3
3
4
4
4
4
4
3
4
5
5
6
6
6
6
6
5
5
5
5
5
6
6
6
6
6
6
6
6
6
6
6
6
7
7
7
7
7
7
6
5
4
4
4
4
4
5
5
5
4
3
3
3
3
3
2
2
1
1
1
1
1
1
1
1
1
1
1
1
1
1
1
1
1
1
1
1
1
1
1
1
1
1
1
2
2
2
2
2
2
3
3
3
3
4
4
4
3
3
3
3
3
3
3
3
3
3
3
3
3
3
3
3
3
3
3
3
3
3
3
2
2
2
2
2
2
2
2
3
3
3
3
2
3
4
5
5
5
5
5
5
5
5
5
5
5
5
5
5
5
5
5
5
5
5
5
5
6
6
6
5
4
4
3
3
3
3
3
3
3
3
3
3
3
3
3
3
3
3
2
2
2
2
2
2
2
2
2
2
2
2
1
1
1
1
1
1
1
1
1
1
1
1
1
1
1
1
1
1
1
1
1
1
1
1
1
1
1
1
1
2
2
2
2
2
2
2
2
2
2
2
2
2
2
2
2
2
3
3
3
3
2
2
2
2
2
2
2
2
2
2
2
2
2
2
3
2
2
3
3
4
4
4
4
4
4
4
4
4
4
4
4
4
4
4
4
4
4
4
4
4
4
5
5
5
4
3
3
4
4
4
3
3
3
3
3
3
3
2
2
2
3
3
2
2
2
1
1
1
1
2
2
2
2
2
1
1
1
1
1
1
1
1
1
1
1
1
1
1
1
1
1
1
1
1
1
1
1
1
1
1
1
1
1
1
1
1
1
1
1
1
1
1
1
1
1
1
1
1
1
1
1
1
1
2
2
2
2
2
2
2
2
2
2
2
2
2
2
2
2
2
2
1
2
3
3
3
3
3
3
3
3
3
3
3
3
3
3
3
3
3
3
3
3
3
3
4
4
4
4
3
3
2
2
2
2
2
2
2
2
2
2
2
2
2
2
2
2
2
2
1
1
1
1
1
1
2
2
2
1
1
1
1
2
2
1
1
1
1
1
1
1
1
1
1
1
1
1
1
1
1
1
1
1
1
1
1
1
1
1
1
1
1
1
1
1
1
1
1
1
1
1
1
1
1
1
1
1
1
1
2
2
2
2
1
1
1
1
1
1
1
1
1
1
1
1
1
1
2
2
3
3
3
3
3
3
3
3
3
3
3
3
3
3
3
3
3
3
3
3
2
2
2
2
2
2
2
2
2
2
2
2
2
2
2
2
2
2
2
2
2
2
2
2
1
1
1
1
1
1
1
2
2
2
2
1
1
1
1
1
1
1
1
1
1
1
1
1
1
1
1
1
1
1
1
1
1
1
1
1
1
1
1
1
1
1
1
1
1
1
1
1
1
1
1
1
1
1
1
1
1
1
1
1
1
1
1
1
1
1
1
1
1
1
1
1
1
1
2
2
3
3
2
1
2
2
2
2
2
2
2
2
2
2
2
2
2
2
2
2
2
2
2
2
2
2
2
2
2
2
2
2
2
2
2
2
2
2
2
2
2
2
2
2
1
1
1
1
1
1
1
1
1
1
1
1
1
2
2
1
1
1
1
1
1
1
1
1
1
1
1
1
1
1
1
1
1
1
1
1
1
1
1
1
1
1
1
1
1
1
1
1
1
1
1
1
1
1
1
1
1
1
1
1
1
1
1
1
1
1
1
1
1
1
1
1
1
1
1
1
1
1
1
2
3
3
2
2
1
2
2
2
2
2
2
2
2
2
2
2
2
2
2
2
2
2
2
2
2
2
2
2
2
2
2
1
1
1
1
1
1
1
1
1
1
1
1
1
1
1
1
1
1
1
1
1
1
1
1
1
1
1
1
1
1
1
1
1
1
1
1
0
0
0
0
0
0
0
0
1
1
1
1
1
1
1
1
1
1
1
1
1
1
1
1
1
1
1
1
1
1
1
1
1
1
1
1
1
1
1
1
1
1
1
1
1
1
1
1
1
1
1
1
1
1
1
1
1
2
2
2
2
2
1
1
1
1
1
1
1
1
1
1
1
1
1
1
1
1
1
1
1
1
1
1
1
1
1
1
1
1
1
1
1
1
1
1
1
1
1
1
1
1
1
1
1
1
1
2
2
2
2
1
1
1
1
1
1
1
1
1
1
1
1
1
1
1
1
1
1
1
1
1
1
1
1
1
1
1
1
1
1
1
0
0
0
0
0
0
0
1
1
1
1
1
1
1
0
0
1
1
1
1
1
1
1
1
1
1
1
1
1
1
1
1
1
1
1
1
1
1
1
1
1
2
2
2
1
1
1
1
1
1
1
1
1
1
1
1
1
1
1
1
1
1
1
1
1
1
1
1
1
1
1
1
1
1
1
1
1
1
1
1
1
1
1
1
1
1
1
1
2
2
2
2
1
1
1
1
1
1
1
1
1
1
1
1
1
1
1
1
1
1
1
1
1
1
1
1
1
1
1
1
1
1
1
1
1
1
1
1
1
1
1
1
1
1
1
1
1
1
1
1
1
1
1
1
1
1
0
0
0
0
1
1
1
1
1
1
0
0
0
0
1
1
1
1
1
1
1
1
1
1
1
1
1
1
1
1
1
1
1
1
1
1
1
1
1
1
1
1
1
1
1
1
1
1
1
1
1
1
1
1
1
1
1
1
1
1
1
1
1
1
1
1
1
1
1
1
1
1
1
1
0
0
0
0
0
0
0
0
0
0
0
0
0
1
1
1
1
1
1
1
1
1
1
1
1
1
1
1
1
1
1
1
1
1
1
1
1
1
1
1
1
1
1
1
1
1
1
1
1
1
1
1
1
1
1
1
1
1
1
0
0
0
0
0
0
0
0
0
0
1
1
1
1
1
1
1
1
1
1
1
1
1
1
1
1
1
1
1
1
1
1
1
1
1
1
1
1
1
1
1
1
1
1
1
1
1
1
0
0
0
0
0
0
0
0
1
1
1
1
1
1
1
1
1
1
0
0
0
0
0
0
0
0
0
0
0
0
0
0
0
0
0
0
0
0
0
0
0
0
0
0
0
0
0
0
0
0
0
0
0
0
0
0
0
0
0
0
0
0
0
0
0
0
0
0
0
0
0
0
0
0
0
0
0
0
0
0
0
0
0
0
0
0
0
0
0
0
0
0
0
0
1
1
1
1
1
1
1
1
1
1
1
1
1
1
1
1
1
1
1
1
1
1
1
1
1
1
1
1
0
0
0
0
0
0
0
0
0
0
0
0
1
1
1
1
1
1
1
1
1
0
0
0
0
0
0
0
0
0
0
0
0
0
0
0
0
0
0
0
0
0
0
0
0
0
0
0
0
0
0
0
0
0
0
0
0
0
0
0
0
0
0
0
0
0
0
0
0
0
0
0
0
0
0
0
0
0
0
0
0
0
0
0
0
0
0
0
0
0
0
0
0
0
0
0
0
0
1
1
1
1
1
1
1
1
1
1
1
1
1
1
1
1
1
1
1
1
1
1
1
1
1
1
0
0
0
0
0
0
0
0
0
0
0
0
0
0
1
1
1
1
1
0
0
0
0
0
0
0
0
0
0
0
0
0
0
0
0
0
0
0
0
0
0
0
0
0
0
0
0
0
0
0
0
0
0
0
0
0
0
0
0
0
0
0
0
0
0
0
0
0
0
0
0
0
0
0
0
0
0
0
0
0
0
0
0
0
0
0
0
0
0
0
0
0
0
0
0
0
0
0
0
0
0
0
0
0
0
0
0
0
0
0
0
0
0
0
0
0
0
0
0
0
0
0
0
0
0
0
0
0
0
0
0
0
0
0
0
0
0
0
0
0
0
1
0
0
0
0
0
0
0
0
0
0
0
0
0
0
0
0
0
0
0
0
0
0
0
0
0
0
0
0
0
0
0
0
0
0
0
0
0
0
0
0
0
0
0
0
0
0
0
0
0
0
0
0
0
0
0
0
0
0
0
0
0
0
0
0
0
0
0
0
0
0
0
0
0
0
0
0
0
0
0
0
0
0
0
0
0
0
0
0
0
0
0
0
0
0
0
0
0
0
0
0
0
0
0
0
0
0
0
0
0
0
0
0
0
0
0
0
0
0
0
0
0
0
0
0
0
0
0
0
0
0
0
0
0
0
0
0
0
0
0
0
0
0
0
0
0
0
0
0
0
0
0
0
0
0
0
0
0
0
0
0
0
0
0
0
0
0
0
0
0
0
0
0
0
0
0
0
0
0
0
0
0
0
0
0
0
0
0
0
0
0
0
0
0
0
0
0
0
0
0
0
0
0
0
0
0
0
0
0
0
0
0
0
0
0
0
0
0
0
0
0
0
0
0
0
0
0
0
0
0
0
0
0
0
0
0
0
0
0
0
0
0
0
0
0
0
0
0
0
0
0
0
0
0
0
0
0
0
0
0
0
0
0
0
0
0
0
0
0
0
0
0
0
0
0
0
0
0
0
0
0
0
0
0
0
0
0
0
0
0
0
0
0
0
0
0
0
0
0
0
0
0
0
0
0
0
0
0
0
0
0
0
0
0
0
0
0
0
0
0
0
0
0
0
0
0
0
0
0
0
0
0
0
0
0
0
0
0
0
0
0
0
0
0
0
0
0
0
0
0
0
0
0
0
0
0
0
0
0
0
0
0
0
0
0
0
0
0
0
0
0
0
0
0
0
0
0
0
0
0
0
0
0
0
0
0
0
0
0
0
0
0
0
0
0
0
0
0
0
0
0
0
0
0
0
0
0
0
0
0
0
0
0
0
0
0
0
0
0
0
0
0
0
0
0
0
0
0
0
0
0
0
0
0
0
0
0
0
0
0
0
0
0
0
0
0
0
0
0
0
0
0
0
0
0
0
0
0
0
0
0
0
0
0
0
0
0
0
0
0
0
0
0
0
0
0
0
0
0
0
0
0
0
0
0
0
0
0
0
0
0
0
0
0
0
0
0
0
0
0
0
0
0
0
0
0
0
0
0
0
0
0
0
0
0
0
0
0
0
0
0
0
0
0
0
0
0
0
0
0
0
0
0
0
0
0
0
0
0
0
0
0
0
0
0
0
0
0
0
0
0
0
0
0
0
0
0
0
0
0
0
0
0
0
0
0
0
0
0
0
0
0
0
0
0
0
0
0
0
0
0
0
0
0
0
0
0
0
0
0
0
0
0
0
0
0
0
0
0
0
0
0
0
0
0
0
0
0
0
0
0
0
0
0
0
0
0
0
0
0
0
0
0
0
0
0
0
0
0
0
0
0
0
0
0
0
0
0
0
0
0
0
0
0
0
0
0
0
0
0
0
0
0
0
0
0
0
0
0
0
0
0
0
0
0
0
0
0
0
0
0
0
0
0
0
0
0
0
0
0
0
0
0
0
0
0
0
0
0
0
0
0
0
0
0
0
0
0
0
0
0
0
0
0
0
0
0
0
0
0
0
0
0
0
0
0
0
0
0
0
0
0
0
0
0
0
0
0
0
0
0
0
0
0
0
0
0
0
0
0
0
0
0
0
0
0
0
0
0
0
0
0
0
0
0
0
0
0
0
0
0
0
0
0
0
0
0
0
0
0
0
0
0
0
0
0
0
0
0
0
0
0
0
0
0
0
0
0
0
0
0
0
0
0
0
0
0
0
0
0
0
0
0
0
0
0
0
0
0
0
0
0
0
0
0
0
0
0
0
0
0
0
0
0
0
0
0
0
0
0
0
0
0
0
0
0
0
0
0
0
0
0
0
0
0
0
0
0
0
0
0
0
0
0
0
0
0
0
0
0
0
0
0
0
0
0
0
0
0
0
0
0
0
0
0
0
0
0
0
0
0
0
0
0
0
0
0
0
0
0
0
0
0
0
0
0
0
0
0
0
0
0
0
0
0
0
0
0
0
0
0
0
0
0
0
0
0
0
0
0
0
0
0
0
0
0
0
0
0
0
0
0
0
0
0
0
0
0
0
0
0
0
0
0
0
0
0
0
0
0
0
0
0
0
0
0
0
0
0
0
0
0
0
0
0
0
0
0
0
0
0
0
0
0
0
0
0
0
0
0
0
0
0
0
0
0
0
0
0
0
0
0
0
0
0
0
0
0
0
0
0
0
0
0
0
0
0
0
0
0
0
0
0
0
0
0
0
0
0
0
0
0
0
0
0
0
0
0
0
0
0
0
0
0
0
0
0
0
0
0
0
0
0
0
0
0
0
0
0
0
0
0
0
0
0
0
0
0
0
0
0
0
0
0
0
0
0
0
0
0
0
0
0
0
0
0
0
0
0
0
0
0
0
0
0
0
0
0
0
0
0
0
0
0
0
0
0
0
0
0
0
0
0
0
0
0
0
0
0
0
0
0
0
0
0
0
0
0
0
0
0
0
0
0
0
0
0
0
0
0
0
0
0
0
0
0
0
0
0
0
0
0
0
0
0
0
0
0
0
0
0
0
0
0
0
0
0
0
0
0
0
0
0
0
0
0
0
0
0
0
0
0
0
0
0
0
0
0
0
0
0
0
0
0
0
0
0
0
0
0
0
0
0
0
0
0
0
0
0
0
0
0
0
0
0
0
0
0
0
0
0
0
0
0
0
0
0
0
0
0
0
0
0
0
0
0
0
0
0
0
0
0
0
0
0
0
0
0
0
0
0
0
0
0
0
0
0
0
0
0
0
0
0
0
0
0
0
0
0
0
0
0
0
0
0
0
0
0
0
0
0
0
0
0
0
0
0
0
0
0
0
0
0
0
0
0
0
0
0
0
0
0
0
0
0
0
0
0
0
0
0
0
0
0
0
0
0
0
0
0
0
0
0
0
0
0
0
0
0
0
0
0
0
0
0
0
0
0
0
0
0
0
0
0
0
0
0
0
0
0
0
0
0
0
0
0
0
0
0
0
0
0
0
0
0
0
0
0
0
0
0
0
0
0
0
0
0
0
0
0
0
0
0
0
0
0
0
0
0
0
0
0
0
0
0
0
0
0
0
0
0
0
0
0
0
0
0
0
0
0
0
0
0
0
0
0
0
0
0
0
0
0
0
0
0
0
0
0
0
0
0
0
0
0
0
0
0
0
0
0
0
0
0
0
0
0
0
0
0
0
0
0
0
0
0
0
0
0
0
0
0
0
0
0
0
0
0
0
0
0
0
0
0
0
0
0
0
0
0
0
0
0
0
0
0
0
0
0
0
0
0
0
0
0
0
0
0
0
0
0
0
0
0
0
0
0
0
0
0
0
0
0
0
0
0
0
0
0
0
0
0
0
0
0
0
0
0
0
0
0
0
0
0
0
0
0
0
0
0
0
0
0
0
0
0
0
0
0
0
0
0
0
0
0
0
0
0
0
0
0
0
0
0
0
0
0
0
0
0
0
0
0
0
0
0
0
0
0
0
0
0
0
0
0
0
0
0
0
0
0
0
0
0
0
0
0
0
0
0
0
0
0
0
0
0
0
0
0
0
0
0
0
0
0
0
0
0
0
0
0
0
0
0
0
0
0
0
0
0
0
0
0
0
0
0
0
0
0
0
0
0
0
0
0
0
0
0
0
0
0
0
0
0
0
0
0
0
0
0
0
0
0
0
0
0
0
0
0
0
0
0
0
0
0
0
0
0
0
0
0
0
0
0
0
0
0
0
0
0
0
0
0
0
0
0
0
0
0
0
0
0
0
0
0
0
0
0
0
0
0
0
0
0
0
0
0
0
0
0
0
0
0
0
0
0
0
0
0
0
0
0
0
0
0
0
0
0
0
0
0
0
0
0
0
0
0
0
0
0
0
0
0
0
0
0
0
0
0
0
0
0
0
0
0
0
0
0
0
0
0
0
0
0
0
0
0
0
0
0
0
0
0
0
0
0
0
0
0
0
0
0
0
0
0
0
0
0
0
0
0
0
0
0
0
0
0
0
0
0
0
0
0
0
0
0
0
0
0
0
0
0
0
0
0
0
0
0
0
0
0
0
0
0
0
0
0
0
0
0
0
0
0
0
0
0
0
0
0
0
0
0
0
0
0
0
0
0
0
0
0
0
0
0
0
0
0
0
0
0
0
0
0
0
0
0
0
0
0
0
0
0
0
0
0
0
0
0
0
0
0
0
0
0
0
0
0
0
0
0
0
0
0
0
0
0
0
0
0
0
0
0
0
0
0
0
0
0
0
0
0
0
0
0
0
0
0
0
0
0
0
0
0
0
0
0
0
0
0
0
0
0
0
0
0
0
0
0
0
0
0
0
0
0
0
0
0
0
0
0
0
0
0
0
0
0
0
0
0
0
0
0
0
0
0
0
0
0
0
0
0
0
0
0
0
0
0
0
0
0
0
0
0
0
0
0
0
0
0
0
0
0
0
0
0
0
0
0
0
0
0
0
0
0
0
0
0
0
0
0
0
0
0
0
0
0
0
0
0
0
0
0
0
0
0
0
0
0
0
0
0
0
0
0
0
0
0
0
0
0
0
0
0
0
0
0
0
0
0
0
0
0
0
0
0
0
0
0
0
0
0
0
0
0
0
0
0
0
0
0
0
0
0
0
0
0
0
0
0
0
0
0
0
0
0
0
0
0
0
0
0
0
0
0
0
0
0
0
0
0
0
0
0
0
0
0
0
0
0
0
0
0
0
0
0
0
0
0
0
0
0
0
0
0
0
0
0
0
0
0
0
0
0
0
0
0
0
0
0
0
0
0
0
0
0
0
0
0
0
0
0
0
0
0
0
0
0
0
0
0
0
0
0
0
0
0
0
0
0
0
0
0
0
0
0
0
0
0
0
0
0
0
0
0
0
0
0
0
0
0
0
0
0
0
0
0
0
0
0
0
0
0
0
0
0
0
0
0
0
0
0
0
0
0
0
0
0
0
0
0
0
0
0
0
0
0
0
0
0
0
0
0
0
0
0
0
0
0
0
0
0
0
0
0
0
0
0
0
0
0
0
0
0
0
0
0
0
0
0
0
0
0
0
0
0
0
0
0
0
0
0
0
0
0
0
0
0
0
0
0
0
0
0
0
0
0
0
0
0
0
0
0
0
0
0
0
0
0
0
0
0
0
0
0
0
0
0
0
0
0
0
0
0
0
0
0
0
0
0
0
0
0
0
0
0
0
0
0
0
0
0
0
0
0
0
1
0
0
0
1
1
1
1
1
1
1
1
1
1
1
1
1
1
1
1
1
1
1
1
0
0
0
0
0
0
0
0
0
0
0
0
0
0
0
0
0
0
0
0
0
0
0
0
0
0
0
0
0
0
0
0
0
0
0
0
0
0
0
0
0
0
0
0
0
0
0
0
0
0
0
0
0
0
0
0
0
0
0
0
0
0
0
0
0
0
0
0
0
0
0
0
0
0
0
0
0
0
0
0
0
0
0
0
0
0
0
0
0
0
0
0
0
0
0
0
0
0
0
1
1
1
1
1
1
1
1
1
1
1
1
1
1
1
1
1
1
1
1
1
1
1
1
1
1
1
0
0
0
1
1
1
1
1
1
1
1
1
1
1
1
1
1
1
1
1
1
1
1
1
1
1
1
1
1
1
1
1
1
0
0
0
0
0
0
0
0
0
0
0
0
0
0
0
0
0
0
0
0
0
0
0
0
0
0
0
0
0
0
0
0
0
0
0
0
0
0
0
0
0
0
0
0
0
0
0
0
0
0
0
0
0
0
0
0
0
0
0
0
0
0
0
0
1
1
1
1
1
1
1
1
1
1
1
1
1
1
1
1
1
1
1
1
1
1
1
1
1
1
1
1
1
1
1
1
1
1
1
1
1
1
1
1
1
1
1
1
1
1
1
1
1
1
1
1
1
1
1
1
1
1
1
1
1
1
1
1
1
1
1
1
1
1
1
1
1
1
1
1
1
1
1
1
1
1
1
1
1
1
1
1
1
1
1
1
1
1
1
1
1
1
1
1
1
1
0
0
0
0
0
0
0
0
0
0
0
0
0
0
0
0
0
0
0
1
1
1
0
0
1
1
1
1
1
1
1
1
1
1
1
1
1
1
1
1
1
1
1
1
1
1
1
1
1
1
1
1
1
1
1
1
1
1
1
1
1
1
1
1
1
1
1
1
1
1
1
1
1
0
0
0
0
0
0
0
0
0
0
0
0
0
0
0
0
0
1
1
1
1
1
1
1
1
1
1
1
1
1
1
1
1
1
1
1
1
0
0
0
0
0
0
0
0
0
0
1
1
1
1
1
1
1
1
1
1
1
1
1
1
1
0
0
0
0
0
0
0
0
0
1
1
1
1
0
0
1
1
1
1
1
1
2
2
2
1
1
1
1
1
1
1
1
1
1
1
1
1
2
2
2
1
1
1
1
1
1
1
1
0
1
1
1
1
1
1
1
1
1
1
1
1
1
1
1
0
0
0
0
0
0
0
0
0
0
0
0
0
0
0
0
0
0
0
0
0
0
0
0
0
0
0
0
0
0
0
0
0
0
0
0
0
0
0
0
0
0
0
0
0
0
0
0
0
0
0
0
0
0
1
1
1
1
1
1
1
1
1
1
1
1
1
1
1
1
1
1
1
1
0
1
1
1
1
1
1
1
2
2
1
1
1
1
1
1
1
1
1
1
1
1
1
1
2
2
2
1
1
1
1
1
1
1
1
1
1
1
1
1
2
2
2
2
2
2
1
1
1
1
1
1
1
1
1
1
1
1
0
0
0
0
0
0
0
0
0
0
0
0
0
0
0
0
0
0
0
0
0
0
0
0
0
0
0
0
0
0
0
0
0
0
0
0
0
0
0
0
0
0
0
0
0
0
1
1
1
1
1
1
1
1
1
1
1
1
1
1
1
1
1
1
1
1
1
1
1
1
1
1
1
1
1
1
1
1
1
1
1
1
1
1
1
1
1
1
1
1
1
2
2
2
2
2
2
2
2
2
1
1
1
1
1
1
2
2
2
2
2
2
2
2
2
1
1
1
1
1
1
1
1
1
1
1
1
1
1
1
1
1
1
1
1
1
1
1
1
1
1
1
1
1
1
1
1
0
0
0
1
1
1
1
1
1
0
0
0
0
0
0
0
0
0
0
0
0
0
0
1
1
1
1
1
1
1
1
1
1
1
1
1
1
1
1
1
2
2
2
2
1
1
1
1
1
1
1
1
1
1
1
1
1
1
1
1
1
1
1
1
1
1
1
1
2
2
2
2
2
2
2
2
2
1
1
1
1
1
1
2
2
2
2
2
2
2
2
2
2
2
1
1
1
1
1
1
1
1
1
1
1
1
1
1
1
1
1
1
1
1
1
1
1
1
1
1
1
1
1
1
1
1
1
1
1
1
1
1
1
1
1
1
1
1
1
1
1
1
1
1
1
1
1
1
1
1
1
1
1
1
1
1
1
1
1
1
1
1
1
1
2
2
2
2
2
1
1
1
1
1
1
1
1
2
2
2
2
2
2
1
1
1
1
1
1
1
1
1
2
2
3
3
2
2
1
1
1
1
1
1
1
1
1
2
2
3
3
3
3
3
3
3
3
3
2
2
1
1
1
2
2
2
1
1
1
1
1
1
1
1
1
1
1
1
1
1
1
1
1
1
1
1
1
1
1
1
1
1
1
1
1
1
1
1
1
1
1
1
1
1
1
1
1
1
1
1
1
1
1
1
1
1
1
1
1
1
1
1
1
1
1
1
1
1
2
2
2
3
3
2
2
1
1
2
2
2
2
2
2
2
2
2
2
2
2
2
2
2
2
2
2
2
2
2
3
3
3
3
2
1
1
1
1
1
1
1
1
1
2
3
3
4
4
4
4
4
4
4
3
3
2
2
2
2
2
2
2
2
1
1
1
1
1
1
1
1
1
1
1
1
1
1
1
1
1
1
1
1
1
1
1
1
1
1
1
1
1
1
1
1
1
1
1
1
1
1
1
1
1
1
1
1
1
1
1
1
1
2
2
2
2
1
1
1
1
1
1
1
1
2
2
2
2
2
2
2
1
2
2
2
2
2
2
3
3
3
3
3
2
2
2
2
2
2
2
2
2
2
3
4
4
5
4
4
4
4
3
3
3
3
3
3
3
4
4
5
5
5
5
5
5
5
4
4
4
4
4
4
4
4
4
4
3
3
3
3
3
3
3
3
3
3
3
3
3
3
3
3
3
3
3
3
3
3
2
2
2
2
2
2
2
2
2
2
2
2
2
2
2
2
2
2
2
2
2
2
2
2
2
2
2
2
2
2
2
2
2
2
1
1
1
1
2
2
2
2
2
3
3
3
2
2
2
3
3
3
3
3
3
3
3
3
3
2
2
2
3
3
3
3
3
3
3
4
5
5
6
6
6
6
6
6
5
4
4
4
4
4
5
5
6
6
6
5
5
5
4
4
3
3
3
3
3
3
3
3
3
4
4
4
4
4
4
4
4
4
4
4
4
4
4
4
4
5
5
5
5
5
5
5
5
5
5
5
5
4
4
3
3
3
3
3
3
3
3
3
3
3
3
3
3
3
3
3
3
3
3
3
2
2
2
2
2
2
2
2
2
2
2
2
2
2
3
3
3
3
1
1
1
1
1
1
2
2
2
2
2
2
2
2
2
2
3
3
3
3
3
3
4
6
6
7
6
5
4
4
4
5
5
5
5
5
5
4
4
4
3
3
3
3
3
3
2
2
1
1
1
1
1
1
1
1
1
1
1
1
1
1
1
1
1
1
1
1
1
2
2
2
2
2
3
3
3
3
3
3
3
3
4
4
3
3
2
2
1
1
1
1
1
1
1
1
1
1
1
1
1
2
2
2
2
3
3
3
3
3
3
3
3
3
3
3
3
3
3
3
3
3
3
4
3
1
1
1
1
2
2
2
2
2
2
2
2
2
2
3
3
4
4
4
3
2
3
3
4
5
5
5
5
5
5
5
6
6
5
5
5
5
5
5
5
5
5
5
5
4
4
3
3
3
3
3
3
2
2
2
2
2
2
2
2
2
2
2
2
2
2
2
2
2
2
2
2
2
2
2
2
2
2
2
2
2
2
2
2
2
2
2
2
2
2
2
2
2
2
2
2
2
2
2
2
2
2
2
2
2
3
3
3
3
3
3
2
2
2
2
2
2
2
3
3
4
5
5
5
4
1
2
2
2
3
3
3
3
3
2
2
2
2
1
1
2
2
2
2
2
2
2
2
2
2
4
5
5
6
6
7
7
7
6
6
6
6
6
6
6
6
6
6
6
5
4
4
3
3
3
3
3
3
3
3
2
3
3
3
3
3
3
2
2
2
2
2
2
2
2
2
3
3
3
3
3
3
3
3
2
2
2
2
2
2
2
2
2
2
2
2
2
2
2
2
2
2
2
2
2
2
2
3
3
3
4
4
4
4
4
3
3
2
2
2
2
3
4
5
7
8
8
8
7
5
1
2
3
3
3
4
4
3
3
2
2
2
2
2
2
2
2
2
2
2
2
2
2
2
3
5
7
7
7
7
8
8
8
8
8
8
7
7
7
7
7
7
8
7
7
5
4
3
3
3
3
4
4
4
4
4
4
4
5
6
5
4
3
3
3
3
3
3
3
2
2
2
3
3
3
3
3
3
3
3
3
3
3
3
3
3
3
3
3
3
3
3
3
3
3
3
3
3
3
3
3
3
3
3
4
4
5
5
5
4
4
3
3
3
3
3
4
5
6
7
8
9
9
8
6
1
2
3
4
4
4
4
4
4
3
3
2
2
2
2
3
4
5
6
6
6
6
6
6
6
7
7
6
5
6
7
9
9
9
9
9
9
9
8
8
8
8
8
8
7
6
4
4
4
4
4
5
5
5
4
4
4
5
6
6
5
4
4
3
3
3
3
3
3
2
2
2
2
3
3
3
4
4
4
3
3
3
3
4
4
4
4
4
4
4
4
4
4
4
4
4
4
4
4
4
4
4
4
4
5
5
6
6
5
5
5
4
4
3
4
4
4
5
7
9
10
11
10
9
7
2
3
4
4
5
5
5
5
4
4
3
2
2
2
3
3
4
6
7
7
7
7
7
7
7
8
8
7
6
6
8
9
10
10
10
10
10
10
10
9
9
8
8
8
8
7
5
4
4
4
4
5
5
5
5
4
5
5
5
5
4
4
4
3
3
3
3
3
3
3
2
2
2
3
3
3
3
4
4
4
4
3
3
3
4
4
4
4
4
4
4
4
4
4
4
4
4
4
4
4
4
4
5
5
5
6
7
6
6
6
6
5
5
5
5
5
5
6
6
7
8
9
10
10
8
2
3
4
5
5
6
5
5
5
4
3
3
3
3
3
4
5
5
5
5
4
4
4
5
6
8
9
9
9
9
11
12
12
12
12
12
12
12
11
11
10
10
10
10
9
9
9
11
11
11
10
10
10
10
9
9
9
9
9
8
7
7
6
6
6
6
5
5
5
4
4
3
3
3
4
4
4
4
4
4
4
4
4
4
5
5
6
6
6
6
6
6
6
6
6
6
6
6
6
6
6
5
5
6
6
7
7
7
7
7
6
6
5
5
5
5
5
6
7
8
9
9
10
10
8
3
4
5
6
7
7
6
6
5
5
4
4
4
4
4
4
5
6
5
4
4
4
4
6
8
11
15
18
20
20
19
17
15
14
14
14
13
13
13
12
11
11
11
11
11
11
14
16
18
16
15
14
15
15
15
15
16
15
15
15
15
15
15
15
16
16
16
16
16
15
15
15
15
15
15
14
14
14
14
14
13
13
12
12
11
10
10
9
9
9
9
9
9
9
9
9
9
9
9
9
9
9
9
10
10
10
9
9
8
8
8
7
7
6
6
6
6
7
7
8
9
10
11
12
10
3
4
5
7
8
8
8
7
6
5
4
4
4
4
4
5
6
6
5
4
4
5
7
12
16
18
19
19
19
18
17
15
13
13
13
14
15
14
14
13
13
13
13
14
13
11
10
9
9
8
7
7
8
8
9
9
9
10
10
11
11
12
12
13
13
14
14
14
14
14
15
15
15
15
16
16
16
16
17
17
17
17
17
16
14
11
8
7
6
6
6
6
6
6
6
6
7
7
7
8
8
9
9
10
10
10
10
10
9
9
9
9
9
9
8
9
9
9
9
9
9
10
12
13
11
3
5
6
7
8
8
8
8
7
6
5
4
4
4
5
6
7
7
6
4
4
4
7
11
14
15
14
13
13
14
16
16
14
10
8
7
7
8
10
14
17
17
17
17
15
12
9
7
7
7
7
7
7
7
7
7
7
7
6
5
5
5
5
5
5
5
5
5
5
5
5
5
6
6
6
6
6
5
5
5
4
5
5
6
6
6
5
5
5
5
5
5
5
5
5
4
4
4
4
4
5
5
5
6
8
10
11
11
10
10
9
8
8
8
8
8
8
8
9
10
11
13
15
16
13
4
5
7
9
9
10
10
9
8
7
6
5
5
5
6
7
9
12
13
13
12
12
11
10
11
13
16
18
18
18
19
19
16
12
10
9
10
10
12
17
20
20
19
18
16
13
11
9
9
9
10
10
11
12
13
12
12
11
10
8
7
6
6
6
6
6
6
6
6
7
8
8
9
9
9
9
8
8
7
6
5
5
5
5
6
6
6
6
6
6
6
6
7
7
7
6
6
6
6
7
7
7
6
7
8
11
12
12
11
11
10
10
10
9
9
10
10
12
17
21
24
25
24
21
16
4
6
8
10
11
11
11
10
9
8
6
6
5
6
6
8
10
12
12
12
11
11
12
12
14
16
19
20
21
21
23
23
19
14
11
10
10
11
14
18
21
21
21
20
18
15
12
10
10
9
9
10
10
11
11
10
10
11
13
15
14
11
9
8
8
8
8
8
8
8
9
9
10
10
10
10
10
10
8
7
6
6
6
7
7
7
8
7
7
7
7
8
8
8
7
6
6
6
7
7
8
8
8
9
11
13
14
14
13
12
12
12
11
11
12
12
12
15
19
24
27
27
27
24
18
5
7
9
11
12
13
12
11
10
9
7
6
6
7
7
9
11
11
9
7
6
6
6
7
10
15
18
19
18
17
17
18
17
14
13
12
13
13
16
19
22
23
23
23
21
17
14
12
12
11
11
12
13
13
13
12
11
10
12
14
14
11
9
8
8
8
8
8
8
9
10
11
11
12
12
12
12
12
10
9
8
8
8
9
9
10
10
9
9
9
10
10
11
11
10
9
9
9
9
10
9
9
9
10
12
14
15
15
15
14
14
13
13
13
13
14
15
17
22
26
29
30
30
27
20
5
8
10
12
13
14
13
12
11
9
8
7
7
7
8
9
11
12
10
8
8
8
8
10
13
17
18
15
13
12
13
16
17
16
16
15
15
15
18
21
24
25
25
24
22
19
14
11
10
10
11
11
12
12
12
12
12
11
12
14
15
13
11
9
8
8
9
10
11
12
12
13
14
14
14
14
13
12
11
10
9
9
9
10
10
10
10
10
10
10
11
11
12
12
12
12
12
11
12
12
12
11
12
12
14
16
17
17
16
16
16
15
15
15
15
15
16
17
20
24
28
30
32
30
23
6
9
11
13
15
15
15
14
12
10
9
8
8
7
8
10
13
13
11
8
7
7
8
10
13
17
18
15
13
12
14
16
17
16
14
13
13
15
19
23
26
28
28
28
26
22
18
15
14
12
11
10
10
9
9
9
9
9
9
10
11
11
10
8
8
8
8
9
11
12
13
14
15
15
15
14
12
10
9
8
8
8
9
10
11
12
12
12
12
12
12
12
12
12
11
11
11
11
11
11
11
11
11
13
16
18
20
19
18
17
16
16
15
15
15
15
16
17
19
21
24
27
30
31
25
6
9
13
15
17
17
17
16
14
11
9
9
8
8
9
12
16
19
19
17
16
16
15
16
20
27
33
38
40
41
40
38
35
34
35
35
34
33
32
31
31
31
31
30
29
30
35
40
41
39
36
36
36
36
36
35
35
34
34
33
32
31
29
28
27
26
25
25
25
25
26
26
25
25
24
23
22
20
17
15
14
14
15
16
18
20
21
22
22
22
22
22
22
22
22
23
23
22
22
21
21
20
20
21
21
22
22
21
20
20
19
19
18
18
18
17
18
18
20
23
27
30
34
35
28
7
10
13
16
17
17
17
17
15
12
10
9
9
10
11
13
18
24
27
28
28
30
35
42
46
48
51
56
59
57
53
48
45
44
45
46
45
44
41
38
35
34
34
34
33
35
41
47
48
44
41
41
41
41
42
43
43
44
44
45
45
45
45
46
47
47
47
47
47
47
47
47
47
47
47
47
47
47
47
47
47
47
47
45
39
33
28
26
26
26
26
26
26
26
26
26
26
26
26
26
26
26
26
26
27
26
25
23
22
22
21
21
21
21
21
21
22
22
22
23
24
27
33
36
30
7
11
15
17
18
18
18
17
16
13
11
10
10
10
11
14
17
18
15
12
11
13
20
30
38
38
36
33
34
37
40
39
33
28
25
25
24
26
30
36
40
42
42
40
34
27
21
17
16
15
14
14
13
13
13
13
14
15
15
16
17
18
19
19
19
19
19
19
20
21
22
24
26
28
29
29
30
30
31
32
33
34
35
33
28
22
16
13
12
12
12
12
12
12
12
12
11
11
11
11
11
12
13
16
20
24
26
25
25
23
22
21
20
20
20
20
21
21
22
23
24
29
36
40
33
8
12
16
19
20
20
20
19
17
14
12
11
12
12
13
16
19
19
16
14
12
12
12
14
20
28
36
41
43
47
51
49
40
30
26
24
24
26
31
40
46
48
48
45
39
32
26
22
21
22
22
21
18
15
14
13
13
12
12
13
13
13
13
12
12
12
12
12
13
13
13
13
14
14
14
13
12
10
9
9
9
9
11
13
15
16
17
17
17
16
17
17
18
19
19
18
18
18
18
18
18
16
16
18
23
28
30
29
27
25
24
22
22
21
22
22
25
31
41
51
57
59
58
52
37
9
14
18
21
23
23
23
22
19
16
13
12
12
12
14
17
21
21
17
14
12
12
13
16
25
35
42
44
46
52
57
55
45
34
27
25
26
28
34
43
50
51
51
48
41
33
26
24
24
26
27
26
23
20
18
16
15
15
17
19
19
17
16
15
15
16
16
16
16
16
17
18
19
20
19
18
15
13
13
13
14
14
15
15
17
17
17
16
16
16
16
18
19
19
19
18
18
19
19
19
19
19
19
21
26
31
33
31
30
29
28
27
26
26
26
27
29
37
48
57
62
62
60
53
39
10
15
20
23
25
26
26
25
21
17
14
14
14
14
16
19
24
25
23
19
17
16
16
19
27
38
46
49
49
51
53
50
43
35
31
30
30
32
39
50
59
62
61
57
47
37
31
29
29
29
29
30
29
28
24
21
19
18
20
22
22
20
18
18
18
19
19
18
17
16
17
19
21
22
23
22
19
17
17
18
18
19
20
20
21
21
21
21
21
21
22
23
24
24
23
22
22
23
24
24
24
23
23
26
30
33
34
34
33
32
31
31
31
31
31
31
34
42
54
64
68
68
63
54
38
10
16
21
24
26
27
27
25
22
18
15
14
15
15
16
20
28
37
42
45
45
44
42
40
39
41
39
33
28
28
34
38
38
34
32
31
31
34
42
53
61
63
62
59
52
41
32
27
25
24
23
24
25
25
24
24
23
21
20
19
19
18
17
16
16
17
18
19
19
21
22
23
23
22
23
23
23
23
22
22
21
21
22
24
25
26
25
25
25
26
27
28
28
28
27
26
26
27
28
28
28
28
29
32
36
39
39
38
36
35
35
34
35
34
34
34
36
42
52
62
67
64
55
41
26
11
17
22
25
27
27
27
26
24
20
17
16
16
16
18
22
28
29
25
21
19
19
22
27
35
43
41
33
27
29
35
41
42
39
35
33
33
36
42
50
55
55
56
55
51
43
35
30
29
30
29
28
26
25
24
23
23
22
21
21
21
22
22
21
21
21
22
24
27
30
32
32
30
27
27
29
30
30
28
27
26
25
25
24
24
25
25
26
26
26
27
28
28
28
28
28
29
29
30
30
30
30
31
34
38
42
43
42
41
39
38
37
37
36
35
35
37
43
51
57
59
58
55
48
35
11
17
23
26
28
28
28
28
26
22
18
17
17
17
18
23
27
28
25
22
21
22
24
30
38
48
55
58
60
60
58
54
51
50
49
49
49
49
51
55
60
63
64
62
57
53
53
53
51
48
45
43
39
37
35
34
32
29
28
28
28
27
26
25
24
23
23
24
26
29
32
33
29
25
22
21
21
21
21
21
20
20
22
26
32
37
38
38
38
38
38
39
39
39
40
41
42
42
42
42
41
41
42
43
46
48
47
45
43
41
39
38
37
36
35
35
38
45
56
66
72
72
67
57
40
11
18
24
28
30
31
31
29
26
21
19
18
19
19
22
26
30
29
26
23
23
29
46
70
87
96
106
116
120
116
107
95
88
87
88
89
87
84
77
70
66
66
67
66
66
73
89
101
101
95
91
90
90
90
91
92
92
90
89
89
90
92
94
94
93
92
91
90
89
88
88
87
85
83
82
81
80
78
77
75
74
73
72
69
65
61
57
56
56
56
57
57
57
57
57
57
58
59
59
60
61
62
63
63
61
57
53
50
47
45
44
43
43
42
42
42
44
48
54
58
62
68
78
82
65
12
20
27
31
34
34
34
33
29
24
21
19
19
18
19
25
31
32
28
24
23
29
43
64
81
89
89
87
88
94
98
95
91
90
90
90
88
85
81
77
75
74
74
73
68
66
71
77
78
76
75
75
77
79
80
80
80
82
85
87
87
87
87
87
88
88
89
90
92
94
96
98
99
99
99
98
97
97
97
97
97
98
99
95
79
58
40
32
30
30
30
30
30
30
31
32
33
35
37
39
41
42
43
47
52
56
56
54
51
49
48
47
46
46
46
49
51
51
50
50
53
63
80
89
73
13
21
28
33
35
36
36
35
31
26
22
21
21
23
27
34
45
55
60
62
61
58
54
52
59
74
83
82
80
87
97
99
96
95
94
93
92
91
90
90
89
87
87
83
71
56
43
36
32
30
29
29
29
28
25
22
21
20
19
17
16
15
16
17
18
18
19
20
22
25
28
31
33
34
35
34
33
31
30
30
30
31
33
35
34
30
26
24
24
24
24
24
25
26
27
28
28
28
28
28
28
28
30
36
47
56
58
55
51
44
36
31
30
33
39
49
61
75
90
102
108
111
115
109
82
14
21
28
33
34
34
34
34
31
27
23
22
23
23
24
30
40
45
44
42
41
41
43
49
61
78
88
86
84
91
102
105
103
101
101
100
99
98
96
95
94
94
94
88
75
60
50
44
43
42
44
48
53
54
53
53
51
47
42
36
31
30
31
33
33
33
33
33
34
35
37
39
39
39
38
37
36
34
29
25
24
25
28
30
33
33
30
27
25
24
25
27
29
29
28
26
26
27
29
30
30
30
32
38
49
58
60
57
53
47
41
38
38
40
46
58
73
89
105
118
121
121
121
114
86
14
23
30
34
36
36
35
35
32
28
24
24
25
26
28
35
40
39
32
27
26
27
30
39
58
82
96
95
91
97
107
110
108
106
106
106
105
104
103
103
103
103
103
97
81
63
51
46
45
47
51
58
65
69
72
76
77
77
76
70
58
47
40
38
38
38
39
38
36
34
32
31
31
31
30
29
29
30
30
29
28
28
28
29
29
30
29
28
27
27
28
30
32
31
29
26
26
27
30
31
32
32
35
42
52
60
61
59
55
50
44
41
41
43
49
60
76
96
116
128
131
130
129
119
90
15
24
33
38
41
41
40
39
35
30
26
25
26
26
29
34
39
37
33
30
30
30
33
43
63
82
85
71
66
82
104
114
114
112
112
111
110
109
109
111
111
111
112
105
88
69
56
50
48
47
49
53
57
60
66
72
76
80
81
75
60
46
38
36
36
37
38
38
36
35
35
36
37
39
40
39
39
38
37
37
36
35
35
37
40
42
42
41
40
40
41
41
41
40
39
37
36
37
38
38
38
38
42
48
57
64
65
63
59
53
47
44
45
49
55
63
77
98
121
139
151
155
149
132
96
15
26
35
41
44
45
45
43
39
32
28
27
27
27
29
37
43
41
32
26
25
27
32
43
62
81
82
68
62
79
105
118
119
118
118
117
116
112
108
104
103
103
102
97
83
64
50
43
40
39
40
42
45
49
57
66
71
73
71
65
55
46
39
37
37
38
39
40
40
40
40
39
37
35
35
36
37
37
37
37
37
39
40
39
38
39
40
41
42
43
43
42
42
41
40
40
40
43
45
47
48
49
51
56
64
69
69
66
62
56
52
49
48
48
49
52
58
70
83
94
100
94
81
64
45
15
26
35
42
45
46
46
45
40
33
29
28
28
28
30
38
50
58
61
63
65
67
68
71
81
92
92
80
77
94
115
123
122
121
121
122
120
116
110
102
97
95
94
90
80
67
56
48
42
39
37
36
35
36
38
42
44
45
44
42
41
37
33
31
31
33
35
39
44
49
52
51
44
38
36
36
38
39
38
37
36
34
34
36
39
42
45
46
47
48
49
49
49
48
47
46
45
46
47
47
47
47
50
57
65
71
72
69
64
58
53
50
49
49
50
54
61
73
89
100
98
82
62
47
32
16
26
34
39
40
41
42
41
38
33
30
28
27
28
30
39
51
61
67
73
84
107
138
161
170
172
175
179
179
172
158
141
130
128
128
128
125
121
119
126
142
160
171
174
173
165
150
136
127
122
120
118
117
116
115
113
112
109
107
103
97
91
86
83
81
80
77
75
74
75
77
78
76
72
68
65
61
58
55
53
50
47
46
49
56
65
75
83
87
88
87
88
88
87
87
87
88
89
90
90
91
91
90
89
86
82
77
73
70
66
63
60
59
59
60
62
67
73
81
84
78
66
54
44
32
16
26
34
38
40
41
42
41
37
32
29
29
30
31
33
39
45
44
39
38
49
77
113
140
157
164
162
160
162
163
156
144
135
132
132
131
129
125
123
131
153
176
187
189
186
176
161
148
143
144
146
146
145
144
144
144
143
142
141
141
144
148
151
152
153
152
151
150
149
147
145
143
142
142
142
142
141
140
140
141
143
144
143
142
138
128
111
95
85
83
83
81
77
73
71
71
72
73
75
78
81
83
85
86
88
86
81
77
76
75
75
75
75
76
78
79
81
84
86
86
83
74
62
49
34
17
27
35
40
42
45
47
47
42
36
33
33
34
33
35
40
46
43
37
37
49
75
106
132
153
153
127
99
95
114
134
140
137
136
136
134
132
130
130
131
126
115
104
96
86
72
61
55
54
54
56
58
59
60
61
63
66
69
71
70
70
70
71
73
74
74
75
76
77
79
83
87
90
92
95
97
99
101
103
107
112
117
121
124
122
110
83
53
30
19
18
21
27
32
31
27
25
24
24
24
24
27
36
52
71
84
86
83
77
70
64
60
58
58
57
56
54
52
50
48
47
45
41
35
25
18
29
39
46
48
50
50
48
42
36
32
29
27
28
32
40
46
44
37
35
46
73
106
132
152
156
135
110
107
127
145
147
142
140
140
139
135
131
128
128
126
121
117
111
97
78
64
57
53
50
52
54
53
45
37
32
29
28
31
35
36
36
38
40
40
41
41
41
37
31
26
24
24
26
29
32
34
34
34
33
33
33
34
36
39
41
40
38
37
38
37
36
37
38
37
35
36
39
42
43
41
40
44
56
74
85
86
83
79
74
70
67
66
65
64
61
57
50
41
34
31
32
32
30
23
17
30
41
49
52
53
54
56
63
75
87
95
98
97
94
89
82
74
67
67
76
97
122
146
166
166
140
111
110
132
151
152
147
145
145
144
141
137
131
126
122
123
125
119
103
86
74
69
67
70
76
83
82
72
62
56
50
46
49
51
48
47
48
50
50
50
50
47
42
36
33
33
33
34
37
40
42
44
46
47
46
44
41
39
37
35
32
28
26
26
28
33
38
39
35
32
33
37
40
41
41
43
52
66
81
90
89
85
80
74
68
66
66
66
67
66
62
53
40
32
30
32
34
32
24
17
28
38
43
47
48
49
53
61
75
86
91
92
91
92
94
95
96
96
93
95
106
125
144
161
159
132
99
89
109
137
150
150
149
149
148
145
139
136
135
135
139
142
131
106
82
69
66
68
73
80
92
103
109
109
102
92
88
90
84
68
56
54
55
56
56
56
53
48
43
40
39
39
40
42
45
47
47
47
47
48
49
49
50
51
51
50
49
47
46
46
49
52
53
52
51
50
50
50
50
48
47
52
64
79
90
91
88
82
76
71
69
69
70
70
70
66
58
46
37
33
32
34
33
26
24
38
44
44
44
46
50
56
66
80
90
94
95
95
94
89
80
73
74
82
97
125
160
184
189
169
127
89
81
105
137
153
154
153
152
151
148
143
136
129
126
128
130
126
112
91
75
68
65
64
65
73
86
97
98
89
74
69
73
72
59
49
46
46
48
50
52
52
50
46
43
41
41
41
44
47
50
52
53
52
51
49
50
52
55
57
58
59
59
58
55
53
54
54
52
52
53
56
59
61
62
64
69
77
85
88
87
85
83
79
74
70
70
70
69
68
66
66
65
63
60
55
50
44
33
